<svg width="196" height="196" viewBox="0 0 196 196" fill="none" xmlns="http://www.w3.org/2000/svg">
<g id="The_University_of_California_UCLA 1" clip-path="url(#clip0_2_316)">
<g id="g6083">
<path id="circle5473" d="M97.9503 193.984C150.95 193.984 193.915 151.011 193.915 98C193.915 44.9893 150.95 2.01569 97.9503 2.01569C44.9503 2.01569 1.98535 44.9893 1.98535 98C1.98535 151.011 44.9503 193.984 97.9503 193.984Z" fill="white"/>
<path id="circle5475" d="M97.9503 196C99.0633 196 99.9656 195.098 99.9656 193.984C99.9656 192.871 99.0633 191.969 97.9503 191.969C96.8373 191.969 95.935 192.871 95.935 193.984C95.935 195.098 96.8373 196 97.9503 196Z" fill="#2774AE"/>
<path id="circle5477" d="M93.0615 195.878C94.1731 195.933 95.1193 195.077 95.1748 193.965C95.2304 192.854 94.3742 191.907 93.2626 191.852C92.151 191.796 91.2049 192.652 91.1493 193.764C91.0938 194.876 91.9499 195.822 93.0615 195.878Z" fill="#2774AE"/>
<path id="circle5479" d="M88.2019 195.514C89.3094 195.625 90.2969 194.816 90.4077 193.709C90.5184 192.601 89.7104 191.613 88.6029 191.502C87.4954 191.392 86.5079 192.2 86.3972 193.308C86.2864 194.415 87.0944 195.403 88.2019 195.514Z" fill="#2774AE"/>
<path id="circle5481" d="M83.3495 194.906C84.4501 195.072 85.4767 194.314 85.6426 193.213C85.8084 192.112 85.0507 191.085 83.9501 190.919C82.8496 190.754 81.8229 191.511 81.6571 192.612C81.4912 193.713 82.2489 194.74 83.3495 194.906Z" fill="#2774AE"/>
<path id="circle5483" d="M78.5335 194.056C79.6245 194.277 80.6876 193.571 80.9082 192.48C81.1288 191.389 80.4232 190.326 79.3323 190.105C78.2413 189.884 77.1782 190.59 76.9576 191.681C76.737 192.772 77.4426 193.836 78.5335 194.056Z" fill="#2774AE"/>
<path id="circle5485" d="M73.7659 192.968C74.8444 193.243 75.9415 192.591 76.2162 191.512C76.4909 190.433 75.8393 189.336 74.7607 189.061C73.6821 188.786 72.5851 189.438 72.3104 190.517C72.0357 191.596 72.6873 192.693 73.7659 192.968Z" fill="#2774AE"/>
<path id="circle5487" d="M69.0748 191.648C70.1384 191.976 71.2665 191.379 71.5945 190.315C71.9225 189.252 71.3262 188.123 70.2626 187.795C69.199 187.467 68.0709 188.064 67.7429 189.127C67.4149 190.191 68.0112 191.319 69.0748 191.648Z" fill="#2774AE"/>
<path id="circle5489" d="M64.4391 190.09C65.485 190.471 66.6414 189.931 67.0221 188.885C67.4028 187.839 66.8635 186.682 65.8176 186.302C64.7717 185.921 63.6153 186.46 63.2346 187.506C62.854 188.552 63.3932 189.709 64.4391 190.09Z" fill="#2774AE"/>
<path id="circle5491" d="M59.8869 188.303C60.9125 188.735 62.0944 188.254 62.5268 187.228C62.9591 186.203 62.4783 185.021 61.4527 184.588C60.4271 184.156 59.2452 184.637 58.8128 185.662C58.3804 186.688 58.8613 187.87 59.8869 188.303Z" fill="#2774AE"/>
<path id="circle5493" d="M55.4449 186.298C56.4477 186.781 57.6521 186.359 58.1349 185.356C58.6178 184.353 58.1962 183.149 57.1934 182.666C56.1906 182.183 54.9862 182.605 54.5034 183.608C54.0206 184.611 54.4421 185.815 55.4449 186.298Z" fill="#2774AE"/>
<path id="circle5495" d="M51.093 184.067C52.0705 184.599 53.2944 184.238 53.8267 183.261C54.3589 182.283 53.998 181.059 53.0205 180.526C52.0431 179.994 50.8192 180.355 50.2869 181.333C49.7546 182.31 50.1155 183.535 51.093 184.067Z" fill="#2774AE"/>
<path id="circle5497" d="M46.8579 181.621C47.8076 182.202 49.048 181.902 49.6283 180.952C50.2087 180.003 49.9093 178.762 48.9596 178.181C48.0099 177.601 46.7696 177.9 46.1892 178.85C45.6088 179.8 45.9082 181.041 46.8579 181.621Z" fill="#2774AE"/>
<path id="circle5499" d="M42.7501 178.967C43.6696 179.594 44.9234 179.357 45.5504 178.438C46.1775 177.518 45.9403 176.264 45.0208 175.637C44.1012 175.009 42.8475 175.247 42.2204 176.166C41.5934 177.086 41.8305 178.34 42.7501 178.967Z" fill="#2774AE"/>
<path id="circle5501" d="M38.7933 176.122C39.6806 176.794 40.9446 176.62 41.6166 175.732C42.2886 174.845 42.1141 173.58 41.2268 172.908C40.3396 172.236 39.0756 172.411 38.4036 173.298C37.7316 174.186 37.9061 175.45 38.7933 176.122Z" fill="#2774AE"/>
<path id="circle5503" d="M34.9699 173.072C35.8225 173.788 37.0936 173.677 37.809 172.824C38.5244 171.971 38.4132 170.7 37.5606 169.984C36.708 169.269 35.4369 169.38 34.7215 170.233C34.006 171.085 34.1172 172.357 34.9699 173.072Z" fill="#2774AE"/>
<path id="circle5505" d="M31.3033 169.836C32.1191 170.593 33.3942 170.545 34.1513 169.729C34.9083 168.913 34.8607 167.638 34.0449 166.881C33.229 166.123 31.9539 166.171 31.1968 166.987C30.4398 167.803 30.4874 169.079 31.3033 169.836Z" fill="#2774AE"/>
<path id="circle5507" d="M27.8146 166.432C28.5918 167.229 29.8677 167.245 30.6644 166.468C31.4611 165.69 31.4769 164.414 30.6998 163.617C29.9226 162.821 28.6467 162.805 27.85 163.582C27.0533 164.359 27.0374 165.636 27.8146 166.432Z" fill="#2774AE"/>
<path id="circle5509" d="M24.4882 162.847C25.2247 163.682 26.4982 163.761 27.3327 163.025C28.1672 162.288 28.2466 161.014 27.5101 160.179C26.7737 159.345 25.5002 159.265 24.6657 160.002C23.8312 160.739 23.7517 162.012 24.4882 162.847Z" fill="#2774AE"/>
<path id="circle5511" d="M21.3448 159.1C22.0387 159.97 23.3067 160.113 24.1769 159.419C25.047 158.725 25.1899 157.457 24.496 156.587C23.8021 155.716 22.5341 155.573 21.6639 156.267C20.7937 156.962 20.6508 158.23 21.3448 159.1Z" fill="#2774AE"/>
<path id="circle5513" d="M18.3922 155.201C19.0418 156.105 20.3011 156.311 21.2048 155.661C22.1085 155.011 22.3145 153.752 21.6649 152.848C21.0153 151.944 19.756 151.738 18.8523 152.388C17.9485 153.037 17.7425 154.297 18.3922 155.201Z" fill="#2774AE"/>
<path id="circle5515" d="M15.647 151.174C16.2509 152.109 17.4984 152.377 18.4333 151.773C19.3682 151.169 19.6366 149.921 19.0327 148.986C18.4288 148.051 17.1813 147.783 16.2464 148.387C15.3115 148.991 15.0431 150.239 15.647 151.174Z" fill="#2774AE"/>
<path id="circle5517" d="M13.097 147C13.6535 147.964 14.886 148.294 15.8499 147.738C16.8137 147.181 17.144 145.948 16.5875 144.984C16.031 144.02 14.7985 143.69 13.8346 144.247C12.8707 144.803 12.5405 146.036 13.097 147Z" fill="#2774AE"/>
<path id="circle5519" d="M10.7582 142.704C11.266 143.695 12.4805 144.086 13.4709 143.579C14.4614 143.071 14.8527 141.856 14.345 140.865C13.8373 139.875 12.6228 139.483 11.6323 139.991C10.6419 140.499 10.2505 141.714 10.7582 142.704Z" fill="#2774AE"/>
<path id="circle5521" d="M8.64379 138.313C9.10163 139.327 10.2952 139.779 11.3096 139.321C12.3241 138.863 12.7754 137.669 12.3175 136.654C11.8597 135.64 10.6661 135.188 9.65166 135.646C8.63719 136.104 8.18595 137.298 8.64379 138.313Z" fill="#2774AE"/>
<path id="circle5523" d="M6.74398 133.806C7.15063 134.842 8.32017 135.352 9.35623 134.946C10.3923 134.539 10.9025 133.369 10.4959 132.333C10.0892 131.297 8.91967 130.786 7.88362 131.193C6.84756 131.6 6.33733 132.769 6.74398 133.806Z" fill="#2774AE"/>
<path id="circle5525" d="M5.07142 129.209C5.42586 130.265 6.56849 130.833 7.62354 130.478C8.67859 130.124 9.24654 128.981 8.89209 127.926C8.53764 126.87 7.39502 126.302 6.33997 126.657C5.28491 127.011 4.71697 128.154 5.07142 129.209Z" fill="#2774AE"/>
<path id="circle5527" d="M3.63019 124.535C3.93155 125.607 5.04441 126.231 6.11584 125.93C7.18726 125.628 7.81151 124.515 7.51015 123.444C7.20878 122.372 6.09592 121.748 5.0245 122.049C3.95307 122.351 3.32882 123.464 3.63019 124.535Z" fill="#2774AE"/>
<path id="circle5529" d="M2.42777 119.812C2.67549 120.897 3.75594 121.576 4.84102 121.328C5.9261 121.081 6.60492 120 6.3572 118.915C6.10948 117.829 5.02903 117.15 3.94395 117.398C2.85887 117.646 2.18005 118.727 2.42777 119.812Z" fill="#2774AE"/>
<path id="circle5531" d="M1.45863 115.018C1.6519 116.114 2.69713 116.846 3.79322 116.653C4.88931 116.459 5.62119 115.414 5.42792 114.318C5.23465 113.221 4.18942 112.489 3.09333 112.682C1.99724 112.876 1.26536 113.921 1.45863 115.018Z" fill="#2774AE"/>
<path id="circle5533" d="M0.729914 110.181C0.868253 111.285 1.87567 112.069 2.98003 111.93C4.0844 111.792 4.86752 110.784 4.72918 109.68C4.59084 108.575 3.58343 107.792 2.47906 107.93C1.37469 108.069 0.591574 109.076 0.729914 110.181Z" fill="#2774AE"/>
<path id="circle5535" d="M0.244616 105.331C0.327874 106.441 1.2951 107.273 2.40498 107.19C3.51487 107.107 4.34711 106.139 4.26385 105.029C4.18059 103.919 3.21336 103.087 2.10348 103.17C0.9936 103.253 0.161359 104.221 0.244616 105.331Z" fill="#2774AE"/>
<path id="circle5537" d="M0.000606415 100.446C0.028382 101.559 0.95288 102.438 2.06553 102.41C3.17819 102.383 4.05765 101.458 4.02988 100.345C4.0021 99.2322 3.0776 98.3525 1.96495 98.3803C0.852296 98.4081 -0.0271692 99.3328 0.000606415 100.446Z" fill="#2774AE"/>
<path id="circle5539" d="M0.000607555 95.5543C-0.027168 96.6672 0.852297 97.5919 1.96495 97.6197C3.0776 97.6475 4.0021 96.7678 4.02988 95.6549C4.05765 94.5421 3.17819 93.6174 2.06553 93.5896C0.952882 93.5618 0.0283831 94.4415 0.000607555 95.5543Z" fill="#2774AE"/>
<path id="circle5541" d="M0.244629 90.6692C0.161371 91.7793 0.993612 92.7467 2.10349 92.83C3.21337 92.9132 4.1806 92.0808 4.26386 90.9707C4.34712 89.8606 3.51488 88.8932 2.405 88.8099C1.29511 88.7266 0.327886 89.559 0.244629 90.6692Z" fill="#2774AE"/>
<path id="circle5543" d="M0.729889 85.8192C0.59155 86.9237 1.37467 87.9314 2.47904 88.0697C3.58341 88.2081 4.59082 87.4248 4.72916 86.3202C4.8675 85.2156 4.08438 84.208 2.98001 84.0697C1.87564 83.9313 0.868228 84.7146 0.729889 85.8192Z" fill="#2774AE"/>
<path id="circle5545" d="M1.45862 80.9825C1.26535 82.0788 1.99723 83.1242 3.09332 83.3175C4.18941 83.5108 5.23465 82.7788 5.42792 81.6825C5.62119 80.5862 4.88931 79.5407 3.79322 79.3474C2.69713 79.1541 1.65189 79.8862 1.45862 80.9825Z" fill="#2774AE"/>
<path id="circle5547" d="M2.42776 76.1882C2.18004 77.2735 2.85886 78.3541 3.94394 78.6019C5.02902 78.8497 6.10947 78.1707 6.35719 77.0854C6.60491 76.0001 5.92609 74.9194 4.84101 74.6717C3.75593 74.4239 2.67548 75.1029 2.42776 76.1882Z" fill="#2774AE"/>
<path id="circle5549" d="M3.63018 71.4647C3.32882 72.5363 3.95307 73.6494 5.02449 73.9508C6.09592 74.2522 7.20878 73.6279 7.51015 72.5562C7.81151 71.4846 7.18726 70.3715 6.11583 70.0701C5.04441 69.7686 3.93155 70.393 3.63018 71.4647Z" fill="#2774AE"/>
<path id="circle5551" d="M5.07141 66.7907C4.71696 67.8459 5.28491 68.9888 6.33996 69.3433C7.39501 69.6978 8.53764 69.1297 8.89209 68.0745C9.24654 67.0192 8.67859 65.8764 7.62354 65.5218C6.56848 65.1673 5.42586 65.7354 5.07141 66.7907Z" fill="#2774AE"/>
<path id="circle5553" d="M6.744 62.1943C6.33735 63.2306 6.84758 64.4003 7.88363 64.8071C8.91968 65.2138 10.0892 64.7035 10.4959 63.6672C10.9025 62.6309 10.3923 61.4612 9.35624 61.0544C8.32019 60.6477 7.15065 61.158 6.744 62.1943Z" fill="#2774AE"/>
<path id="circle5555" d="M8.6438 57.6872C8.18596 58.7018 8.6372 59.8956 9.65167 60.3536C10.6661 60.8115 11.8597 60.3601 12.3175 59.3455C12.7754 58.3308 12.3241 57.137 11.3097 56.6791C10.2952 56.2212 9.10164 56.6725 8.6438 57.6872Z" fill="#2774AE"/>
<path id="circle5557" d="M10.7583 53.2957C10.2506 54.2864 10.6419 55.5011 11.6324 56.0089C12.6228 56.5167 13.8373 56.1253 14.345 55.1347C14.8527 54.144 14.4614 52.9293 13.4709 52.4215C12.4805 51.9136 11.266 52.3051 10.7583 53.2957Z" fill="#2774AE"/>
<path id="circle5559" d="M13.097 49C12.5405 49.9641 12.8707 51.1968 13.8346 51.7534C14.7985 52.31 16.031 51.9797 16.5875 51.0156C17.144 50.0516 16.8137 48.8188 15.8499 48.2622C14.886 47.7056 13.6535 48.0359 13.097 49Z" fill="#2774AE"/>
<path id="circle5561" d="M15.647 44.8264C15.0431 45.7615 15.3115 47.0092 16.2464 47.6132C17.1813 48.2172 18.4288 47.9488 19.0327 47.0137C19.6366 46.0786 19.3682 44.8309 18.4333 44.2269C17.4984 43.6229 16.2509 43.8913 15.647 44.8264Z" fill="#2774AE"/>
<path id="circle5563" d="M18.3922 40.799C17.7426 41.703 17.9485 42.9625 18.8523 43.6122C19.756 44.262 21.0153 44.056 21.6649 43.1521C22.3146 42.2482 22.1086 40.9886 21.2048 40.3389C20.3011 39.6891 19.0418 39.8951 18.3922 40.799Z" fill="#2774AE"/>
<path id="circle5565" d="M21.3448 36.8999C20.6508 37.7703 20.7937 39.0385 21.6639 39.7326C22.5341 40.4266 23.8021 40.2837 24.496 39.4133C25.1899 38.543 25.047 37.2748 24.1768 36.5807C23.3066 35.8866 22.0387 36.0296 21.3448 36.8999Z" fill="#2774AE"/>
<path id="circle5567" d="M24.4882 33.1529C23.7517 33.9876 23.8312 35.2614 24.6657 35.998C25.5002 36.7346 26.7737 36.6551 27.5101 35.8205C28.2466 34.9858 28.1672 33.7121 27.3327 32.9754C26.4982 32.2388 25.2247 32.3183 24.4882 33.1529Z" fill="#2774AE"/>
<path id="circle5569" d="M27.8146 29.5676C27.0375 30.3644 27.0533 31.6406 27.85 32.4179C28.6467 33.1953 29.9226 33.1795 30.6998 32.3826C31.477 31.5857 31.4611 30.3096 30.6644 29.5322C29.8677 28.7549 28.5918 28.7707 27.8146 29.5676Z" fill="#2774AE"/>
<path id="circle5571" d="M31.3033 26.1643C30.4874 26.9215 30.4398 28.1969 31.1968 29.0129C31.9539 29.8289 33.229 29.8765 34.0449 29.1193C34.8607 28.3621 34.9084 27.0867 34.1513 26.2707C33.3942 25.4547 32.1191 25.407 31.3033 26.1643Z" fill="#2774AE"/>
<path id="circle5573" d="M34.9698 22.9277C34.1172 23.6432 34.006 24.9146 34.7214 25.7674C35.4369 26.6202 36.708 26.7314 37.5606 26.0159C38.4132 25.3003 38.5244 24.0289 37.809 23.1761C37.0936 22.3233 35.8225 22.2121 34.9698 22.9277Z" fill="#2774AE"/>
<path id="circle5575" d="M38.7933 19.8781C37.9061 20.5502 37.7316 21.8144 38.4036 22.7019C39.0755 23.5893 40.3395 23.7638 41.2268 23.0917C42.114 22.4196 42.2885 21.1553 41.6165 20.2679C40.9445 19.3805 39.6805 19.2059 38.7933 19.8781Z" fill="#2774AE"/>
<path id="circle5577" d="M42.75 17.0327C41.8305 17.6599 41.5933 18.9139 42.2204 19.8336C42.8474 20.7534 44.1012 20.9905 45.0208 20.3634C45.9403 19.7362 46.1774 18.4822 45.5504 17.5624C44.9234 16.6427 43.6696 16.4055 42.75 17.0327Z" fill="#2774AE"/>
<path id="circle5579" d="M46.8579 14.3787C45.9082 14.9592 45.6088 16.1999 46.1892 17.1498C46.7696 18.0996 48.01 18.3991 48.9596 17.8186C49.9093 17.2381 50.2087 15.9975 49.6284 15.0476C49.048 14.0977 47.8076 13.7983 46.8579 14.3787Z" fill="#2774AE"/>
<path id="circle5581" d="M51.093 11.9331C50.1156 12.4655 49.7547 13.6897 50.2869 14.6673C50.8192 15.645 52.0431 16.006 53.0206 15.4736C53.998 14.9412 54.3589 13.7171 53.8267 12.7394C53.2944 11.7617 52.0705 11.4008 51.093 11.9331Z" fill="#2774AE"/>
<path id="circle5583" d="M55.4449 9.70185C54.4421 10.1848 54.0206 11.3894 54.5034 12.3924C54.9863 13.3954 56.1906 13.817 57.1934 13.3341C58.1962 12.8512 58.6178 11.6466 58.1349 10.6435C57.6521 9.64052 56.4477 9.21891 55.4449 9.70185Z" fill="#2774AE"/>
<path id="circle5585" d="M59.8869 7.69725C58.8613 8.12972 58.3804 9.31186 58.8128 10.3377C59.2452 11.3634 60.4271 11.8444 61.4527 11.412C62.4782 10.9795 62.9591 9.79734 62.5267 8.77155C62.0944 7.74577 60.9125 7.26478 59.8869 7.69725Z" fill="#2774AE"/>
<path id="circle5587" d="M64.4391 5.91015C63.3932 6.2909 62.854 7.44757 63.2346 8.49366C63.6153 9.53975 64.7718 10.0791 65.8176 9.69837C66.8635 9.31763 67.4028 8.16095 67.0221 7.11486C66.6414 6.06877 65.485 5.52941 64.4391 5.91015Z" fill="#2774AE"/>
<path id="circle5589" d="M69.0748 4.35239C68.0113 4.68047 67.415 5.80879 67.743 6.87257C68.071 7.93636 69.1991 8.53277 70.2627 8.20469C71.3262 7.87661 71.9225 6.74829 71.5945 5.68451C71.2665 4.62073 70.1384 4.02432 69.0748 4.35239Z" fill="#2774AE"/>
<path id="circle5591" d="M73.7659 3.03221C72.6873 3.30698 72.0357 4.40426 72.3104 5.48304C72.5851 6.56182 73.6822 7.21359 74.7607 6.93881C75.8393 6.66403 76.4909 5.56676 76.2162 4.48798C75.9415 3.4092 74.8444 2.75743 73.7659 3.03221Z" fill="#2774AE"/>
<path id="circle5593" d="M78.5335 1.9436C77.4426 2.16421 76.737 3.2276 76.9576 4.31874C77.1782 5.40989 78.2413 6.1156 79.3323 5.89499C80.4232 5.67438 81.1288 4.611 80.9082 3.51985C80.6876 2.4287 79.6245 1.723 78.5335 1.9436Z" fill="#2774AE"/>
<path id="circle5595" d="M83.3495 1.09419C82.2489 1.26008 81.4912 2.28693 81.6571 3.38773C81.8229 4.48852 82.8496 5.24641 83.9501 5.08052C85.0507 4.91463 85.8084 3.88778 85.6426 2.78699C85.4767 1.68619 84.4501 0.928304 83.3495 1.09419Z" fill="#2774AE"/>
<path id="circle5597" d="M88.2019 0.486267C87.0945 0.597026 86.2864 1.58478 86.3972 2.69248C86.5079 3.80018 87.4955 4.60836 88.603 4.4976C89.7104 4.38685 90.5184 3.39909 90.4077 2.29139C90.297 1.18369 89.3094 0.375509 88.2019 0.486267Z" fill="#2774AE"/>
<path id="circle5599" d="M93.0615 0.122047C91.9499 0.177592 91.0938 1.12394 91.1493 2.23578C91.2049 3.34762 92.151 4.20391 93.2626 4.14836C94.3742 4.09282 95.2304 3.14647 95.1748 2.03463C95.1193 0.922795 94.1731 0.0665017 93.0615 0.122047Z" fill="#2774AE"/>
<path id="circle5601" d="M97.9503 -2.81334e-05C96.8373 -2.81334e-05 95.9351 0.902417 95.9351 2.01564C95.9351 3.12887 96.8373 4.03131 97.9503 4.03131C99.0633 4.03131 99.9656 3.12887 99.9656 2.01564C99.9656 0.902417 99.0633 -2.81334e-05 97.9503 -2.81334e-05Z" fill="#2774AE"/>
<path id="circle5603" d="M102.839 0.122072C101.727 0.0665266 100.781 0.922819 100.726 2.03466C100.67 3.14649 101.526 4.09284 102.638 4.14839C103.75 4.20393 104.696 3.34764 104.751 2.2358C104.807 1.12397 103.951 0.177617 102.839 0.122072Z" fill="#2774AE"/>
<path id="circle5605" d="M107.699 0.486238C106.591 0.375479 105.604 1.18366 105.493 2.29136C105.382 3.39906 106.19 4.38682 107.298 4.49757C108.405 4.60833 109.393 3.80015 109.503 2.69245C109.614 1.58475 108.806 0.596996 107.699 0.486238Z" fill="#2774AE"/>
<path id="circle5607" d="M112.551 1.09422C111.451 0.928332 110.424 1.68622 110.258 2.78702C110.092 3.88781 110.85 4.91466 111.95 5.08055C113.051 5.24644 114.078 4.48855 114.244 3.38776C114.409 2.28696 113.652 1.26011 112.551 1.09422Z" fill="#2774AE"/>
<path id="circle5609" d="M117.367 1.9436C116.276 1.72299 115.213 2.4287 114.992 3.51985C114.772 4.61099 115.477 5.67438 116.568 5.89499C117.659 6.1156 118.722 5.40989 118.943 4.31874C119.164 3.22759 118.458 2.16421 117.367 1.9436Z" fill="#2774AE"/>
<path id="circle5611" d="M122.135 3.03221C121.056 2.75743 119.959 3.4092 119.684 4.48798C119.41 5.56676 120.061 6.66404 121.14 6.93881C122.218 7.21359 123.316 6.56182 123.59 5.48304C123.865 4.40426 123.213 3.30699 122.135 3.03221Z" fill="#2774AE"/>
<path id="circle5613" d="M126.826 4.35244C125.762 4.02436 124.634 4.62077 124.306 5.68455C123.978 6.74834 124.574 7.87666 125.638 8.20473C126.702 8.53281 127.83 7.9364 128.158 6.87262C128.486 5.80884 127.889 4.68051 126.826 4.35244Z" fill="#2774AE"/>
<path id="circle5615" d="M131.462 5.91014C130.416 5.52939 129.259 6.06876 128.879 7.11485C128.498 8.16094 129.037 9.31761 130.083 9.69836C131.129 10.0791 132.285 9.53974 132.666 8.49365C133.047 7.44756 132.507 6.29088 131.462 5.91014Z" fill="#2774AE"/>
<path id="circle5617" d="M136.014 7.69725C134.988 7.26479 133.806 7.74577 133.374 8.77156C132.941 9.79734 133.422 10.9795 134.448 11.412C135.474 11.8444 136.655 11.3634 137.088 10.3377C137.52 9.31187 137.039 8.12972 136.014 7.69725Z" fill="#2774AE"/>
<path id="circle5619" d="M140.456 9.70188C139.453 9.21895 138.249 9.64056 137.766 10.6436C137.283 11.6466 137.704 12.8512 138.707 13.3341C139.71 13.8171 140.914 13.3955 141.397 12.3924C141.88 11.3894 141.459 10.1848 140.456 9.70188Z" fill="#2774AE"/>
<path id="circle5621" d="M144.808 11.9331C143.83 11.4007 142.606 11.7617 142.074 12.7394C141.542 13.717 141.903 14.9412 142.88 15.4735C143.858 16.0059 145.081 15.6449 145.614 14.6673C146.146 13.6896 145.785 12.4655 144.808 11.9331Z" fill="#2774AE"/>
<path id="circle5623" d="M149.043 14.3788C148.093 13.7983 146.853 14.0977 146.272 15.0476C145.692 15.9975 145.991 17.2381 146.941 17.8186C147.891 18.3991 149.131 18.0997 149.711 17.1498C150.292 16.1999 149.992 14.9593 149.043 14.3788Z" fill="#2774AE"/>
<path id="circle5625" d="M153.151 17.0328C152.231 16.4056 150.977 16.6428 150.35 17.5625C149.723 18.4822 149.96 19.7363 150.88 20.3634C151.799 20.9906 153.053 20.7534 153.68 19.8337C154.307 18.9139 154.07 17.6599 153.151 17.0328Z" fill="#2774AE"/>
<path id="circle5627" d="M157.107 19.8781C156.22 19.206 154.956 19.3805 154.284 20.2679C153.612 21.1553 153.787 22.4196 154.674 23.0917C155.561 23.7639 156.825 23.5893 157.497 22.7019C158.169 21.8145 157.995 20.5502 157.107 19.8781Z" fill="#2774AE"/>
<path id="circle5629" d="M160.931 22.9276C160.078 22.2121 158.807 22.3233 158.092 23.1761C157.376 24.0289 157.487 25.3002 158.34 26.0158C159.193 26.7314 160.464 26.6201 161.179 25.7674C161.895 24.9146 161.783 23.6432 160.931 22.9276Z" fill="#2774AE"/>
<path id="circle5631" d="M164.597 26.1642C163.782 25.407 162.506 25.4547 161.749 26.2707C160.992 27.0867 161.04 28.3621 161.856 29.1193C162.672 29.8765 163.947 29.8288 164.704 29.0128C165.461 28.1968 165.413 26.9215 164.597 26.1642Z" fill="#2774AE"/>
<path id="circle5633" d="M168.086 29.5675C167.309 28.7707 166.033 28.7549 165.236 29.5322C164.439 30.3096 164.424 31.5857 165.201 32.3826C165.978 33.1795 167.254 33.1953 168.051 32.4179C168.847 31.6406 168.863 30.3644 168.086 29.5675Z" fill="#2774AE"/>
<path id="circle5635" d="M171.412 33.153C170.676 32.3183 169.402 32.2388 168.568 32.9755C167.733 33.7121 167.654 34.9859 168.39 35.8205C169.127 36.6552 170.4 36.7346 171.235 35.998C172.069 35.2614 172.149 33.9876 171.412 33.153Z" fill="#2774AE"/>
<path id="circle5637" d="M174.556 36.8999C173.862 36.0295 172.594 35.8866 171.724 36.5807C170.854 37.2747 170.711 38.5429 171.405 39.4133C172.099 40.2837 173.367 40.4266 174.237 39.7325C175.107 39.0385 175.25 37.7703 174.556 36.8999Z" fill="#2774AE"/>
<path id="circle5639" d="M177.508 40.799C176.859 39.8951 175.6 39.6891 174.696 40.3389C173.792 40.9886 173.586 42.2482 174.236 43.1521C174.885 44.056 176.145 44.262 177.048 43.6122C177.952 42.9625 178.158 41.703 177.508 40.799Z" fill="#2774AE"/>
<path id="circle5641" d="M180.254 44.8264C179.65 43.8913 178.402 43.6229 177.467 44.2269C176.532 44.8309 176.264 46.0786 176.868 47.0137C177.472 47.9489 178.719 48.2173 179.654 47.6132C180.589 47.0092 180.857 45.7615 180.254 44.8264Z" fill="#2774AE"/>
<path id="circle5643" d="M182.804 49C182.247 48.0359 181.015 47.7056 180.051 48.2622C179.087 48.8188 178.757 50.0516 179.313 51.0157C179.87 51.9798 181.102 52.3101 182.066 51.7535C183.03 51.1968 183.36 49.9641 182.804 49Z" fill="#2774AE"/>
<path id="circle5645" d="M185.142 53.2957C184.635 52.3051 183.42 51.9136 182.43 52.4215C181.439 52.9293 181.048 54.144 181.556 55.1347C182.063 56.1253 183.278 56.5167 184.268 56.0089C185.259 55.5011 185.65 54.2864 185.142 53.2957Z" fill="#2774AE"/>
<path id="circle5647" d="M187.257 57.6872C186.799 56.6725 185.605 56.2212 184.591 56.6791C183.576 57.137 183.125 58.3308 183.583 59.3455C184.041 60.3602 185.234 60.8115 186.249 60.3536C187.263 59.8957 187.715 58.7019 187.257 57.6872Z" fill="#2774AE"/>
<path id="circle5649" d="M189.157 62.1943C188.75 61.158 187.58 60.6477 186.544 61.0544C185.508 61.4612 184.998 62.6309 185.405 63.6672C185.811 64.7035 186.981 65.2138 188.017 64.8071C189.053 64.4003 189.563 63.2306 189.157 62.1943Z" fill="#2774AE"/>
<path id="circle5651" d="M190.829 66.7906C190.475 65.7353 189.332 65.1673 188.277 65.5218C187.222 65.8763 186.654 67.0192 187.008 68.0744C187.363 69.1297 188.506 69.6978 189.561 69.3433C190.616 68.9887 191.184 67.8459 190.829 66.7906Z" fill="#2774AE"/>
<path id="circle5653" d="M192.27 71.4647C191.969 70.3931 190.856 69.7687 189.785 70.0701C188.713 70.3715 188.089 71.4846 188.39 72.5563C188.692 73.6279 189.805 74.2523 190.876 73.9509C191.948 73.6494 192.572 72.5363 192.27 71.4647Z" fill="#2774AE"/>
<path id="circle5655" d="M193.473 76.1882C193.225 75.1029 192.145 74.4239 191.06 74.6717C189.975 74.9195 189.296 76.0001 189.543 77.0854C189.791 78.1707 190.872 78.8497 191.957 78.6019C193.042 78.3541 193.721 77.2735 193.473 76.1882Z" fill="#2774AE"/>
<path id="circle5657" d="M194.442 80.9825C194.249 79.8861 193.203 79.1541 192.107 79.3474C191.011 79.5407 190.279 80.5862 190.473 81.6825C190.666 82.7788 191.711 83.5108 192.807 83.3175C193.903 83.1242 194.635 82.0788 194.442 80.9825Z" fill="#2774AE"/>
<path id="circle5659" d="M195.171 85.8192C195.032 84.7146 194.025 83.9313 192.921 84.0697C191.816 84.2081 191.033 85.2157 191.171 86.3203C191.31 87.4249 192.317 88.2081 193.422 88.0698C194.526 87.9314 195.309 86.9238 195.171 85.8192Z" fill="#2774AE"/>
<path id="circle5661" d="M195.656 90.6691C195.573 89.559 194.606 88.7266 193.496 88.8099C192.386 88.8932 191.554 89.8606 191.637 90.9707C191.72 92.0808 192.687 92.9132 193.797 92.8299C194.907 92.7467 195.739 91.7792 195.656 90.6691Z" fill="#2774AE"/>
<path id="circle5663" d="M195.9 95.5543C195.872 94.4415 194.948 93.5618 193.835 93.5896C192.722 93.6174 191.843 94.5421 191.871 95.6549C191.899 96.7678 192.823 97.6475 193.936 97.6197C195.048 97.5919 195.928 96.6672 195.9 95.5543Z" fill="#2774AE"/>
<path id="circle5665" d="M195.9 100.446C195.928 99.3328 195.048 98.4081 193.936 98.3803C192.823 98.3525 191.899 99.2322 191.871 100.345C191.843 101.458 192.722 102.383 193.835 102.41C194.948 102.438 195.872 101.559 195.9 100.446Z" fill="#2774AE"/>
<path id="circle5667" d="M195.656 105.331C195.739 104.221 194.907 103.253 193.797 103.17C192.687 103.087 191.72 103.919 191.637 105.029C191.553 106.139 192.386 107.107 193.496 107.19C194.605 107.273 195.573 106.441 195.656 105.331Z" fill="#2774AE"/>
<path id="circle5669" d="M195.171 110.181C195.309 109.076 194.526 108.069 193.422 107.93C192.317 107.792 191.31 108.575 191.171 109.68C191.033 110.784 191.816 111.792 192.921 111.93C194.025 112.069 195.032 111.285 195.171 110.181Z" fill="#2774AE"/>
<path id="circle5671" d="M194.442 115.018C194.635 113.921 193.903 112.876 192.807 112.682C191.711 112.489 190.666 113.221 190.473 114.318C190.279 115.414 191.011 116.459 192.107 116.653C193.203 116.846 194.249 116.114 194.442 115.018Z" fill="#2774AE"/>
<path id="circle5673" d="M193.473 119.812C193.721 118.727 193.042 117.646 191.957 117.398C190.872 117.15 189.791 117.829 189.543 118.915C189.296 120 189.974 121.081 191.06 121.328C192.145 121.576 193.225 120.897 193.473 119.812Z" fill="#2774AE"/>
<path id="circle5675" d="M192.27 124.535C192.572 123.464 191.948 122.351 190.876 122.049C189.805 121.748 188.692 122.372 188.39 123.444C188.089 124.515 188.713 125.629 189.785 125.93C190.856 126.231 191.969 125.607 192.27 124.535Z" fill="#2774AE"/>
<path id="circle5677" d="M190.829 129.209C191.184 128.154 190.616 127.011 189.561 126.657C188.506 126.302 187.363 126.87 187.009 127.926C186.654 128.981 187.222 130.124 188.277 130.478C189.332 130.833 190.475 130.265 190.829 129.209Z" fill="#2774AE"/>
<path id="circle5679" d="M189.157 133.806C189.563 132.769 189.053 131.6 188.017 131.193C186.981 130.786 185.811 131.297 185.405 132.333C184.998 133.369 185.508 134.539 186.544 134.946C187.58 135.352 188.75 134.842 189.157 133.806Z" fill="#2774AE"/>
<path id="circle5681" d="M187.257 138.313C187.715 137.298 187.263 136.104 186.249 135.646C185.234 135.189 184.041 135.64 183.583 136.655C183.125 137.669 183.576 138.863 184.591 139.321C185.605 139.779 186.799 139.328 187.257 138.313Z" fill="#2774AE"/>
<path id="circle5683" d="M185.142 142.704C185.65 141.714 185.259 140.499 184.268 139.991C183.278 139.483 182.063 139.875 181.556 140.865C181.048 141.856 181.439 143.071 182.43 143.579C183.42 144.086 184.635 143.695 185.142 142.704Z" fill="#2774AE"/>
<path id="circle5685" d="M182.804 147C183.36 146.036 183.03 144.803 182.066 144.247C181.102 143.69 179.87 144.02 179.313 144.984C178.757 145.948 179.087 147.181 180.051 147.738C181.015 148.294 182.247 147.964 182.804 147Z" fill="#2774AE"/>
<path id="circle5687" d="M180.254 151.174C180.857 150.239 180.589 148.991 179.654 148.387C178.719 147.783 177.472 148.051 176.868 148.986C176.264 149.921 176.532 151.169 177.467 151.773C178.402 152.377 179.65 152.109 180.254 151.174Z" fill="#2774AE"/>
<path id="circle5689" d="M177.508 155.201C178.158 154.297 177.952 153.038 177.048 152.388C176.145 151.738 174.885 151.944 174.236 152.848C173.586 153.752 173.792 155.011 174.696 155.661C175.6 156.311 176.859 156.105 177.508 155.201Z" fill="#2774AE"/>
<path id="circle5691" d="M174.556 159.1C175.25 158.23 175.107 156.961 174.237 156.267C173.366 155.573 172.099 155.716 171.405 156.587C170.711 157.457 170.854 158.725 171.724 159.419C172.594 160.113 173.862 159.97 174.556 159.1Z" fill="#2774AE"/>
<path id="circle5693" d="M171.412 162.847C172.149 162.012 172.069 160.739 171.235 160.002C170.401 159.265 169.127 159.345 168.391 160.18C167.654 161.014 167.733 162.288 168.568 163.025C169.402 163.761 170.676 163.682 171.412 162.847Z" fill="#2774AE"/>
<path id="circle5695" d="M168.086 166.432C168.863 165.636 168.847 164.359 168.051 163.582C167.254 162.805 165.978 162.821 165.201 163.617C164.424 164.414 164.439 165.69 165.236 166.468C166.033 167.245 167.309 167.229 168.086 166.432Z" fill="#2774AE"/>
<path id="circle5697" d="M164.597 169.836C165.413 169.079 165.461 167.803 164.704 166.987C163.947 166.171 162.672 166.124 161.856 166.881C161.04 167.638 160.992 168.913 161.749 169.729C162.506 170.545 163.782 170.593 164.597 169.836Z" fill="#2774AE"/>
<path id="circle5699" d="M160.931 173.072C161.783 172.357 161.895 171.085 161.179 170.233C160.464 169.38 159.193 169.269 158.34 169.984C157.487 170.7 157.376 171.971 158.092 172.824C158.807 173.677 160.078 173.788 160.931 173.072Z" fill="#2774AE"/>
<path id="circle5701" d="M157.107 176.122C157.995 175.45 158.169 174.186 157.497 173.298C156.825 172.411 155.561 172.236 154.674 172.908C153.787 173.58 153.612 174.845 154.284 175.732C154.956 176.62 156.22 176.794 157.107 176.122Z" fill="#2774AE"/>
<path id="circle5703" d="M153.151 178.967C154.07 178.34 154.307 177.086 153.68 176.166C153.053 175.247 151.799 175.009 150.88 175.637C149.96 176.264 149.723 177.518 150.35 178.437C150.977 179.357 152.231 179.594 153.151 178.967Z" fill="#2774AE"/>
<path id="circle5705" d="M149.043 181.621C149.992 181.041 150.292 179.8 149.711 178.85C149.131 177.9 147.891 177.601 146.941 178.181C145.991 178.762 145.692 180.002 146.272 180.952C146.853 181.902 148.093 182.202 149.043 181.621Z" fill="#2774AE"/>
<path id="circle5707" d="M144.808 184.067C145.785 183.534 146.146 182.31 145.614 181.333C145.081 180.355 143.858 179.994 142.88 180.526C141.903 181.059 141.542 182.283 142.074 183.261C142.606 184.238 143.83 184.599 144.808 184.067Z" fill="#2774AE"/>
<path id="circle5709" d="M140.456 186.298C141.459 185.815 141.88 184.611 141.397 183.608C140.914 182.605 139.71 182.183 138.707 182.666C137.704 183.149 137.283 184.353 137.766 185.356C138.249 186.359 139.453 186.781 140.456 186.298Z" fill="#2774AE"/>
<path id="circle5711" d="M136.014 188.303C137.039 187.87 137.52 186.688 137.088 185.662C136.655 184.637 135.474 184.156 134.448 184.588C133.422 185.021 132.942 186.203 133.374 187.228C133.806 188.254 134.988 188.735 136.014 188.303Z" fill="#2774AE"/>
<path id="circle5713" d="M131.462 190.09C132.507 189.709 133.047 188.552 132.666 187.506C132.285 186.46 131.129 185.921 130.083 186.302C129.037 186.682 128.498 187.839 128.879 188.885C129.259 189.931 130.416 190.471 131.462 190.09Z" fill="#2774AE"/>
<path id="circle5715" d="M126.826 191.648C127.889 191.319 128.486 190.191 128.158 189.127C127.83 188.064 126.702 187.467 125.638 187.795C124.574 188.123 123.978 189.252 124.306 190.315C124.634 191.379 125.762 191.976 126.826 191.648Z" fill="#2774AE"/>
<path id="circle5717" d="M122.135 192.968C123.213 192.693 123.865 191.596 123.59 190.517C123.315 189.438 122.218 188.786 121.14 189.061C120.061 189.336 119.41 190.433 119.684 191.512C119.959 192.591 121.056 193.243 122.135 192.968Z" fill="#2774AE"/>
<path id="circle5719" d="M117.367 194.056C118.458 193.836 119.164 192.772 118.943 191.681C118.722 190.59 117.659 189.884 116.568 190.105C115.477 190.326 114.772 191.389 114.992 192.48C115.213 193.571 116.276 194.277 117.367 194.056Z" fill="#2774AE"/>
<path id="circle5721" d="M112.551 194.906C113.652 194.74 114.409 193.713 114.244 192.612C114.078 191.511 113.051 190.754 111.95 190.919C110.85 191.085 110.092 192.112 110.258 193.213C110.424 194.314 111.451 195.072 112.551 194.906Z" fill="#2774AE"/>
<path id="circle5723" d="M107.699 195.514C108.806 195.403 109.614 194.415 109.503 193.308C109.393 192.2 108.405 191.392 107.298 191.502C106.19 191.613 105.382 192.601 105.493 193.709C105.604 194.816 106.591 195.624 107.699 195.514Z" fill="#2774AE"/>
<path id="circle5725" d="M102.839 195.878C103.951 195.822 104.807 194.876 104.751 193.764C104.696 192.652 103.75 191.796 102.638 191.852C101.526 191.907 100.67 192.854 100.726 193.965C100.781 195.077 101.727 195.933 102.839 195.878Z" fill="#2774AE"/>
<g id="path5727">
<path d="M83.5556 37.5298L67.2415 38.0098Z" fill="black"/>
<path d="M83.5556 37.5298L67.2415 38.0098" stroke="#2774AE"/>
</g>
<g id="path5729">
<path d="M85.4749 39.4496L49.9678 50.0079Z" fill="black"/>
<path d="M85.4749 39.4496L49.9678 50.0079" stroke="#2774AE"/>
</g>
<g id="path5731">
<path d="M87.3942 41.3693L36.5327 75.9236Z" fill="black"/>
<path d="M87.3942 41.3693L36.5327 75.9236" stroke="#2774AE"/>
</g>
<g id="path5733">
<path d="M88.3538 44.2488L30.7748 96.5602Z" fill="black"/>
<path d="M88.3538 44.2488L30.7748 96.5602" stroke="#2774AE"/>
</g>
<g id="path5735">
<path d="M88.3538 48.5681L33.6538 110.478Z" fill="black"/>
<path d="M88.3538 48.5681L33.6538 110.478" stroke="#2774AE"/>
</g>
<g id="path5737">
<path d="M90.2731 50.9677L37.9722 126.795Z" fill="black"/>
<path d="M90.2731 50.9677L37.9722 126.795" stroke="#2774AE"/>
</g>
<g id="path5739">
<path d="M91.2328 54.8071L53.8064 150.791Z" fill="black"/>
<path d="M91.2328 54.8071L53.8064 150.791" stroke="#2774AE"/>
</g>
<g id="path5741">
<path d="M94.5915 50.9677L64.3626 157.51Z" fill="black"/>
<path d="M94.5915 50.9677L64.3626 157.51" stroke="#2774AE"/>
</g>
<g id="path5743">
<path d="M96.9907 49.5279L75.8784 155.591Z" fill="black"/>
<path d="M96.9907 49.5279L75.8784 155.591" stroke="#2774AE"/>
</g>
<g id="path5745">
<path d="M89.3144 150.791L87.3942 165.669Z" fill="black"/>
<path d="M89.3144 150.791L87.3942 165.669" stroke="#2774AE"/>
</g>
<g id="path5747">
<path d="M110.906 39.4496L128.659 40.8894Z" fill="black"/>
<path d="M110.906 39.4496L128.659 40.8894" stroke="#2774AE"/>
</g>
<g id="path5749">
<path d="M109.466 41.3693L149.771 57.6866Z" fill="black"/>
<path d="M109.466 41.3693L149.771 57.6866" stroke="#2774AE"/>
</g>
<g id="path5751">
<path d="M109.466 44.2488L161.287 75.9236Z" fill="black"/>
<path d="M109.466 44.2488L161.287 75.9236" stroke="#2774AE"/>
</g>
<g id="path5753">
<path d="M109.466 47.1283L164.166 92.2409Z" fill="black"/>
<path d="M109.466 47.1283L164.166 92.2409" stroke="#2774AE"/>
</g>
<g id="path5755">
<path d="M107.547 50.0078L163.206 111.438Z" fill="black"/>
<path d="M107.547 50.0078L163.206 111.438" stroke="#2774AE"/>
</g>
<g id="path5757">
<path d="M111.385 59.6063L160.328 123.916Z" fill="black"/>
<path d="M111.385 59.6063L160.328 123.916" stroke="#2774AE"/>
</g>
<g id="path5759">
<path d="M120.982 78.8032L153.61 135.434Z" fill="black"/>
<path d="M120.982 78.8032L153.61 135.434" stroke="#2774AE"/>
</g>
<g id="path5761">
<path d="M103.708 50.0078L143.054 148.872Z" fill="black"/>
<path d="M103.708 50.0078L143.054 148.872" stroke="#2774AE"/>
</g>
<g id="path5763">
<path d="M99.3898 49.5279L128.179 154.151Z" fill="black"/>
<path d="M99.3898 49.5279L128.179 154.151" stroke="#2774AE"/>
</g>
<g id="path5765">
<path d="M112.825 150.791L113.305 162.789Z" fill="black"/>
<path d="M112.825 150.791L113.305 162.789" stroke="#2774AE"/>
</g>
<g id="path5767">
<path d="M99.8696 150.791L100.35 166.149Z" fill="black"/>
<path d="M99.8696 150.791L100.35 166.149" stroke="#2774AE"/>
</g>
<path id="path5769" d="M48.0485 124.876C45.1696 127.755 42.7704 128.715 42.7704 133.514C42.7704 138.313 48.0485 138.313 49.0082 138.313C49.9678 138.313 53.8064 137.354 53.8064 142.633C53.8064 147.912 61.4836 149.352 61.4836 154.631C61.9634 157.51 62.4433 149.832 60.524 147.912C61.4836 146.952 61.0038 146.952 61.9634 145.032C62.9231 145.992 69.6406 151.751 70.6003 151.751C73.4792 151.751 72.0398 145.512 68.681 148.872C67.2415 147.432 67.2415 144.552 65.3222 144.552C63.4029 144.552 63.4029 142.633 63.4029 140.713C63.4029 138.793 63.4029 132.554 49.9678 132.554C47.0889 132.554 47.0889 132.554 47.0889 130.635C47.0889 128.715 48.0485 126.795 48.0485 125.835V124.876Z" fill="white" stroke="#2774AE"/>
<path id="path5771" d="M52.367 54.3271H92.1924C95.0714 54.3271 96.9907 58.1665 97.9503 59.1264C98.91 58.1665 100.829 54.3271 103.708 54.3271H143.534V139.753H101.789C101.789 141.673 94.1117 141.673 94.1117 139.753H52.367V54.3271Z" fill="white" stroke="#2774AE"/>
<path id="path5773" d="M63.8828 54.3271V133.034H92.1924C95.0714 133.034 96.9907 136.874 97.9503 137.834C98.91 136.874 100.829 133.034 103.708 133.034H132.018V54.3271" stroke="#2774AE"/>
<path id="path5775" d="M61.0038 54.3271V134.714H92.1924C95.0713 134.714 96.9906 138.553 97.9503 139.513C98.9099 138.553 100.829 134.714 103.708 134.714H134.897V54.3271" stroke="#2774AE"/>
<path id="path5777" d="M58.1248 54.3271V136.394H92.1924C95.0714 136.394 96.9906 138.793 97.9503 139.753C98.9099 138.793 100.829 136.394 103.708 136.394H137.776V54.3271" stroke="#2774AE"/>
<path id="path5779" d="M55.2459 54.3271V138.073H92.1924C95.0714 138.073 96.9907 138.793 97.9503 139.753C98.91 138.793 100.829 138.073 103.708 138.073H140.655V54.3271" stroke="#2774AE"/>
<g id="path5781">
<path d="M97.9503 59.1263V137.833Z" fill="black"/>
<path d="M97.9503 59.1263V137.833" stroke="#2774AE"/>
</g>
<path id="path5783" d="M94.1117 139.753C94.1117 133.994 101.789 133.994 101.789 139.753C101.789 141.673 94.1117 141.673 94.1117 139.753Z" fill="white" stroke="#2774AE"/>
<path id="path5785" d="M103.708 58.3105H106.587H103.708ZM109.466 58.3105H111.385H109.466ZM112.345 58.3105H115.224H112.345ZM118.103 58.3105H124.82H118.103ZM125.78 58.3105H129.619H125.78ZM103.708 61.382H104.668H103.708ZM105.628 61.382H118.103H105.628ZM120.982 61.382H129.619H120.982ZM103.708 64.4535H107.547H103.708ZM108.506 64.4535H111.385H108.506ZM114.264 64.4535H120.982H114.264ZM121.942 64.4535H125.78H121.942ZM126.74 64.4535H129.619H126.74ZM103.708 67.525H129.619H103.708ZM103.708 70.5965H104.668H103.708ZM105.628 70.5965H114.264H105.628ZM115.224 70.5965H120.022H115.224ZM120.982 70.5965H129.619H120.982ZM103.708 73.668H108.506H103.708ZM109.466 73.668H116.184H109.466ZM117.143 73.668H123.861H117.143ZM126.74 73.668H129.619H126.74ZM103.708 76.7395H104.668H103.708ZM107.547 76.7395H112.345H107.547ZM113.305 76.7395H116.184H113.305ZM119.063 76.7395H125.78H119.063ZM126.74 76.7395H129.619H126.74ZM103.708 79.811H107.547H103.708ZM110.426 79.811H116.184H110.426ZM117.143 79.811H120.982H117.143ZM123.861 79.811H129.619H123.861ZM103.708 82.8825H104.668H103.708ZM105.628 82.8825H114.264H105.628ZM115.224 82.8825H120.022H115.224ZM120.982 82.8825H129.619H120.982ZM103.708 85.954H105.628H103.708ZM106.587 85.954H109.466H106.587ZM112.345 85.954H113.305H112.345ZM114.264 85.954H117.143H114.264ZM120.022 85.954H120.982H120.022ZM121.942 85.954H124.82H121.942ZM127.699 85.954H129.619H127.699ZM103.708 89.0255H105.628H103.708ZM106.587 89.0255H111.385H106.587ZM112.345 89.0255H115.224H112.345ZM118.103 89.0255H123.861H118.103ZM124.82 89.0255H129.619H124.82ZM103.708 92.097H113.305H103.708ZM114.264 92.097H129.619H114.264ZM103.708 95.1685H105.628H103.708ZM106.587 95.1685H118.103H106.587ZM120.982 95.1685H129.619H120.982ZM103.708 98.24H107.547H103.708ZM108.506 98.24H113.305H108.506ZM116.184 98.24H122.901H116.184ZM123.861 98.24H129.619H123.861ZM103.708 101.311H129.619H103.708ZM103.708 104.383H112.345H103.708ZM115.224 104.383H129.619H115.224ZM103.708 107.454H106.587H103.708ZM107.547 107.454H109.466H107.547ZM110.426 107.454H116.184H110.426ZM117.143 107.454H120.982H117.143ZM121.942 107.454H129.619H121.942ZM103.708 110.526H113.305H103.708ZM114.264 110.526H129.619H114.264ZM103.708 113.597H129.619H103.708ZM103.708 116.669H112.345H103.708ZM115.224 116.669H129.619H115.224ZM103.708 119.74H105.148H103.708ZM106.107 119.74H124.533H106.107ZM127.412 119.74H127.987H127.412ZM128.947 119.74H129.619H128.947ZM103.708 122.812H104.188H103.708ZM105.148 122.812H129.619H105.148ZM103.708 125.883H104.86H103.708ZM105.819 125.883H129.619H105.819ZM103.708 128.955H129.619H103.708ZM66.2819 58.3105H69.1608H66.2819ZM72.0398 58.3105H75.8784H72.0398ZM76.838 58.3105H81.6363H76.838ZM82.5959 58.3105H87.3942H82.5959ZM88.3538 58.3105H92.1924H88.3538ZM66.2819 61.382H83.5556H66.2819ZM84.5152 61.382H92.1924H84.5152ZM66.2819 64.4535H80.6766H66.2819ZM81.6363 64.4535H86.4345H81.6363ZM89.3135 64.4535H92.1924H89.3135ZM66.2819 67.525H83.5556H66.2819ZM86.4345 67.525H92.1924H86.4345ZM66.2819 70.5965H92.1924H66.2819ZM66.1859 73.668H69.0649H66.1859ZM71.9438 73.668H75.7824H71.9438ZM76.7421 73.668H80.5807H76.7421ZM83.4596 73.668H90.1771H83.4596ZM91.1368 73.668H92.0964H91.1368ZM66.1859 76.7395H70.9842H66.1859ZM71.9438 76.7395H86.3385H71.9438ZM89.2175 76.7395H92.0964H89.2175ZM66.1859 79.811H70.0245H66.1859ZM70.9842 79.811H73.8631H70.9842ZM76.7421 79.811H83.4596H76.7421ZM84.4193 79.811H89.2175H84.4193ZM90.1771 79.811H92.0964H90.1771ZM66.1859 82.8825H68.1052H66.1859ZM69.0649 82.8825H71.9438H69.0649ZM74.8228 82.8825H76.2622H74.8228ZM77.2219 82.8825H80.1008H77.2219ZM82.9798 82.8825H83.9394H82.9798ZM84.8991 82.8825H88.7377H84.8991ZM91.6166 82.8825H92.0964H91.6166ZM66.1859 85.954H92.0964H66.1859ZM66.1859 89.0255H71.9438H66.1859ZM74.8228 89.0255H82.5H74.8228ZM85.3789 89.0255H90.1771H85.3789ZM91.1368 89.0255H92.0964H91.1368ZM66.1859 92.097H68.1052H66.1859ZM70.9842 92.097H77.7017H70.9842ZM80.5807 92.097H86.3385H80.5807ZM89.2175 92.097H92.0964H89.2175ZM66.1859 95.1685H92.0964H66.1859ZM66.1859 98.24H70.9842H66.1859ZM71.9438 98.24H80.5807H71.9438ZM81.5403 98.24H89.2175H81.5403ZM90.1771 98.24H92.0964H90.1771ZM66.1859 101.311H76.7421H66.1859ZM79.621 101.311H92.0964H79.621ZM66.1859 104.383H75.7824H66.1859ZM76.7421 104.383H84.4193H76.7421ZM87.2982 104.383H92.0964H87.2982ZM66.1859 107.454H70.9842H66.1859ZM73.8631 107.454H90.1771H73.8631ZM91.1368 107.454H92.0964H91.1368ZM66.1859 110.526H68.1052H66.1859ZM69.0649 110.526H73.8631H69.0649ZM74.8228 110.526H77.7017H74.8228ZM80.5807 110.526H88.2578H80.5807ZM89.2175 110.526H92.0964H89.2175ZM66.1859 113.597H69.0649H66.1859ZM71.9438 113.597H79.621H71.9438ZM82.5 113.597H87.2982H82.5ZM90.1771 113.597H92.0964H90.1771ZM66.1859 116.669H72.9035H66.1859ZM73.8631 116.669H78.6614H73.8631ZM81.5403 116.669H88.2578H81.5403ZM89.2175 116.669H92.0964H89.2175ZM66.1859 119.74H74.8228H66.1859ZM77.7017 119.74H82.5H77.7017ZM83.4596 119.74H90.1771H83.4596ZM91.1368 119.74H92.0964H91.1368ZM66.1859 122.812H75.3026H66.1859ZM76.2622 122.812H77.2219H76.2622ZM80.1008 122.812H81.0605H80.1008ZM82.0201 122.812H82.9798H82.0201ZM85.8587 122.812H86.8184H85.8587ZM87.778 122.812H88.7377H87.778ZM91.6166 122.812H92.0964H91.6166ZM66.1859 125.883H92.0964H66.1859ZM66.1859 128.955H92.0964H66.1859ZM91.6166 58.3105H92.0964C94.9754 58.3105 96.8947 62.1499 97.8543 63.1097C98.814 62.1499 100.733 58.3105 103.612 58.3105H104.092H91.6166ZM91.6166 61.382H92.0964C94.9754 61.382 96.8947 65.2214 97.8543 66.1812C98.814 65.2214 100.733 61.382 103.612 61.382H104.092H91.6166ZM91.6166 64.4535H92.0964C94.9754 64.4535 96.8947 68.2929 97.8543 69.2527C98.814 68.2929 100.733 64.4535 103.612 64.4535H104.092H91.6166ZM91.6166 67.525H92.0964C94.9754 67.525 96.8947 71.3644 97.8543 72.3242C98.814 71.3644 100.733 67.525 103.612 67.525H104.092H91.6166ZM91.6166 70.5965H92.0964C94.9754 70.5965 96.8947 74.4359 97.8543 75.3957C98.814 74.4359 100.733 70.5965 103.612 70.5965H104.092H91.6166ZM91.6166 73.668H92.0964C94.9754 73.668 96.8947 77.5073 97.8543 78.4672C98.814 77.5073 100.733 73.668 103.612 73.668H104.092H91.6166ZM91.6166 76.7395H92.0964C94.9754 76.7395 96.8947 80.5788 97.8543 81.5387C98.814 80.5788 100.733 76.7395 103.612 76.7395H104.092H91.6166ZM91.6166 79.811H92.0964C94.9754 79.811 96.8947 83.6503 97.8543 84.6102C98.814 83.6503 100.733 79.811 103.612 79.811H104.092H91.6166ZM91.6166 82.8825H92.0964C94.9754 82.8825 96.8947 86.7218 97.8543 87.6817C98.814 86.7218 100.733 82.8825 103.612 82.8825H104.092H91.6166ZM91.6166 85.954H92.0964C94.9754 85.954 96.8947 89.7933 97.8543 90.7532C98.814 89.7933 100.733 85.954 103.612 85.954H104.092H91.6166ZM91.6166 89.0255H92.0964C94.9754 89.0255 96.8947 92.8648 97.8543 93.8247C98.814 92.8648 100.733 89.0255 103.612 89.0255H104.092H91.6166ZM91.6166 92.097H92.0964C94.9754 92.097 96.8947 95.9363 97.8543 96.8962C98.814 95.9363 100.733 92.097 103.612 92.097H104.092H91.6166ZM91.6166 95.1685H92.0964C94.9754 95.1685 96.8947 99.0078 97.8543 99.9677C98.814 99.0078 100.733 95.1685 103.612 95.1685H104.092H91.6166ZM91.6166 98.24H92.0964C94.9754 98.24 96.8947 102.079 97.8543 103.039C98.814 102.079 100.733 98.24 103.612 98.24H104.092H91.6166ZM91.6166 101.311H92.0964C94.9754 101.311 96.8947 105.151 97.8543 106.111C98.814 105.151 100.733 101.311 103.612 101.311H104.092H91.6166ZM91.6166 104.383H92.0964C94.9754 104.383 96.8947 108.222 97.8543 109.182C98.814 108.222 100.733 104.383 103.612 104.383H104.092H91.6166ZM91.6166 107.454H92.0964C94.9754 107.454 96.8947 111.294 97.8543 112.254C98.814 111.294 100.733 107.454 103.612 107.454H104.092H91.6166ZM91.6166 110.526H92.0964C94.9754 110.526 96.8947 114.365 97.8543 115.325C98.814 114.365 100.733 110.526 103.612 110.526H104.092H91.6166ZM91.6166 113.597H92.0964C94.9754 113.597 96.8947 117.437 97.8543 118.397C98.814 117.437 100.733 113.597 103.612 113.597H104.092H91.6166ZM91.6166 116.669H92.0964C94.9754 116.669 96.8947 120.508 97.8543 121.468C98.814 120.508 100.733 116.669 103.612 116.669H104.092H91.6166ZM91.6166 119.74H92.0964C94.9754 119.74 96.8947 123.58 97.8543 124.54C98.814 123.58 100.733 119.74 103.612 119.74H104.092H91.6166ZM91.6166 122.812H92.0964C94.9754 122.812 96.8947 126.651 97.8543 127.611C98.814 126.651 100.733 122.812 103.612 122.812H104.092H91.6166ZM91.6166 125.883H92.0964C94.9754 125.883 96.8947 129.723 97.8543 130.683C98.814 129.723 100.733 125.883 103.612 125.883H104.092H91.6166ZM91.6166 128.955H92.0964C94.9754 128.955 96.8947 132.794 97.8543 133.754C98.814 132.794 100.733 128.955 103.612 128.955H104.092H91.6166Z" stroke="#2774AE"/>
<g id="g5787">
<path id="path5789" d="M66.7617 61.382V70.5965H75.9744V61.382H66.7617Z" fill="white" stroke="white" stroke-width="4"/>
<path id="path5791" d="M69.7846 66.3731H72.9515M66.7617 61.382V70.5965H75.9744V61.382H66.7617ZM68.2012 69.5406L71.368 63.2057L74.5349 69.5406H68.2012Z" stroke="#2774AE"/>
</g>
<path id="path5793" d="M118.103 141.193C111.385 136.394 112.345 129.675 119.063 128.715L112.345 126.795C97.9503 132.554 103.708 140.713 116.184 141.193H118.103Z" fill="white" stroke="#2774AE"/>
<path id="path5795" d="M62.4433 116.237C67.2415 116.237 69.1608 119.117 72.0398 121.996C74.9187 124.876 75.3986 124.396 78.7573 126.795C82.1161 129.195 83.0757 132.554 87.3942 138.313C91.7126 144.072 99.8696 145.032 101.789 145.032C103.708 145.032 109.466 145.512 111.385 144.072C113.305 142.633 113.305 139.753 116.663 139.753C120.022 139.753 120.982 144.552 120.982 146.472C120.982 148.392 119.063 159.91 99.8696 159.43C80.6766 158.95 75.8784 146.952 72.5196 142.153C69.1608 137.354 70.6003 126.795 46.6091 126.795C46.6091 124.876 47.0889 123.916 47.0889 121.996C47.0889 120.076 47.0889 118.157 53.8064 117.197C60.524 116.237 57.645 116.237 62.4433 116.237Z" fill="white" stroke="#2774AE"/>
<path id="path5797" d="M107.067 124.876C107.067 126.795 108.027 127.755 108.027 128.715C108.027 129.675 110.906 129.195 111.865 130.155C112.825 131.115 131.058 135.914 140.655 135.914C150.251 135.914 153.13 132.074 157.449 122.476C158.504 120.076 157.449 117.197 154.57 113.837C151.691 110.478 149.292 108.558 146.892 108.558C144.493 108.558 138.256 110.478 137.296 110.958C136.336 111.438 127.699 113.837 126.74 107.598C125.78 101.359 133.937 100.88 136.336 102.799C138.735 104.719 141.614 105.679 144.493 105.679C147.372 105.679 150.251 103.279 152.171 101.359C154.09 99.4397 158.408 98.4799 158.408 95.1204C158.408 91.761 156.489 91.2811 156.489 88.4015C155.529 86.4819 157.449 93.6807 153.61 94.6405C149.771 95.6004 150.251 96.5602 150.251 96.5602C149.771 93.6807 152.171 89.3614 145.933 87.4417C149.771 82.6425 141.135 82.6425 143.054 87.4417L145.453 90.3212C145.933 91.2811 146.413 91.2811 146.892 94.6405C145.453 95.6004 145.453 96.0803 144.493 98C143.534 99.9197 137.776 97.5201 134.897 98.9598C132.018 100.4 132.018 96.0803 135.377 95.6004C138.735 95.1204 137.776 95.6004 138.735 94.1606C139.695 92.7208 135.856 94.1606 134.897 93.2008C133.937 92.2409 132.018 93.6807 131.058 94.1606C130.099 94.6405 123.861 98.9598 124.341 105.679C124.82 112.398 125.78 118.637 133.937 118.157C142.094 117.677 144.973 109.518 149.771 114.317C151.211 115.757 149.771 123.436 145.933 123.436C121.942 123.436 126.74 118.637 112.345 118.637C106.587 118.637 107.067 121.516 107.067 123.436V124.876Z" fill="white" stroke="#2774AE"/>
<g id="path5799">
<path d="M154.57 113.837L149.771 114.317Z" fill="black"/>
<path d="M154.57 113.837L149.771 114.317" stroke="#2774AE"/>
</g>
<path id="path5801" d="M64.2282 163.711C68.3643 151.031 68.9209 152.874 71.7423 156.368C73.2009 158.182 76.0703 156.003 75.9839 157.971C75.8496 161.043 73.2393 162.425 72.4908 170.977C67.8173 173.434 64.804 171.476 64.2186 163.711H64.2282Z" fill="white" stroke="#2774AE"/>
<path id="path5803" d="M130.406 172.359C108.881 177.427 120.608 172.148 119.955 168.184C117.623 153.949 119.111 158.249 124.254 156.051C126.941 154.909 129.897 153.777 130.55 155.591C135.904 176.592 136.279 171.092 130.396 172.359H130.406Z" fill="white" stroke="#2774AE"/>
<path id="path5805" d="M65.0919 175.757C40.8224 170.257 69.0552 164.728 68.2971 161.513C65.802 150.926 69.5926 152.884 71.7423 155.36C73.2681 157.126 76.0703 156.013 75.9839 157.981C75.8496 161.052 70.9553 158.585 71.4736 162.156C72.51 174.279 77.4906 179.673 65.0919 175.757Z" fill="white" stroke="#2774AE"/>
<path id="path5807" d="M131.596 175.248C110.071 180.316 127.306 165.986 121.903 161.849C115.809 157.184 119.706 156.867 124.494 155.696C127.325 155.005 129.897 153.777 130.55 155.591C131.432 158.038 128.582 157.021 127.21 160.697C126.231 163.308 155.51 167.541 131.586 175.248H131.596Z" fill="white" stroke="#2774AE"/>
<path id="path5809" d="M66.1475 176.554C66.1763 173.367 71.5887 167.089 71.1377 166.235C68.3163 160.841 72.8171 162.828 78.0184 163.672C81.3388 164.21 92.701 167.464 98.0175 167.061C99.361 166.955 102.902 167.656 107.316 165.439C115.31 161.446 115.934 165.131 120.368 162.77C125.368 160.102 125.185 163.26 125.31 165.746C125.473 169.259 124.773 165.899 125.895 170.228C126.5 172.551 130.214 173.29 129.619 177.302C129.005 181.516 125.636 182.197 115.33 184.299C106.098 186.181 109.485 186.891 98.6509 186.949C90.1963 186.997 92.893 184.52 76.2334 184.319C69.4679 184.242 66.0995 181.631 66.1571 176.563L66.1475 176.554Z" fill="white" stroke="#2774AE"/>
<path id="path5811" d="M165.548 45.1414C167.055 49.2399 169.934 49.9118 172.429 53.4153C174.933 56.9187 177.841 65.0678 179.002 68.7632C181.478 76.6531 184.731 81.0491 184.722 88.5743C184.703 97.4529 185.173 108.222 184.088 111.399C183.004 114.576 180.087 122.409 178.686 131.412C177.38 139.792 170.097 146.722 169.07 147.902C168.043 149.083 165.039 157.242 157.161 163.404C153.687 166.12 148.716 169.47 144.465 172.561C140.636 175.344 138.822 178.013 136.576 177.696C134.331 177.379 132.795 174.643 132.354 171.188C132.075 169.028 131.653 167.435 128.688 163.912C126.126 160.87 125.435 159.929 130.981 159.286C134.954 158.825 140.482 150.916 143.726 149.899C146.969 148.881 153.533 138.956 159.637 125.807C164.07 116.227 166.623 102.818 164.109 85.3109C161.738 68.8015 158.514 67.4866 153.274 59.5487C149.042 53.1369 146.058 48.3953 140.319 45.343C139.417 44.8631 136.845 44.2488 133.62 41.2445C131.759 39.5071 128.995 38.4129 126.567 37.0115C124.139 35.6102 107.518 29.4864 98.4301 29.2272C90.9353 29.016 79.9953 30.5998 62.7792 39.9391C56.9157 43.1257 51.273 47.8866 43.97 56.1412C40.9567 59.5487 40.0451 63.7528 38.3273 67.4098C37.3772 69.4446 35.5827 71.0764 34.4407 72.8713C30.1031 79.7054 29.2298 92.0873 29.2202 97.6832C29.1914 107.09 32.6845 113.837 32.7805 118.339C32.9341 125.221 36.8398 129.915 41.6765 138.16C44.5458 143.055 50.5052 148.632 53.8928 150.897C57.4723 153.277 59.2189 156.301 64.0747 158.624C72.1453 162.482 65.8692 163.653 64.5449 167.704C63.8156 169.94 63.0383 180.412 56.8485 176.467C53.8352 174.547 48.7683 172.023 44.0372 168.126C42.6073 166.946 34.8246 161.993 31.6865 155.303C30.7365 153.277 26.1493 148.449 22.138 142.172C18.5393 136.547 16.6296 130.606 13.6451 123.417C10.6222 116.122 10.8333 105.189 10.1328 97.712C8.56856 80.8572 14.5664 75.3093 14.5664 73.9271C14.5664 69.1279 19.3166 57.6002 20.9193 55.4501C22.5219 53.2905 23.4335 50.7949 28.1358 44.0664C29.2106 42.5306 38.4233 34.42 42.7609 30.283C49.6799 23.6889 70.8018 14.0041 74.9283 13.9465C81.4443 13.8505 85.6572 10.923 95.5512 10.3759C101.962 10.0208 116.951 14.2345 123.966 15.6646C136.73 18.2658 135.501 21.2221 146.95 27.4515C158.408 33.6713 163.178 38.7393 165.548 45.1702V45.1414Z" fill="white" stroke="#2774AE"/>
<g id="g5813">
<path id="polygon5815" d="M93.7198 32.6657L97.9503 24.092L102.181 32.6657L111.641 34.0405L104.795 40.7143L106.411 50.1377L97.9503 45.6885L89.4892 50.1377L91.1052 40.7143L84.26 34.0405L93.7198 32.6657Z" fill="white" stroke="#2774AE" stroke-width="0.75"/>
<path id="polygon5817" d="M97.9503 38.4897V24.092L102.181 32.6657L97.9503 38.4897Z" fill="#2774AE"/>
<path id="polygon5819" d="M97.9503 38.4897L111.641 34.0405L108.218 37.3775L97.9503 38.4897Z" fill="#2774AE"/>
<path id="polygon5821" d="M97.9503 38.4897L104.795 40.7143L106.411 50.1377L97.9503 38.4897Z" fill="#2774AE"/>
<path id="polygon5823" d="M97.9503 38.4897V45.6885L89.4892 50.1377L97.9503 38.4897Z" fill="#2774AE"/>
<path id="polygon5825" d="M97.9503 38.4897L84.26 34.0405L93.7198 32.6657L97.9503 38.4897Z" fill="#2774AE"/>
</g>
<path id="circle5827" d="M49.4035 161.28C50.2865 161.958 51.5516 161.791 52.2291 160.908C52.9067 160.025 52.7401 158.76 51.8571 158.082C50.9741 157.404 49.709 157.571 49.0315 158.454C48.3539 159.337 48.5205 160.603 49.4035 161.28Z" fill="#2774AE"/>
<path id="circle5829" d="M146.497 161.28C147.38 160.603 147.547 159.337 146.869 158.454C146.192 157.571 144.927 157.404 144.044 158.082C143.161 158.76 142.994 160.025 143.672 160.908C144.349 161.791 145.614 161.958 146.497 161.28Z" fill="#2774AE"/>
<path id="circle5831" d="M18.8857 108.411C19.031 109.515 20.0433 110.292 21.1468 110.146C22.2502 110.001 23.027 108.989 22.8817 107.885C22.7365 106.781 21.7241 106.004 20.6207 106.15C19.5172 106.295 18.7404 107.307 18.8857 108.411Z" fill="#2774AE"/>
<path id="circle5833" d="M143.691 32.662C142.78 32.0235 141.523 32.2451 140.885 33.157C140.246 34.0689 140.468 35.3258 141.379 35.9643C142.291 36.6028 143.548 36.3812 144.186 35.4693C144.825 34.5574 144.603 33.3005 143.691 32.662Z" fill="#2774AE"/>
<path id="circle5835" d="M102.819 18.3858C101.708 18.3178 100.752 19.1635 100.684 20.2746C100.616 21.3858 101.462 22.3416 102.573 22.4096C103.684 22.4776 104.639 21.6319 104.707 20.5207C104.775 19.4096 103.93 18.4537 102.819 18.3858Z" fill="#2774AE"/>
<g id="g5837">
<path id="polygon5839" d="M32.7137 145.493L30.4281 147.397L37.1855 155.509L39.471 153.604L39.3481 153.457L38.7952 153.543L36.5223 150.814L43.0839 145.346L43.6123 145.531L43.7597 145.408L41.5482 142.753L41.4008 142.876L41.4867 143.429L34.9251 148.897L32.6522 146.168L32.8365 145.64L32.7137 145.493Z" fill="#2774AE"/>
</g>
<g id="g5841">
<path id="polygon5843" d="M27.9599 143.889L28.1272 143.795L28.1434 143.235L37.3488 138.069L37.8347 138.346L38.0021 138.252L36.311 135.239L36.1437 135.333L36.1275 135.892L26.9221 141.059L26.4362 140.781L26.2688 140.875L27.9599 143.889Z" fill="#2774AE"/>
<path id="polygon5845" d="M22.3239 133.844L22.4912 133.75L22.9772 134.028L32.1825 128.861L32.1987 128.301L32.3661 128.207L34.0571 131.221L33.8898 131.315L33.4038 131.037L24.1985 136.204L24.1823 136.764L24.0149 136.858L22.3239 133.844Z" fill="#2774AE"/>
<path id="polygon5847" d="M33.5991 139.623L28.9024 131.252L26.7268 132.473L31.4236 140.844L33.5991 139.623Z" fill="#2774AE"/>
</g>
<g id="g5849">
<path id="polygon5851" d="M24.5426 119.614L22.1727 120.394L23.4923 124.405L21.5782 125.035L19.8087 119.656L20.1745 119.232L20.1145 119.05L17.2888 119.979L20.1381 128.641L20.3204 128.581L20.4438 128.035L30.4703 124.737L30.8937 125.103L31.076 125.043L28.2268 116.381L25.4011 117.311L25.4611 117.493L26.0068 117.617L27.7764 122.996L25.8622 123.626L24.5426 119.614Z" fill="#2774AE"/>
</g>
<g id="g5853">
<path id="path5855" d="M14.3636 98.0926L20.1148 98.3642C26.1534 98.6494 26.5338 90.5962 20.4951 90.311L14.744 90.0394" stroke="#2774AE" stroke-width="2.6"/>
<path id="polygon5857" d="M14.4452 96.3674L14.6369 96.3764L14.9019 96.8694L14.7842 99.3622L14.474 99.828L14.2823 99.819L14.4452 96.3674Z" fill="#2774AE"/>
<path id="polygon5859" d="M14.662 91.7652L14.8537 91.7743L15.164 91.3085L15.2816 88.8156L15.0167 88.3227L14.8249 88.3136L14.662 91.7652Z" fill="#2774AE"/>
</g>
<g id="g5861">
<path id="polygon5863" d="M26.4339 86.7498L26.6205 86.7946L27.3156 83.9018L16.1185 81.2125L15.4235 84.1053L15.6101 84.1501L16.0021 83.7508L26.2661 86.216L26.4339 86.7498Z" fill="#2774AE"/>
<path id="polygon5865" d="M29.1228 75.5504L29.3094 75.5952L28.6143 78.488L17.4173 75.7987L18.1123 72.9059L18.299 72.9507L18.4668 73.4845L28.7307 75.9497L29.1228 75.5504Z" fill="#2774AE"/>
<path id="polygon5867" d="M28.6144 78.4889L29.1974 76.0625L16.1185 81.2116L15.5355 83.6379L28.6144 78.4889Z" fill="#2774AE"/>
</g>
<g id="g5869">
<path id="polygon5871" d="M19.79 68.5925L19.9682 68.6638L20.4137 68.3251L30.2144 72.2462L30.3035 72.7987L30.4817 72.87L31.7652 69.6618L31.587 69.5905L31.1415 69.9292L21.3407 66.0081L21.2517 65.4555L21.0735 65.3843L19.79 68.5925Z" fill="#2774AE"/>
</g>
<g id="g5873">
<path id="polygon5875" d="M34.6327 63.7478L35.8578 61.5736L28.5119 51.1528L27.2868 53.3271L34.6327 63.7478L35.8578 61.5736L23.1405 60.6859L21.9154 62.8602L34.6327 63.7478Z" fill="#2774AE"/>
</g>
<g id="g5877">
<path id="polygon5879" d="M40.9023 46.9888L38.991 45.3847L36.2767 48.62L34.733 47.3244L38.3725 42.9861L38.9252 43.074L39.0485 42.927L36.7697 41.0144L30.9094 47.9998L31.0564 48.1231L31.5854 47.9406L39.6717 54.7272L39.5838 55.2799L39.7308 55.4033L45.5911 48.4179L43.3122 46.5053L43.1888 46.6524L43.3713 47.1815L39.7318 51.5198L38.1881 50.2241L40.9023 46.9888Z" fill="#2774AE"/>
</g>
<g id="g5881">
<path id="path5883" d="M47.6178 38.7506L53.6046 39.6153M48.5991 45.4451L41.9986 37.5775L45.0861 34.9862C49.1292 31.593 52.0285 35.0489 47.9854 38.4421L44.8979 41.0333L48.5991 45.4451Z" stroke="#2774AE" stroke-width="2.6"/>
<path id="circle5885" d="M54.4071 40.5712C54.9351 40.1281 55.004 39.3409 54.561 38.8128C54.118 38.2848 53.3309 38.2159 52.8029 38.659C52.275 39.1021 52.2061 39.8894 52.6491 40.4174C53.0921 40.9454 53.8792 41.0143 54.4071 40.5712Z" fill="#2774AE"/>
<path id="polygon5887" d="M49.9222 44.3346L49.7988 44.1875L49.2462 44.2754L47.3348 45.8795L47.1523 46.4086L47.2757 46.5556L49.9222 44.3346Z" fill="#2774AE"/>
</g>
<g id="g5889">
<path id="path5891" d="M57.3745 35.3289C57.3745 35.3289 56.9723 37.118 61.1189 34.704C65.2655 32.2899 62.9963 28.3909 58.8498 30.8049C54.7032 33.219 52.4341 29.3199 56.5806 26.9059C60.7272 24.4919 60.325 26.2809 60.325 26.2809" stroke="#2774AE" stroke-width="2.6"/>
<path id="circle5893" d="M58.0022 36.4074C58.5978 36.0606 58.7997 35.2966 58.453 34.7009C58.1063 34.1052 57.3424 33.9035 56.7467 34.2502C56.1511 34.597 55.9493 35.361 56.2959 35.9567C56.6426 36.5524 57.4065 36.7542 58.0022 36.4074Z" fill="#2774AE"/>
<path id="circle5895" d="M60.9538 27.3594C61.5494 27.0127 61.7513 26.2487 61.4046 25.653C61.0579 25.0573 60.294 24.8555 59.6983 25.2023C59.1027 25.549 58.9009 26.313 59.2475 26.9087C59.5942 27.5044 60.3581 27.7062 60.9538 27.3594Z" fill="#2774AE"/>
</g>
<g id="g5897">
<path id="polygon5899" d="M63.7383 21.8071L63.8133 21.9838L64.3674 22.0614L68.4928 31.7803L68.1637 32.2329L68.2387 32.4096L71.418 31.0594L71.343 30.8827L70.7889 30.8051L66.6635 21.0862L66.9926 20.6336L66.9176 20.4569L63.7383 21.8071Z" fill="#2774AE"/>
</g>
<g id="g5901">
<path id="polygon5903" d="M81.2425 19.0448L80.4369 16.1805L70.2769 19.0386L71.0824 21.9028L71.2672 21.8509L71.4143 21.3109L74.8318 20.3496L77.1446 28.5728L76.7608 28.9799L76.8128 29.1647L80.1379 28.2293L80.0859 28.0445L79.5461 27.8972L77.2333 19.6741L80.6508 18.7127L81.0578 19.0968L81.2425 19.0448Z" fill="#2774AE"/>
</g>
<g id="g5905">
<path id="polygon5907" d="M86.9322 15.1923L83.4969 15.5538L83.517 15.7447L84.5316 16.2169L83.9741 15.5036L88.7353 22.2405L91.2163 21.9794L86.4551 15.2425L86.5053 15.7197L86.9523 15.3832L86.9322 15.1923Z" fill="#2774AE"/>
<path id="polygon5909" d="M91.5133 14.7107L94.9486 14.3491L94.9687 14.54L94.0747 15.2132L94.4714 14.3993L91.217 21.9798L88.736 22.2409L91.9904 14.6604L92.0406 15.1377L91.5334 14.9016L91.5133 14.7107Z" fill="#2774AE"/>
<path id="polygon5911" d="M89.1366 26.0593L88.6897 26.3958L88.7098 26.5867L92.1449 26.2252L92.1248 26.0343L91.6176 25.7982L91.2057 21.8847L88.7248 22.1458L89.1366 26.0593Z" fill="#2774AE"/>
</g>
<g id="g5913">
<path id="circle5915" d="M116.159 27.0643C118.571 27.6842 121.029 26.2306 121.649 23.8176C122.269 21.4046 120.816 18.946 118.404 18.3261C115.992 17.7063 113.534 19.1599 112.914 21.5729C112.294 23.9859 113.747 26.4445 116.159 27.0643Z" stroke="#2774AE" stroke-width="2.6"/>
</g>
<g id="g5917">
<path id="polygon5919" d="M129.724 26.1808L130.787 23.9228L135.909 26.3341L135.965 26.8909L136.139 26.9727L137.406 24.2804L129.158 20.3978L129.076 20.5715L129.388 21.0364L124.892 30.5896L124.335 30.6458L124.254 30.8195L127.379 32.2908L127.461 32.1171L127.149 31.6523L128.662 28.4389L133.35 30.6458L134.412 28.3878L129.724 26.1808Z" fill="#2774AE"/>
</g>
<g id="g5921">
<path id="circle5923" d="M150.086 46.5771C151.835 48.3511 154.691 48.3711 156.464 46.6217C158.238 44.8722 158.258 42.0159 156.509 40.2419C154.76 38.4679 151.904 38.448 150.13 40.1974C148.357 41.9468 148.337 44.8031 150.086 46.5771Z" stroke="#2774AE" stroke-width="2.6"/>
<path id="rect5925" d="M159.044 46.5039L154.664 42.0616L151.931 44.7574L156.31 49.1997L159.044 46.5039Z" fill="white"/>
</g>
<g id="g5927">
<path id="polygon5929" d="M160.078 55.7271L162.139 54.3208L161.31 53.1052L167.245 51.4179L165.569 48.9598L165.41 49.068L165.475 50.1854L165.839 49.3563L154.163 52.675L155.068 52.6388L154.051 52.1703L153.893 52.2785L155.84 55.1331L155.998 55.025L155.933 53.9075L155.569 54.7367L158.672 53.6654L160.078 55.7271Z" fill="#2774AE"/>
<path id="polygon5931" d="M159.97 55.5684L162.031 54.1621L162.86 55.3777L166.596 50.4662L168.273 52.9244L168.114 53.0326L167.098 52.5642L168.002 52.5279L160.653 62.1903L161.017 61.3611L161.082 62.4786L160.923 62.5868L158.976 59.7321L159.135 59.624L160.151 60.0924L159.247 60.1286L161.376 57.6301L159.97 55.5684Z" fill="#2774AE"/>
</g>
<g id="g5933">
<path id="polygon5935" d="M172.608 60.2511L172.431 60.3267L172.356 60.8813L162.655 65.0409L162.201 64.7133L162.025 64.7889L165.996 74.0519L168.73 72.8797L168.654 72.7032L168.1 72.6277L165.49 66.5405L173.78 62.9859L172.608 60.2511Z" fill="#2774AE"/>
</g>
<g id="g5937">
<path id="polygon5939" d="M177.599 72.9042L177.414 72.9581L177.273 73.4995L167.142 76.4633L166.73 76.0835L166.546 76.1374L167.517 79.4535L167.701 79.3997L167.842 78.8582L177.974 75.8945L178.385 76.2743L178.569 76.2204L177.599 72.9042Z" fill="#2774AE"/>
</g>
<g id="g5941">
<path id="polygon5943" d="M175.317 84.5912L177.785 84.222L178.623 89.8222L178.191 90.1779L178.219 90.3677L181.161 89.9276L179.812 80.9105L179.622 80.9389L179.408 81.456L168.97 83.0177L168.614 82.5857L168.424 82.6141L168.935 86.0312L169.125 86.0028L169.339 85.4856L172.85 84.9603L173.617 90.0858L176.084 89.7167L175.317 84.5912Z" fill="#2774AE"/>
</g>
<g id="g5945">
<path id="circle5947" d="M171.156 99.5336C171.103 102.025 173.08 104.086 175.57 104.138C178.061 104.191 180.122 102.214 180.174 99.7228C180.226 97.2319 178.25 95.1703 175.76 95.118C173.269 95.0658 171.208 97.0427 171.156 99.5336Z" stroke="#2774AE" stroke-width="2.6"/>
</g>
<g id="g5949">
<path id="path5951" d="M173.857 114.757L168.565 117.688M169.03 110.018L179.041 112.294L178.148 116.225C176.977 121.372 172.58 120.372 173.75 115.225L174.644 111.294L169.03 110.018Z" stroke="#2774AE" stroke-width="2.6"/>
<path id="circle5953" d="M167.349 117.412C167.196 118.084 167.617 118.752 168.289 118.905C168.96 119.058 169.629 118.637 169.782 117.965C169.934 117.293 169.514 116.625 168.842 116.472C168.17 116.319 167.502 116.74 167.349 117.412Z" fill="#2774AE"/>
<path id="polygon5955" d="M168.645 111.703L168.833 111.745L169.22 111.341L169.773 108.907L169.598 108.375L169.411 108.333L168.645 111.703Z" fill="#2774AE"/>
</g>
<g id="g5957">
<path id="polygon5959" d="M165.963 122.811L165.789 122.731L164.55 125.436L175.02 130.231L176.259 127.526L176.084 127.446L175.623 127.762L166.025 123.367L165.963 122.811Z" fill="#2774AE"/>
<path id="polygon5961" d="M161.169 133.284L160.995 133.204L162.233 130.498L172.703 135.293L171.465 137.998L171.29 137.919L171.228 137.362L161.631 132.967L161.169 133.284Z" fill="#2774AE"/>
<path id="polygon5963" d="M162.233 130.498L161.194 132.767L175.02 130.231L176.059 127.962L162.233 130.498Z" fill="#2774AE"/>
</g>
<g id="g5965">
<path id="polygon5967" d="M168.911 142.032L168.75 141.927L168.248 142.173L159.395 136.423L159.415 135.863L159.254 135.759L157.372 138.657L157.533 138.761L158.036 138.516L166.888 144.266L166.869 144.825L167.029 144.93L168.911 142.032Z" fill="#2774AE"/>
</g>
<g id="g5969">
<path id="polygon5971" d="M154.424 147.577L156.301 149.22L157.27 148.113L160.39 153.438L162.349 151.199L162.205 151.073L161.14 151.416L162.033 151.56L155.897 141.085L156.159 141.952L156.358 140.85L156.213 140.724L153.938 143.324L154.082 143.45L155.147 143.107L154.254 142.962L156.068 145.699L154.424 147.577Z" fill="#2774AE"/>
<path id="polygon5973" d="M154.551 147.432L156.428 149.076L155.459 150.183L161.148 152.571L159.189 154.81L159.044 154.684L159.243 153.582L159.505 154.449L148.312 149.751L149.206 149.896L148.14 150.239L147.996 150.112L150.271 147.512L150.416 147.639L150.217 148.74L149.955 147.873L152.907 149.31L154.551 147.432Z" fill="#2774AE"/>
</g>
<g id="g5975">
<path id="path5977" d="M75.4309 166.492L73.9396 172.054C72.3737 177.895 80.1581 179.982 81.724 174.142L83.2153 168.579" stroke="#2774AE" stroke-width="2.6"/>
<path id="polygon5979" d="M77.0975 166.939L77.0478 167.125L76.5097 167.278L74.0997 166.633L73.7108 166.23L73.7605 166.045L77.0975 166.939Z" fill="#2774AE"/>
<path id="polygon5981" d="M81.5469 168.132L81.4972 168.317L81.8861 168.719L84.2961 169.365L84.8341 169.211L84.8839 169.026L81.5469 168.132Z" fill="#2774AE"/>
</g>
<g id="g5983">
<path id="circle5985" d="M90.7819 179.945C93.263 180.163 95.4507 178.327 95.6681 175.845C95.8856 173.363 94.0504 171.175 91.5693 170.958C89.0881 170.74 86.9004 172.576 86.683 175.058C86.4655 177.54 88.3007 179.728 90.7819 179.945Z" stroke="#2774AE" stroke-width="2.6"/>
<path id="rect5987" d="M97.5568 174.083L91.3434 173.539L91.0083 177.363L97.2218 177.908L97.5568 174.083Z" fill="white"/>
</g>
<g id="g5989">
<path id="polygon5991" d="M98.9653 170.175L98.982 170.367L99.4851 170.611L100.406 181.129L99.9537 181.457L99.9704 181.649L110.007 180.769L109.747 177.805L109.556 177.822L109.311 178.325L102.716 178.903L101.928 169.916L98.9653 170.175Z" fill="#2774AE"/>
</g>
<g id="g5993">
<path id="polygon5995" d="M118.832 175.576L118.185 173.166L116.765 173.547L117.133 167.386L114.26 168.157L114.31 168.342L115.386 168.65L114.723 168.032L113.999 180.151L114.264 179.286L113.486 180.09L113.536 180.276L116.872 179.381L116.822 179.196L115.746 178.888L116.408 179.505L116.422 176.222L118.832 175.576Z" fill="#2774AE"/>
<path id="polygon5997" d="M118.648 175.626L118.002 173.216L119.422 172.835L116.022 167.685L118.895 166.915L118.945 167.1L118.167 167.905L118.432 167.039L125.121 177.17L124.459 176.552L125.534 176.86L125.584 177.046L122.248 177.94L122.198 177.755L122.976 176.95L122.711 177.816L121.057 174.98L118.648 175.626Z" fill="#2774AE"/>
</g>
<g id="g5999">
<path id="polygon6001" d="M61.4892 118.906L61.4479 119.003L61.6289 119.252L59.3596 124.597L59.0548 124.64L59.0135 124.737L64.1141 126.903L64.7536 125.397L64.6565 125.355L64.4076 125.536L61.0558 124.113L62.9951 119.545L61.4892 118.906Z" fill="#2774AE"/>
</g>
<g id="g6003">
<path id="polygon6005" d="M69.3218 127.466L70.1477 126.37L68.2931 124.972L68.9602 124.086L71.447 125.961L71.4147 126.267L71.499 126.33L72.4837 125.023L68.4794 122.005L68.4159 122.09L68.5313 122.375L65.0371 127.013L64.731 126.98L64.6675 127.065L68.6718 130.083L69.6565 128.776L69.5722 128.712L69.2869 128.828L66.8001 126.953L67.4672 126.068L69.3218 127.466Z" fill="#2774AE"/>
</g>
<g id="g6007">
<path id="polygon6009" d="M75.9441 132.084L77.2678 131.122L73.8549 126.424L72.5313 127.386L72.5933 127.471L72.8999 127.444L74.0478 129.024L70.2477 131.786L69.9645 131.666L69.8791 131.728L70.996 133.265L71.0814 133.203L71.0544 132.897L74.8545 130.135L76.0025 131.715L75.8821 131.999L75.9441 132.084Z" fill="#2774AE"/>
</g>
<g id="g6011">
<path id="polygon6013" d="M81.1964 140.294L82.5367 139.355L79.2063 134.598L77.866 135.537L77.9266 135.623L78.2336 135.602L79.3538 137.202L75.5061 139.896L75.225 139.771L75.1385 139.832L76.2285 141.388L76.3149 141.328L76.2933 141.021L80.141 138.326L81.2612 139.926L81.1359 140.207L81.1964 140.294Z" fill="#2774AE"/>
</g>
<g id="g6015">
<path id="polygon6017" d="M82.5064 139.802L82.4255 139.87L82.4739 140.174L78.0263 143.907L77.7354 143.806L77.6545 143.874L78.876 145.33L78.9568 145.262L78.9085 144.958L83.356 141.225L83.6469 141.326L83.7278 141.258L82.5064 139.802Z" fill="#2774AE"/>
<path id="polygon6019" d="M86.5777 144.655L86.4968 144.723L86.2059 144.622L81.7583 148.355L81.8067 148.659L81.7258 148.727L80.5044 147.271L80.5853 147.203L80.8762 147.304L85.3237 143.571L85.2754 143.267L85.3562 143.199L86.5777 144.655Z" fill="#2774AE"/>
<path id="polygon6021" d="M79.8941 142.684L83.2869 146.728L84.3381 145.845L80.9453 141.801L79.8941 142.684Z" fill="#2774AE"/>
</g>
<g id="g6023">
<path id="polygon6025" d="M88.4374 150.441L89.1646 149.277L87.1954 148.046L87.7828 147.106L90.4234 148.756L90.4178 149.064L90.5073 149.12L91.3745 147.732L87.1226 145.075L87.0667 145.164L87.2065 145.438L84.1295 150.363L83.8218 150.358L83.7659 150.447L88.0178 153.105L88.8849 151.717L88.7954 151.661L88.5213 151.801L85.8806 150.15L86.4681 149.21L88.4374 150.441Z" fill="#2774AE"/>
</g>
<g id="g6027">
<path id="path6029" d="M93.8569 151.683L95.3551 154.653M91.1508 154.236L92.6136 148.781L94.7543 149.355C97.5576 150.107 96.9151 152.503 94.1118 151.751L91.971 151.177L91.1508 154.236Z" stroke="#2774AE" stroke-width="1.43"/>
<path id="circle6031" d="M95.1786 155.316C95.5447 155.415 95.9211 155.197 96.0193 154.831C96.1174 154.465 95.9002 154.089 95.5341 153.991C95.1679 153.892 94.7916 154.11 94.6934 154.476C94.5952 154.842 94.8125 155.218 95.1786 155.316Z" fill="#2774AE"/>
<path id="polygon6033" d="M92.0693 154.483L92.0967 154.381L91.8826 154.16L90.5565 153.804L90.2605 153.889L90.2331 153.991L92.0693 154.483Z" fill="#2774AE"/>
</g>
<g id="g6035">
<path id="polygon6037" d="M101.604 153.51L101.724 152.143L99.4105 151.94L99.5072 150.836L102.609 151.107L102.744 151.384L102.849 151.393L102.992 149.763L97.9973 149.326L97.9881 149.431L98.2371 149.612L97.7303 155.396L97.4537 155.531L97.4444 155.636L102.439 156.074L102.582 154.443L102.476 154.434L102.296 154.683L99.1939 154.412L99.2907 153.307L101.604 153.51Z" fill="#2774AE"/>
</g>
<g id="g6039">
<path id="path6041" d="M107.058 151.466L108.245 154.402L110.3 153.572C112.991 152.484 112.061 150.183 109.37 151.271L107.315 152.102M107.572 152.738L106.385 149.802L108.44 148.971C111.132 147.883 112.061 150.183 109.37 151.271L107.315 152.102L107.572 152.738Z" stroke="#2774AE" stroke-width="1.43"/>
<path id="polygon6043" d="M107.581 155.297L107.62 155.395L108.501 155.039L107.766 155.051L107.581 155.297Z" fill="#2774AE"/>
<path id="polygon6045" d="M105.287 149.619L105.248 149.521L106.129 149.165L105.591 149.667L105.287 149.619Z" fill="#2774AE"/>
</g>
<g id="g6047">
<path id="polygon6049" d="M116.707 148.082L115.979 146.918L114.01 148.149L113.423 147.209L116.063 145.559L116.337 145.699L116.427 145.643L115.56 144.255L111.308 146.912L111.364 147.002L111.671 146.996L114.748 151.921L114.609 152.195L114.665 152.285L118.916 149.627L118.049 148.239L117.96 148.295L117.965 148.603L115.325 150.254L114.737 149.313L116.707 148.082Z" fill="#2774AE"/>
</g>
<g id="g6051">
<path id="polygon6053" d="M119.509 123.255L119.494 123.359L119.733 123.553L118.924 129.303L118.641 129.423L118.626 129.527L124.113 130.299L124.341 128.679L124.237 128.664L124.043 128.903L120.437 128.396L121.129 123.483L119.509 123.255Z" fill="#2774AE"/>
</g>
<g id="g6055">
<path id="polygon6057" d="M126.355 124.183L126.337 124.287L126.569 124.489L125.56 130.207L125.273 130.317L125.254 130.421L127.126 130.752L127.144 130.648L126.912 130.446L127.92 124.727L128.208 124.617L128.226 124.513L126.355 124.183Z" fill="#2774AE"/>
</g>
<g id="g6059">
<path id="path6061" d="M134.27 127.467C131.016 124.078 127.918 130.945 131.576 131.46L133.405 131.717L133.751 129.26" stroke="#2774AE" stroke-width="1.43"/>
<path id="polygon6063" d="M134.693 129.392L134.678 129.497L134.395 129.617L133.035 129.426L132.796 129.232L132.81 129.128L134.693 129.392Z" fill="#2774AE"/>
</g>
<g id="g6065">
<path id="polygon6067" d="M136.336 126.507V126.613L136.6 126.771V132.578L136.336 132.737V132.842H138.237V132.737L137.973 132.578V126.771L138.237 126.613V126.507H136.336Z" fill="#2774AE"/>
<path id="polygon6069" d="M142.671 126.507V126.613L142.407 126.771V132.578L142.671 132.737V132.842H140.77V132.737L141.034 132.578V126.771L140.77 126.613V126.507H142.671Z" fill="#2774AE"/>
<path id="polygon6071" d="M136.864 130.361H142.142V128.989H136.864V130.361Z" fill="#2774AE"/>
</g>
<g id="g6073">
<path id="polygon6075" d="M149.17 127.417L149.028 125.786L143.245 126.293L143.388 127.923L143.493 127.914L143.627 127.637L145.573 127.467L145.983 132.147L145.734 132.328L145.743 132.433L147.635 132.267L147.626 132.162L147.349 132.027L146.939 127.347L148.885 127.177L149.065 127.426L149.17 127.417Z" fill="#2774AE"/>
</g>
</g>
</g>
<defs>
<clipPath id="clip0_2_316">
<rect width="196" height="196" fill="white"/>
</clipPath>
</defs>
</svg>
