<svg width="128" height="128" viewBox="0 0 128 128" fill="none" xmlns="http://www.w3.org/2000/svg">
<g id="The_University_of_California_UCLA 1" clip-path="url(#clip0_2_316)">
<g id="g6083">
<path id="circle5473" d="M63.9676 126.684C98.5798 126.684 126.639 98.6192 126.639 64C126.639 29.3808 98.5798 1.31638 63.9676 1.31638C29.3553 1.31638 1.29657 29.3808 1.29657 64C1.29657 98.6192 29.3553 126.684 63.9676 126.684Z" fill="white"/>
<path id="circle5475" d="M63.9676 128C64.6944 128 65.2836 127.411 65.2836 126.684C65.2836 125.957 64.6944 125.367 63.9676 125.367C63.2407 125.367 62.6515 125.957 62.6515 126.684C62.6515 127.411 63.2407 128 63.9676 128Z" fill="#2774AE"/>
<path id="circle5477" d="M60.7749 127.92C61.5008 127.957 62.1187 127.397 62.155 126.671C62.1913 125.945 61.6322 125.327 60.9062 125.291C60.1803 125.255 59.5624 125.814 59.5261 126.54C59.4898 127.266 60.0489 127.884 60.7749 127.92Z" fill="#2774AE"/>
<path id="circle5479" d="M57.6013 127.682C58.3245 127.755 58.9695 127.227 59.0418 126.504C59.1141 125.78 58.5864 125.135 57.8632 125.063C57.1399 124.99 56.495 125.518 56.4226 126.242C56.3503 126.965 56.878 127.61 57.6013 127.682Z" fill="#2774AE"/>
<path id="circle5481" d="M54.4323 127.285C55.1511 127.394 55.8216 126.899 55.9299 126.18C56.0382 125.461 55.5433 124.79 54.8246 124.682C54.1058 124.574 53.4354 125.069 53.3271 125.788C53.2188 126.506 53.7136 127.177 54.4323 127.285Z" fill="#2774AE"/>
<path id="circle5483" d="M51.2872 126.731C51.9996 126.875 52.694 126.414 52.838 125.701C52.982 124.989 52.5213 124.294 51.8088 124.15C51.0964 124.006 50.4021 124.467 50.258 125.18C50.114 125.892 50.5748 126.587 51.2872 126.731Z" fill="#2774AE"/>
<path id="circle5485" d="M48.1736 126.02C48.878 126.199 49.5944 125.774 49.7739 125.069C49.9533 124.365 49.5277 123.648 48.8233 123.469C48.119 123.289 47.4025 123.715 47.2231 124.419C47.0437 125.124 47.4693 125.84 48.1736 126.02Z" fill="#2774AE"/>
<path id="circle5487" d="M45.1101 125.158C45.8047 125.372 46.5414 124.982 46.7556 124.288C46.9698 123.593 46.5804 122.856 45.8858 122.642C45.1912 122.428 44.4545 122.817 44.2403 123.512C44.0261 124.206 44.4155 124.943 45.1101 125.158Z" fill="#2774AE"/>
<path id="circle5489" d="M42.0827 124.14C42.7657 124.389 43.5209 124.037 43.7695 123.354C44.0181 122.67 43.666 121.915 42.9829 121.666C42.2999 121.418 41.5447 121.77 41.2961 122.453C41.0475 123.136 41.3997 123.892 42.0827 124.14Z" fill="#2774AE"/>
<path id="circle5491" d="M39.1098 122.973C39.7796 123.256 40.5514 122.942 40.8338 122.272C41.1162 121.602 40.8021 120.83 40.1324 120.547C39.4626 120.265 38.6907 120.579 38.4084 121.249C38.126 121.919 38.44 122.691 39.1098 122.973Z" fill="#2774AE"/>
<path id="circle5493" d="M36.2089 121.664C36.8638 121.979 37.6503 121.704 37.9657 121.049C38.281 120.394 38.0057 119.607 37.3508 119.292C36.6959 118.977 35.9094 119.252 35.5941 119.907C35.2787 120.562 35.554 121.349 36.2089 121.664Z" fill="#2774AE"/>
<path id="circle5495" d="M33.3669 120.207C34.0052 120.555 34.8045 120.319 35.1521 119.68C35.4997 119.042 35.264 118.243 34.6257 117.895C33.9873 117.547 33.1881 117.783 32.8405 118.421C32.4928 119.06 32.7285 119.859 33.3669 120.207Z" fill="#2774AE"/>
<path id="circle5497" d="M30.6011 118.61C31.2213 118.989 32.0313 118.793 32.4103 118.173C32.7894 117.553 32.5938 116.742 31.9736 116.363C31.3534 115.984 30.5434 116.18 30.1644 116.8C29.7853 117.42 29.9809 118.231 30.6011 118.61Z" fill="#2774AE"/>
<path id="circle5499" d="M27.9184 116.877C28.5189 117.286 29.3377 117.131 29.7472 116.531C30.1567 115.93 30.0018 115.111 29.4013 114.701C28.8008 114.292 27.982 114.447 27.5725 115.047C27.163 115.648 27.3179 116.467 27.9184 116.877Z" fill="#2774AE"/>
<path id="circle5501" d="M25.3344 115.018C25.9139 115.457 26.7393 115.343 27.1782 114.764C27.617 114.184 27.5031 113.359 26.9236 112.92C26.3442 112.481 25.5188 112.595 25.0799 113.174C24.6411 113.754 24.755 114.579 25.3344 115.018Z" fill="#2774AE"/>
<path id="circle5503" d="M22.8375 113.027C23.3943 113.494 24.2244 113.422 24.6916 112.865C25.1588 112.308 25.0862 111.477 24.5294 111.01C23.9726 110.543 23.1425 110.615 22.6752 111.172C22.208 111.729 22.2807 112.56 22.8375 113.027Z" fill="#2774AE"/>
<path id="circle5505" d="M20.4429 110.913C20.9757 111.408 21.8085 111.377 22.3029 110.844C22.7973 110.311 22.7662 109.478 22.2334 108.983C21.7006 108.489 20.8678 108.52 20.3734 109.053C19.879 109.586 19.9101 110.419 20.4429 110.913Z" fill="#2774AE"/>
<path id="circle5507" d="M18.1647 108.691C18.6722 109.211 19.5055 109.221 20.0258 108.714C20.5461 108.206 20.5564 107.373 20.0488 106.852C19.5413 106.332 18.708 106.321 18.1877 106.829C17.6675 107.337 17.6571 108.17 18.1647 108.691Z" fill="#2774AE"/>
<path id="circle5509" d="M15.9923 106.349C16.4733 106.894 17.305 106.946 17.8499 106.465C18.3949 105.984 18.4468 105.152 17.9658 104.607C17.4849 104.062 16.6532 104.01 16.1082 104.491C15.5632 104.972 15.5114 105.804 15.9923 106.349Z" fill="#2774AE"/>
<path id="circle5511" d="M13.9394 103.902C14.3926 104.471 15.2207 104.564 15.789 104.111C16.3572 103.657 16.4506 102.829 15.9974 102.261C15.5442 101.692 14.7162 101.599 14.1479 102.052C13.5796 102.505 13.4863 103.334 13.9394 103.902Z" fill="#2774AE"/>
<path id="circle5513" d="M12.0112 101.356C12.4355 101.946 13.2578 102.081 13.848 101.656C14.4382 101.232 14.5727 100.409 14.1485 99.819C13.7242 99.2287 12.9019 99.0941 12.3117 99.5185C11.7215 99.9428 11.587 100.765 12.0112 101.356Z" fill="#2774AE"/>
<path id="circle5515" d="M10.2185 98.7256C10.6128 99.3363 11.4275 99.5116 12.0381 99.1171C12.6486 98.7227 12.8239 97.9078 12.4295 97.2971C12.0351 96.6865 11.2204 96.5112 10.6099 96.9056C9.99932 97.3001 9.82408 98.1149 10.2185 98.7256Z" fill="#2774AE"/>
<path id="circle5517" d="M8.55313 96C8.91656 96.6296 9.72147 96.8453 10.3509 96.4818C10.9804 96.1183 11.1961 95.3132 10.8327 94.6836C10.4692 94.054 9.66433 93.8383 9.03485 94.2018C8.40538 94.5653 8.1897 95.3704 8.55313 96Z" fill="#2774AE"/>
<path id="circle5519" d="M7.02579 93.1946C7.35735 93.8416 8.1505 94.0972 8.79732 93.7656C9.44415 93.4339 9.69972 92.6406 9.36815 91.9937C9.03658 91.3467 8.24344 91.0911 7.59661 91.4227C6.94978 91.7544 6.69422 92.5477 7.02579 93.1946Z" fill="#2774AE"/>
<path id="circle5521" d="M5.64493 90.3267C5.94393 90.9894 6.72338 91.2841 7.38589 90.9851C8.04841 90.686 8.34309 89.9064 8.0441 89.2437C7.7451 88.5811 6.96564 88.2863 6.30313 88.5854C5.64062 88.8845 5.34593 89.6641 5.64493 90.3267Z" fill="#2774AE"/>
<path id="circle5523" d="M4.40425 87.3833C4.66981 88.0601 5.43359 88.3933 6.1102 88.1277C6.7868 87.8621 7.12002 87.0982 6.85445 86.4214C6.58888 85.7447 5.8251 85.4114 5.14849 85.677C4.47189 85.9426 4.13868 86.7066 4.40425 87.3833Z" fill="#2774AE"/>
<path id="circle5525" d="M3.31196 84.3816C3.54344 85.0708 4.28964 85.4418 4.97865 85.2103C5.66767 84.9787 6.03857 84.2324 5.8071 83.5432C5.57562 82.8541 4.82941 82.4831 4.1404 82.7146C3.45139 82.9461 3.08048 83.6925 3.31196 84.3816Z" fill="#2774AE"/>
<path id="circle5527" d="M2.37075 81.3292C2.56756 82.029 3.29433 82.4368 3.99403 82.2399C4.69374 82.0431 5.10141 81.3162 4.9046 80.6163C4.70779 79.9165 3.98103 79.5087 3.28132 79.7055C2.58162 79.9024 2.17394 80.6293 2.37075 81.3292Z" fill="#2774AE"/>
<path id="circle5529" d="M1.5855 78.2445C1.74728 78.9532 2.45287 79.3966 3.1615 79.2348C3.87012 79.073 4.31343 78.3673 4.15166 77.6585C3.98988 76.9497 3.28428 76.5063 2.57566 76.6681C1.86703 76.8299 1.42372 77.5357 1.5855 78.2445Z" fill="#2774AE"/>
<path id="circle5531" d="M0.952569 75.1135C1.07879 75.8295 1.76139 76.3075 2.4772 76.1813C3.19302 76.055 3.67098 75.3723 3.54476 74.6563C3.41854 73.9404 2.73594 73.4623 2.02013 73.5886C1.30431 73.7148 0.826352 74.3975 0.952569 75.1135Z" fill="#2774AE"/>
<path id="circle5533" d="M0.47668 71.9548C0.567024 72.6762 1.22493 73.1877 1.94615 73.0973C2.66737 73.007 3.17879 72.3489 3.08845 71.6276C2.9981 70.9062 2.3402 70.3947 1.61898 70.485C0.897761 70.5754 0.386335 71.2334 0.47668 71.9548Z" fill="#2774AE"/>
<path id="circle5535" d="M0.15974 68.7875C0.214113 69.5125 0.845773 70.0561 1.57059 70.0017C2.29541 69.9473 2.83892 69.3155 2.78455 68.5906C2.73017 67.8656 2.09851 67.322 1.37369 67.3764C0.648873 67.4307 0.105368 68.0625 0.15974 68.7875Z" fill="#2774AE"/>
<path id="circle5537" d="M0.000391659 65.5972C0.0185308 66.3239 0.622285 66.8984 1.34892 66.8803C2.07555 66.8621 2.64989 66.2582 2.63175 65.5315C2.61361 64.8047 2.00986 64.2302 1.28323 64.2484C0.556597 64.2665 -0.0177475 64.8704 0.000391659 65.5972Z" fill="#2774AE"/>
<path id="circle5539" d="M0.000408042 62.4028C-0.0177311 63.1296 0.556614 63.7335 1.28324 63.7516C2.00987 63.7698 2.61363 63.1953 2.63177 62.4685C2.64991 61.7418 2.07556 61.1379 1.34893 61.1197C0.622301 61.1016 0.0185472 61.6761 0.000408042 62.4028Z" fill="#2774AE"/>
<path id="circle5541" d="M0.159772 59.2125C0.105399 59.9375 0.648904 60.5693 1.37372 60.6236C2.09854 60.678 2.7302 60.1344 2.78458 59.4094C2.83895 58.6845 2.29544 58.0527 1.57062 57.9983C0.845803 57.9439 0.214144 58.4875 0.159772 59.2125Z" fill="#2774AE"/>
<path id="circle5543" d="M0.476663 56.0452C0.386319 56.7665 0.897745 57.4246 1.61897 57.5149C2.34019 57.6053 2.99809 57.0937 3.08843 56.3724C3.17878 55.651 2.66735 54.993 1.94613 54.9026C1.22491 54.8123 0.567008 55.3238 0.476663 56.0452Z" fill="#2774AE"/>
<path id="circle5545" d="M0.952588 52.8865C0.82637 53.6025 1.30433 54.2852 2.02015 54.4115C2.73596 54.5377 3.41856 54.0596 3.54478 53.3437C3.671 52.6277 3.19303 51.945 2.47722 51.8187C1.76141 51.6925 1.07881 52.1706 0.952588 52.8865Z" fill="#2774AE"/>
<path id="circle5547" d="M1.58547 49.7555C1.4237 50.4643 1.867 51.17 2.57563 51.3318C3.28425 51.4937 3.98985 51.0503 4.15163 50.3415C4.3134 49.6327 3.8701 48.927 3.16147 48.7652C2.45285 48.6034 1.74725 49.0468 1.58547 49.7555Z" fill="#2774AE"/>
<path id="circle5549" d="M2.37075 46.6708C2.17394 47.3706 2.58161 48.0976 3.28132 48.2944C3.98102 48.4913 4.70779 48.0835 4.9046 47.3837C5.10141 46.6838 4.69373 45.9569 3.99403 45.76C3.29432 45.5632 2.56756 45.971 2.37075 46.6708Z" fill="#2774AE"/>
<path id="circle5551" d="M3.31193 43.6184C3.08046 44.3075 3.45136 45.0539 4.14038 45.2854C4.82939 45.5169 5.57559 45.146 5.80707 44.4568C6.03855 43.7677 5.66764 43.0213 4.97863 42.7898C4.28962 42.5582 3.54341 42.9292 3.31193 43.6184Z" fill="#2774AE"/>
<path id="circle5553" d="M4.40424 40.6167C4.13867 41.2934 4.47189 42.0574 5.14849 42.323C5.8251 42.5886 6.58888 42.2553 6.85444 41.5786C7.12001 40.9018 6.7868 40.1379 6.1102 39.8723C5.43359 39.6067 4.66981 39.94 4.40424 40.6167Z" fill="#2774AE"/>
<path id="circle5555" d="M5.64493 37.6732C5.34593 38.3359 5.64062 39.1155 6.30313 39.4146C6.96565 39.7136 7.7451 39.4189 8.0441 38.7562C8.3431 38.0936 8.04841 37.314 7.3859 37.0149C6.72338 36.7158 5.94393 37.0106 5.64493 37.6732Z" fill="#2774AE"/>
<path id="circle5557" d="M7.02582 34.8054C6.69425 35.4523 6.94982 36.2456 7.59664 36.5773C8.24347 36.9089 9.03661 36.6533 9.36818 36.0063C9.69975 35.3594 9.44418 34.5661 8.79736 34.2344C8.15053 33.9028 7.35739 34.1584 7.02582 34.8054Z" fill="#2774AE"/>
<path id="circle5559" d="M8.55311 32C8.18968 32.6296 8.40536 33.4346 9.03483 33.7981C9.66431 34.1616 10.4692 33.9459 10.8326 33.3163C11.1961 32.6867 10.9804 31.8817 10.3509 31.5182C9.72145 31.1547 8.91654 31.3704 8.55311 32Z" fill="#2774AE"/>
<path id="circle5561" d="M10.2185 29.2744C9.82408 29.885 9.99932 30.6999 10.6099 31.0943C11.2204 31.4888 12.0351 31.3135 12.4295 30.7028C12.8239 30.0921 12.6486 29.2773 12.0381 28.8829C11.4275 28.4884 10.6128 28.6637 10.2185 29.2744Z" fill="#2774AE"/>
<path id="circle5563" d="M12.0112 26.6443C11.587 27.2346 11.7215 28.0571 12.3117 28.4815C12.9019 28.9058 13.7243 28.7713 14.1485 28.1809C14.5728 27.5906 14.4382 26.7681 13.848 26.3438C13.2579 25.9194 12.4355 26.054 12.0112 26.6443Z" fill="#2774AE"/>
<path id="circle5565" d="M13.9395 24.0979C13.4863 24.6663 13.5796 25.4945 14.1479 25.9478C14.7162 26.4011 15.5442 26.3077 15.9974 25.7393C16.4506 25.1709 16.3573 24.3427 15.789 23.8894C15.2207 23.4362 14.3926 23.5295 13.9395 24.0979Z" fill="#2774AE"/>
<path id="circle5567" d="M15.9923 21.6509C15.5113 22.196 15.5632 23.0278 16.1082 23.5089C16.6532 23.9899 17.4848 23.938 17.9658 23.393C18.4468 22.8479 18.3949 22.016 17.8499 21.535C17.3049 21.0539 16.4733 21.1058 15.9923 21.6509Z" fill="#2774AE"/>
<path id="circle5569" d="M18.1647 19.3094C17.6571 19.8298 17.6674 20.6632 18.1877 21.1709C18.708 21.6786 19.5413 21.6682 20.0488 21.1478C20.5564 20.6274 20.5461 19.794 20.0258 19.2864C19.5055 18.7787 18.6722 18.789 18.1647 19.3094Z" fill="#2774AE"/>
<path id="circle5571" d="M20.443 17.0869C19.9102 17.5814 19.8791 18.4143 20.3735 18.9472C20.8679 19.4801 21.7006 19.5112 22.2334 19.0167C22.7662 18.5222 22.7973 17.6893 22.3029 17.1564C21.8085 16.6235 20.9758 16.5924 20.443 17.0869Z" fill="#2774AE"/>
<path id="circle5573" d="M22.8374 14.9732C22.2806 15.4405 22.208 16.2708 22.6752 16.8277C23.1424 17.3846 23.9726 17.4572 24.5294 16.9899C25.0862 16.5226 25.1588 15.6923 24.6916 15.1354C24.2244 14.5785 23.3943 14.5059 22.8374 14.9732Z" fill="#2774AE"/>
<path id="circle5575" d="M25.3344 12.9816C24.755 13.4205 24.641 14.2462 25.0799 14.8257C25.5187 15.4053 26.3442 15.5192 26.9236 15.0803C27.5031 14.6414 27.617 13.8157 27.1782 13.2362C26.7393 12.6566 25.9138 12.5427 25.3344 12.9816Z" fill="#2774AE"/>
<path id="circle5577" d="M27.9184 11.1234C27.3179 11.533 27.163 12.3519 27.5725 12.9526C27.982 13.5532 28.8008 13.7081 29.4013 13.2985C30.0019 12.8889 30.1567 12.07 29.7472 11.4693C29.3377 10.8687 28.5189 10.7138 27.9184 11.1234Z" fill="#2774AE"/>
<path id="circle5579" d="M30.6011 9.39021C29.9809 9.76932 29.7854 10.5795 30.1644 11.1999C30.5434 11.8202 31.3534 12.0157 31.9737 11.6366C32.5939 11.2575 32.7894 10.4473 32.4104 9.82701C32.0313 9.20667 31.2213 9.01111 30.6011 9.39021Z" fill="#2774AE"/>
<path id="circle5581" d="M33.3669 7.79307C32.7285 8.14074 32.4928 8.94018 32.8404 9.57866C33.188 10.2171 33.9873 10.4529 34.6257 10.1052C35.264 9.75753 35.4997 8.95809 35.1521 8.31961C34.8045 7.68113 34.0052 7.44539 33.3669 7.79307Z" fill="#2774AE"/>
<path id="circle5583" d="M36.2089 6.33591C35.554 6.6513 35.2788 7.43798 35.5941 8.09301C35.9094 8.74804 36.6959 9.02338 37.3508 8.70799C38.0057 8.3926 38.281 7.60593 37.9657 6.95089C37.6504 6.29586 36.8638 6.02053 36.2089 6.33591Z" fill="#2774AE"/>
<path id="circle5585" d="M39.1098 5.02676C38.44 5.30919 38.126 6.08121 38.4084 6.75111C38.6907 7.42101 39.4626 7.73512 40.1323 7.45269C40.8021 7.17027 41.1162 6.39825 40.8338 5.72835C40.5514 5.05845 39.7796 4.74434 39.1098 5.02676Z" fill="#2774AE"/>
<path id="circle5587" d="M42.0827 3.8597C41.3997 4.10835 41.0475 4.86373 41.2961 5.54689C41.5447 6.23005 42.2999 6.58229 42.9829 6.33364C43.666 6.08499 44.0181 5.32961 43.7695 4.64645C43.5209 3.96329 42.7657 3.61105 42.0827 3.8597Z" fill="#2774AE"/>
<path id="circle5589" d="M45.1101 2.84237C44.4155 3.05662 44.0261 3.79349 44.2403 4.4882C44.4545 5.18292 45.1912 5.57241 45.8858 5.35815C46.5804 5.1439 46.9698 4.40704 46.7556 3.71232C46.5414 3.01761 45.8046 2.62812 45.1101 2.84237Z" fill="#2774AE"/>
<path id="circle5591" d="M48.1736 1.98021C47.4693 2.15965 47.0437 2.87624 47.2231 3.58075C47.4025 4.28526 48.119 4.71091 48.8233 4.53146C49.5277 4.35201 49.9533 3.63543 49.7738 2.93092C49.5944 2.22641 48.878 1.80076 48.1736 1.98021Z" fill="#2774AE"/>
<path id="circle5593" d="M51.2872 1.26929C50.5748 1.41336 50.114 2.10782 50.258 2.82041C50.4021 3.53299 51.0964 3.99386 51.8088 3.84979C52.5213 3.70572 52.982 3.01126 52.838 2.29868C52.694 1.58609 51.9996 1.12522 51.2872 1.26929Z" fill="#2774AE"/>
<path id="circle5595" d="M54.4323 0.714579C53.7136 0.822916 53.2187 1.49351 53.3271 2.2124C53.4354 2.93128 54.1058 3.42623 54.8246 3.31789C55.5433 3.20956 56.0382 2.53896 55.9299 1.82008C55.8215 1.10119 55.1511 0.606243 54.4323 0.714579Z" fill="#2774AE"/>
<path id="circle5597" d="M57.6013 0.317564C56.878 0.389896 56.3503 1.03496 56.4226 1.75836C56.495 2.48175 57.1399 3.00954 57.8631 2.93721C58.5864 2.86488 59.1141 2.21982 59.0418 1.49642C58.9694 0.773023 58.3245 0.245232 57.6013 0.317564Z" fill="#2774AE"/>
<path id="circle5599" d="M60.7749 0.0797121C60.0489 0.115986 59.4898 0.73401 59.5261 1.46011C59.5624 2.18621 60.1803 2.74542 60.9062 2.70914C61.6322 2.67287 62.1913 2.05485 62.155 1.32875C62.1187 0.602649 61.5008 0.0434377 60.7749 0.0797121Z" fill="#2774AE"/>
<path id="circle5601" d="M63.9676 -2.0504e-05C63.2407 -2.0504e-05 62.6515 0.589331 62.6515 1.31633C62.6515 2.04334 63.2407 2.63269 63.9676 2.63269C64.6944 2.63269 65.2837 2.04334 65.2837 1.31633C65.2837 0.589331 64.6944 -2.0504e-05 63.9676 -2.0504e-05Z" fill="#2774AE"/>
<path id="circle5603" d="M67.1602 0.079729C66.4343 0.0434546 65.8164 0.602666 65.7801 1.32876C65.7438 2.05486 66.3029 2.67289 67.0289 2.70916C67.7549 2.74544 68.3728 2.18622 68.409 1.46013C68.4453 0.734027 67.8862 0.116003 67.1602 0.079729Z" fill="#2774AE"/>
<path id="circle5605" d="M70.3339 0.317529C69.6106 0.245197 68.9657 0.772988 68.8933 1.49638C68.821 2.21978 69.3487 2.86484 70.072 2.93718C70.7952 3.00951 71.4402 2.48172 71.5125 1.75832C71.5848 1.03493 71.0571 0.389861 70.3339 0.317529Z" fill="#2774AE"/>
<path id="circle5607" d="M73.5028 0.714592C72.784 0.606256 72.1136 1.1012 72.0053 1.82009C71.8969 2.53898 72.3918 3.20957 73.1105 3.31791C73.8293 3.42624 74.4997 2.9313 74.608 2.21241C74.7164 1.49352 74.2215 0.822929 73.5028 0.714592Z" fill="#2774AE"/>
<path id="circle5609" d="M76.6479 1.2693C75.9355 1.12522 75.2412 1.5861 75.0971 2.29868C74.9531 3.01127 75.4139 3.70572 76.1263 3.84979C76.8387 3.99386 77.5331 3.53299 77.6771 2.82041C77.8211 2.10782 77.3604 1.41337 76.6479 1.2693Z" fill="#2774AE"/>
<path id="circle5611" d="M79.7615 1.98022C79.0571 1.80077 78.3407 2.22642 78.1613 2.93093C77.9818 3.63544 78.4074 4.35202 79.1118 4.53147C79.8161 4.71091 80.5326 4.28527 80.712 3.58076C80.8914 2.87625 80.4658 2.15966 79.7615 1.98022Z" fill="#2774AE"/>
<path id="circle5613" d="M82.825 2.8424C82.1305 2.62814 81.3937 3.01764 81.1795 3.71235C80.9653 4.40707 81.3547 5.14393 82.0493 5.35818C82.7439 5.57244 83.4806 5.18295 83.6948 4.48823C83.909 3.79352 83.5196 3.05665 82.825 2.8424Z" fill="#2774AE"/>
<path id="circle5615" d="M85.8524 3.85968C85.1694 3.61103 84.4142 3.96327 84.1656 4.64643C83.917 5.32959 84.2692 6.08497 84.9522 6.33362C85.6352 6.58227 86.3904 6.23003 86.639 5.54687C86.8876 4.86371 86.5355 4.10833 85.8524 3.85968Z" fill="#2774AE"/>
<path id="circle5617" d="M88.8253 5.02677C88.1555 4.74434 87.3837 5.05845 87.1013 5.72836C86.8189 6.39826 87.133 7.17027 87.8027 7.4527C88.4725 7.73513 89.2444 7.42102 89.5267 6.75112C89.8091 6.08121 89.4951 5.3092 88.8253 5.02677Z" fill="#2774AE"/>
<path id="circle5619" d="M91.7262 6.33592C91.0713 6.02053 90.2848 6.29587 89.9695 6.9509C89.6541 7.60593 89.9294 8.39261 90.5843 8.708C91.2392 9.02338 92.0257 8.74805 92.3411 8.09301C92.6564 7.43798 92.3811 6.65131 91.7262 6.33592Z" fill="#2774AE"/>
<path id="circle5621" d="M94.5682 7.79302C93.9299 7.44534 93.1306 7.68109 92.783 8.31957C92.4354 8.95804 92.6711 9.75748 93.3094 10.1052C93.9478 10.4528 94.7471 10.2171 95.0947 9.57861C95.4423 8.94013 95.2066 8.1407 94.5682 7.79302Z" fill="#2774AE"/>
<path id="circle5623" d="M97.334 9.3902C96.7138 9.0111 95.9038 9.20666 95.5247 9.827C95.1457 10.4473 95.3412 11.2575 95.9614 11.6366C96.5817 12.0157 97.3917 11.8202 97.7707 11.1998C98.1498 10.5795 97.9542 9.7693 97.334 9.3902Z" fill="#2774AE"/>
<path id="circle5625" d="M100.017 11.1234C99.4162 10.7139 98.5974 10.8688 98.1879 11.4694C97.7784 12.07 97.9333 12.889 98.5338 13.2986C99.1343 13.7082 99.9531 13.5533 100.363 12.9526C100.772 12.352 100.617 11.533 100.017 11.1234Z" fill="#2774AE"/>
<path id="circle5627" d="M102.601 12.9816C102.021 12.5427 101.196 12.6567 100.757 13.2362C100.318 13.8157 100.432 14.6414 101.011 15.0803C101.591 15.5193 102.416 15.4053 102.855 14.8257C103.294 14.2462 103.18 13.4206 102.601 12.9816Z" fill="#2774AE"/>
<path id="circle5629" d="M105.098 14.9731C104.541 14.5058 103.711 14.5785 103.244 15.1354C102.776 15.6923 102.849 16.5226 103.406 16.9899C103.963 17.4572 104.793 17.3846 105.26 16.8277C105.727 16.2708 105.654 15.4405 105.098 14.9731Z" fill="#2774AE"/>
<path id="circle5631" d="M107.492 17.0869C106.959 16.5923 106.127 16.6235 105.632 17.1564C105.138 17.6893 105.169 18.5222 105.702 19.0167C106.235 19.5112 107.067 19.4801 107.562 18.9472C108.056 18.4143 108.025 17.5814 107.492 17.0869Z" fill="#2774AE"/>
<path id="circle5633" d="M109.77 19.3094C109.263 18.789 108.43 18.7787 107.909 19.2864C107.389 19.794 107.379 20.6274 107.886 21.1478C108.394 21.6682 109.227 21.6785 109.747 21.1709C110.268 20.6632 110.278 19.8298 109.77 19.3094Z" fill="#2774AE"/>
<path id="circle5635" d="M111.943 21.6509C111.462 21.1058 110.63 21.0539 110.085 21.535C109.54 22.0161 109.488 22.8479 109.969 23.393C110.45 23.9381 111.282 23.99 111.827 23.5089C112.372 23.0278 112.424 22.196 111.943 21.6509Z" fill="#2774AE"/>
<path id="circle5637" d="M113.996 24.0979C113.542 23.5295 112.714 23.4361 112.146 23.8894C111.578 24.3427 111.485 25.1709 111.938 25.7393C112.391 26.3077 113.219 26.4011 113.787 25.9478C114.356 25.4945 114.449 24.6663 113.996 24.0979Z" fill="#2774AE"/>
<path id="circle5639" d="M115.924 26.6443C115.5 26.054 114.677 25.9194 114.087 26.3438C113.497 26.7681 113.362 27.5906 113.787 28.1809C114.211 28.7713 115.033 28.9058 115.623 28.4815C116.214 28.0571 116.348 27.2346 115.924 26.6443Z" fill="#2774AE"/>
<path id="circle5641" d="M117.717 29.2744C117.322 28.6637 116.508 28.4884 115.897 28.8829C115.286 29.2773 115.111 30.0922 115.506 30.7029C115.9 31.3135 116.715 31.4888 117.325 31.0944C117.936 30.6999 118.111 29.8851 117.717 29.2744Z" fill="#2774AE"/>
<path id="circle5643" d="M119.382 32C119.019 31.3704 118.214 31.1547 117.584 31.5182C116.955 31.8817 116.739 32.6868 117.102 33.3164C117.466 33.946 118.271 34.1617 118.9 33.7982C119.53 33.4347 119.745 32.6296 119.382 32Z" fill="#2774AE"/>
<path id="circle5645" d="M120.909 34.8054C120.578 34.1584 119.785 33.9028 119.138 34.2344C118.491 34.5661 118.235 35.3594 118.567 36.0063C118.899 36.6533 119.692 36.9089 120.339 36.5773C120.985 36.2456 121.241 35.4523 120.909 34.8054Z" fill="#2774AE"/>
<path id="circle5647" d="M122.29 37.6733C121.991 37.0106 121.212 36.7159 120.549 37.0149C119.887 37.314 119.592 38.0936 119.891 38.7562C120.19 39.4189 120.969 39.7136 121.632 39.4146C122.294 39.1155 122.589 38.3359 122.29 37.6733Z" fill="#2774AE"/>
<path id="circle5649" d="M123.531 40.6167C123.265 39.9399 122.502 39.6067 121.825 39.8723C121.148 40.1379 120.815 40.9018 121.081 41.5786C121.346 42.2553 122.11 42.5886 122.787 42.323C123.463 42.0574 123.796 41.2934 123.531 40.6167Z" fill="#2774AE"/>
<path id="circle5651" d="M124.623 43.6184C124.392 42.9292 123.645 42.5582 122.956 42.7898C122.267 43.0213 121.897 43.7676 122.128 44.4568C122.36 45.1459 123.106 45.5169 123.795 45.2854C124.484 45.0539 124.855 44.3075 124.623 43.6184Z" fill="#2774AE"/>
<path id="circle5653" d="M125.564 46.6708C125.368 45.971 124.641 45.5632 123.941 45.7601C123.241 45.9569 122.834 46.6838 123.031 47.3837C123.227 48.0835 123.954 48.4913 124.654 48.2944C125.354 48.0976 125.761 47.3707 125.564 46.6708Z" fill="#2774AE"/>
<path id="circle5655" d="M126.35 49.7555C126.188 49.0468 125.482 48.6034 124.774 48.7652C124.065 48.927 123.622 49.6327 123.783 50.3415C123.945 51.0503 124.651 51.4937 125.359 51.3319C126.068 51.1701 126.511 50.4643 126.35 49.7555Z" fill="#2774AE"/>
<path id="circle5657" d="M126.983 52.8865C126.856 52.1705 126.174 51.6925 125.458 51.8187C124.742 51.945 124.264 52.6277 124.39 53.3437C124.517 54.0596 125.199 54.5377 125.915 54.4114C126.631 54.2852 127.109 53.6025 126.983 52.8865Z" fill="#2774AE"/>
<path id="circle5659" d="M127.458 56.0452C127.368 55.3238 126.71 54.8123 125.989 54.9027C125.268 54.993 124.756 55.6511 124.847 56.3724C124.937 57.0938 125.595 57.6053 126.316 57.515C127.037 57.4246 127.549 56.7666 127.458 56.0452Z" fill="#2774AE"/>
<path id="circle5661" d="M127.775 59.2125C127.721 58.4875 127.089 57.9439 126.365 57.9983C125.64 58.0527 125.096 58.6845 125.151 59.4094C125.205 60.1344 125.837 60.678 126.561 60.6236C127.286 60.5693 127.83 59.9375 127.775 59.2125Z" fill="#2774AE"/>
<path id="circle5663" d="M127.935 62.4028C127.917 61.6761 127.313 61.1016 126.586 61.1197C125.86 61.1379 125.285 61.7418 125.303 62.4685C125.321 63.1953 125.925 63.7698 126.652 63.7516C127.378 63.7335 127.953 63.1296 127.935 62.4028Z" fill="#2774AE"/>
<path id="circle5665" d="M127.935 65.5972C127.953 64.8704 127.378 64.2665 126.652 64.2484C125.925 64.2302 125.321 64.8047 125.303 65.5315C125.285 66.2582 125.86 66.8621 126.586 66.8803C127.313 66.8984 127.917 66.3239 127.935 65.5972Z" fill="#2774AE"/>
<path id="circle5667" d="M127.775 68.7875C127.83 68.0625 127.286 67.4307 126.561 67.3764C125.837 67.322 125.205 67.8656 125.151 68.5906C125.096 69.3155 125.64 69.9473 126.364 70.0017C127.089 70.0561 127.721 69.5125 127.775 68.7875Z" fill="#2774AE"/>
<path id="circle5669" d="M127.458 71.9548C127.549 71.2335 127.037 70.5754 126.316 70.4851C125.595 70.3947 124.937 70.9062 124.847 71.6276C124.756 72.349 125.268 73.007 125.989 73.0974C126.71 73.1877 127.368 72.6762 127.458 71.9548Z" fill="#2774AE"/>
<path id="circle5671" d="M126.983 75.1135C127.109 74.3975 126.631 73.7148 125.915 73.5885C125.199 73.4623 124.517 73.9404 124.39 74.6563C124.264 75.3723 124.742 76.055 125.458 76.1813C126.174 76.3075 126.856 75.8294 126.983 75.1135Z" fill="#2774AE"/>
<path id="circle5673" d="M126.35 78.2445C126.511 77.5357 126.068 76.83 125.359 76.6682C124.651 76.5063 123.945 76.9497 123.783 77.6585C123.622 78.3673 124.065 79.073 124.774 79.2348C125.482 79.3966 126.188 78.9532 126.35 78.2445Z" fill="#2774AE"/>
<path id="circle5675" d="M125.564 81.3292C125.761 80.6294 125.353 79.9025 124.654 79.7056C123.954 79.5088 123.227 79.9165 123.03 80.6164C122.834 81.3162 123.241 82.0431 123.941 82.24C124.641 82.4368 125.368 82.0291 125.564 81.3292Z" fill="#2774AE"/>
<path id="circle5677" d="M124.623 84.3816C124.855 83.6925 124.484 82.9461 123.795 82.7146C123.106 82.4831 122.36 82.8541 122.128 83.5432C121.897 84.2324 122.267 84.9787 122.956 85.2102C123.646 85.4417 124.392 85.0708 124.623 84.3816Z" fill="#2774AE"/>
<path id="circle5679" d="M123.531 87.3833C123.796 86.7066 123.463 85.9426 122.787 85.677C122.11 85.4114 121.346 85.7447 121.081 86.4214C120.815 87.0982 121.148 87.8621 121.825 88.1277C122.502 88.3933 123.265 88.0601 123.531 87.3833Z" fill="#2774AE"/>
<path id="circle5681" d="M122.29 90.3268C122.589 89.6641 122.294 88.8845 121.632 88.5854C120.969 88.2864 120.19 88.5811 119.891 89.2438C119.592 89.9064 119.887 90.686 120.549 90.9851C121.212 91.2842 121.991 90.9894 122.29 90.3268Z" fill="#2774AE"/>
<path id="circle5683" d="M120.909 93.1946C121.241 92.5477 120.985 91.7544 120.338 91.4227C119.692 91.0911 118.899 91.3467 118.567 91.9937C118.235 92.6406 118.491 93.4339 119.138 93.7656C119.785 94.0972 120.578 93.8416 120.909 93.1946Z" fill="#2774AE"/>
<path id="circle5685" d="M119.382 96C119.745 95.3704 119.53 94.5653 118.9 94.2018C118.271 93.8383 117.466 94.0541 117.102 94.6837C116.739 95.3133 116.955 96.1183 117.584 96.4818C118.214 96.8453 119.019 96.6296 119.382 96Z" fill="#2774AE"/>
<path id="circle5687" d="M117.717 98.7256C118.111 98.115 117.936 97.3001 117.325 96.9057C116.715 96.5112 115.9 96.6865 115.506 97.2972C115.111 97.9079 115.286 98.7227 115.897 99.1171C116.508 99.5116 117.322 99.3363 117.717 98.7256Z" fill="#2774AE"/>
<path id="circle5689" d="M115.924 101.356C116.348 100.765 116.214 99.9429 115.623 99.5185C115.033 99.0942 114.211 99.2287 113.787 99.8191C113.362 100.409 113.497 101.232 114.087 101.656C114.677 102.081 115.5 101.946 115.924 101.356Z" fill="#2774AE"/>
<path id="circle5691" d="M113.996 103.902C114.449 103.334 114.355 102.505 113.787 102.052C113.219 101.599 112.391 101.692 111.938 102.261C111.485 102.829 111.578 103.657 112.146 104.111C112.714 104.564 113.542 104.47 113.996 103.902Z" fill="#2774AE"/>
<path id="circle5693" d="M111.943 106.349C112.424 105.804 112.372 104.972 111.827 104.491C111.282 104.01 110.45 104.062 109.969 104.607C109.488 105.152 109.54 105.984 110.085 106.465C110.63 106.946 111.462 106.894 111.943 106.349Z" fill="#2774AE"/>
<path id="circle5695" d="M109.77 108.691C110.278 108.17 110.268 107.337 109.747 106.829C109.227 106.321 108.394 106.332 107.886 106.852C107.379 107.373 107.389 108.206 107.909 108.714C108.43 109.221 109.263 109.211 109.77 108.691Z" fill="#2774AE"/>
<path id="circle5697" d="M107.492 110.913C108.025 110.419 108.056 109.586 107.562 109.053C107.067 108.52 106.235 108.489 105.702 108.983C105.169 109.478 105.138 110.311 105.632 110.844C106.127 111.377 106.959 111.408 107.492 110.913Z" fill="#2774AE"/>
<path id="circle5699" d="M105.098 113.027C105.654 112.56 105.727 111.729 105.26 111.172C104.793 110.615 103.963 110.543 103.406 111.01C102.849 111.477 102.776 112.308 103.243 112.865C103.711 113.421 104.541 113.494 105.098 113.027Z" fill="#2774AE"/>
<path id="circle5701" d="M102.601 115.018C103.18 114.579 103.294 113.754 102.855 113.174C102.416 112.595 101.591 112.481 101.011 112.92C100.432 113.359 100.318 114.184 100.757 114.764C101.196 115.343 102.021 115.457 102.601 115.018Z" fill="#2774AE"/>
<path id="circle5703" d="M100.017 116.877C100.617 116.467 100.772 115.648 100.363 115.047C99.9531 114.447 99.1343 114.292 98.5338 114.701C97.9333 115.111 97.7784 115.93 98.1879 116.531C98.5974 117.131 99.4162 117.286 100.017 116.877Z" fill="#2774AE"/>
<path id="circle5705" d="M97.3341 118.61C97.9543 118.231 98.1498 117.42 97.7708 116.8C97.3917 116.18 96.5817 115.984 95.9615 116.363C95.3413 116.742 95.1458 117.553 95.5248 118.173C95.9038 118.793 96.7138 118.989 97.3341 118.61Z" fill="#2774AE"/>
<path id="circle5707" d="M94.5682 120.207C95.2066 119.859 95.4423 119.06 95.0947 118.421C94.7471 117.783 93.9478 117.547 93.3095 117.895C92.6711 118.242 92.4354 119.042 92.783 119.68C93.1306 120.319 93.9299 120.555 94.5682 120.207Z" fill="#2774AE"/>
<path id="circle5709" d="M91.7262 121.664C92.3811 121.349 92.6564 120.562 92.3411 119.907C92.0258 119.252 91.2392 118.977 90.5844 119.292C89.9295 119.607 89.6542 120.394 89.9695 121.049C90.2848 121.704 91.0713 121.979 91.7262 121.664Z" fill="#2774AE"/>
<path id="circle5711" d="M88.8253 122.973C89.4951 122.691 89.8091 121.919 89.5268 121.249C89.2444 120.579 88.4725 120.265 87.8028 120.547C87.133 120.83 86.819 121.602 87.1013 122.272C87.3837 122.942 88.1556 123.256 88.8253 122.973Z" fill="#2774AE"/>
<path id="circle5713" d="M85.8524 124.14C86.5355 123.892 86.8876 123.136 86.639 122.453C86.3904 121.77 85.6352 121.418 84.9522 121.666C84.2692 121.915 83.917 122.67 84.1656 123.354C84.4142 124.037 85.1694 124.389 85.8524 124.14Z" fill="#2774AE"/>
<path id="circle5715" d="M82.825 125.158C83.5196 124.943 83.909 124.206 83.6948 123.512C83.4806 122.817 82.7439 122.428 82.0493 122.642C81.3548 122.856 80.9653 123.593 81.1795 124.288C81.3938 124.982 82.1305 125.372 82.825 125.158Z" fill="#2774AE"/>
<path id="circle5717" d="M79.7615 126.02C80.4658 125.84 80.8914 125.124 80.712 124.419C80.5326 123.715 79.8161 123.289 79.1118 123.469C78.4074 123.648 77.9818 124.365 78.1612 125.069C78.3407 125.774 79.0571 126.199 79.7615 126.02Z" fill="#2774AE"/>
<path id="circle5719" d="M76.6479 126.731C77.3603 126.587 77.8211 125.892 77.6771 125.18C77.533 124.467 76.8387 124.006 76.1263 124.15C75.4139 124.294 74.9531 124.989 75.0971 125.701C75.2412 126.414 75.9355 126.875 76.6479 126.731Z" fill="#2774AE"/>
<path id="circle5721" d="M73.5028 127.285C74.2215 127.177 74.7163 126.506 74.608 125.788C74.4997 125.069 73.8293 124.574 73.1105 124.682C72.3918 124.79 71.8969 125.461 72.0052 126.18C72.1135 126.899 72.784 127.394 73.5028 127.285Z" fill="#2774AE"/>
<path id="circle5723" d="M70.3338 127.682C71.0571 127.61 71.5848 126.965 71.5125 126.242C71.4401 125.518 70.7952 124.99 70.072 125.063C69.3487 125.135 68.821 125.78 68.8933 126.504C68.9657 127.227 69.6106 127.755 70.3338 127.682Z" fill="#2774AE"/>
<path id="circle5725" d="M67.1602 127.92C67.8862 127.884 68.4453 127.266 68.409 126.54C68.3728 125.814 67.7549 125.255 67.0289 125.291C66.3029 125.327 65.7438 125.945 65.7801 126.671C65.8164 127.397 66.4343 127.957 67.1602 127.92Z" fill="#2774AE"/>
<g id="path5727">
<path d="M54.5669 24.5093L43.9128 24.8227Z" fill="black"/>
<path d="M54.5669 24.5093L43.9128 24.8227" stroke="#2774AE"/>
</g>
<g id="path5729">
<path d="M55.8203 25.763L32.632 32.6582Z" fill="black"/>
<path d="M55.8203 25.763L32.632 32.6582" stroke="#2774AE"/>
</g>
<g id="path5731">
<path d="M57.0737 27.0167L23.8581 49.5828Z" fill="black"/>
<path d="M57.0737 27.0167L23.8581 49.5828" stroke="#2774AE"/>
</g>
<g id="path5733">
<path d="M57.7004 28.8972L20.0978 63.0597Z" fill="black"/>
<path d="M57.7004 28.8972L20.0978 63.0597" stroke="#2774AE"/>
</g>
<g id="path5735">
<path d="M57.7005 31.7179L21.978 72.1489Z" fill="black"/>
<path d="M57.7005 31.7179L21.978 72.1489" stroke="#2774AE"/>
</g>
<g id="path5737">
<path d="M58.9539 33.285L24.7982 82.8051Z" fill="black"/>
<path d="M58.9539 33.285L24.7982 82.8051" stroke="#2774AE"/>
</g>
<g id="path5739">
<path d="M59.5806 35.7924L35.1389 98.476Z" fill="black"/>
<path d="M59.5806 35.7924L35.1389 98.476" stroke="#2774AE"/>
</g>
<g id="path5741">
<path d="M61.7741 33.285L42.0327 102.864Z" fill="black"/>
<path d="M61.7741 33.285L42.0327 102.864" stroke="#2774AE"/>
</g>
<g id="path5743">
<path d="M63.3409 32.3447L49.5532 101.61Z" fill="black"/>
<path d="M63.3409 32.3447L49.5532 101.61" stroke="#2774AE"/>
</g>
<g id="path5745">
<path d="M58.3278 98.476L57.0737 108.192Z" fill="black"/>
<path d="M58.3278 98.476L57.0737 108.192" stroke="#2774AE"/>
</g>
<g id="path5747">
<path d="M72.4282 25.763L84.0223 26.7033Z" fill="black"/>
<path d="M72.4282 25.763L84.0223 26.7033" stroke="#2774AE"/>
</g>
<g id="path5749">
<path d="M71.4881 27.0167L97.8099 37.6729Z" fill="black"/>
<path d="M71.4881 27.0167L97.8099 37.6729" stroke="#2774AE"/>
</g>
<g id="path5751">
<path d="M71.4881 28.8972L105.33 49.5828Z" fill="black"/>
<path d="M71.4881 28.8972L105.33 49.5828" stroke="#2774AE"/>
</g>
<g id="path5753">
<path d="M71.4881 30.7777L107.211 60.239Z" fill="black"/>
<path d="M71.4881 30.7777L107.211 60.239" stroke="#2774AE"/>
</g>
<g id="path5755">
<path d="M70.2347 32.6582L106.584 72.7757Z" fill="black"/>
<path d="M70.2347 32.6582L106.584 72.7757" stroke="#2774AE"/>
</g>
<g id="path5757">
<path d="M72.7415 38.9265L104.704 80.9246Z" fill="black"/>
<path d="M72.7415 38.9265L104.704 80.9246" stroke="#2774AE"/>
</g>
<g id="path5759">
<path d="M79.0086 51.4633L100.317 88.4466Z" fill="black"/>
<path d="M79.0086 51.4633L100.317 88.4466" stroke="#2774AE"/>
</g>
<g id="path5761">
<path d="M67.7278 32.6582L93.4229 97.2223Z" fill="black"/>
<path d="M67.7278 32.6582L93.4229 97.2223" stroke="#2774AE"/>
</g>
<g id="path5763">
<path d="M64.9076 32.3447L83.7089 100.67Z" fill="black"/>
<path d="M64.9076 32.3447L83.7089 100.67" stroke="#2774AE"/>
</g>
<g id="path5765">
<path d="M73.6815 98.476L73.9951 106.311Z" fill="black"/>
<path d="M73.6815 98.476L73.9951 106.311" stroke="#2774AE"/>
</g>
<g id="path5767">
<path d="M65.221 98.476L65.5345 108.505Z" fill="black"/>
<path d="M65.221 98.476L65.5345 108.505" stroke="#2774AE"/>
</g>
<path id="path5769" d="M31.3786 81.5514C29.4985 83.4319 27.9317 84.0588 27.9317 87.1929C27.9317 90.3271 31.3786 90.3271 32.0053 90.3271C32.6321 90.3271 35.1389 89.7003 35.1389 93.1479C35.1389 96.5955 40.1526 97.5357 40.1526 100.983C40.4659 102.864 40.7793 97.8492 39.5259 96.5955C40.1526 95.9687 39.8392 95.9687 40.4659 94.715C41.0926 95.3418 45.4796 99.1028 46.1063 99.1028C47.9865 99.1028 47.0464 95.0284 44.8529 97.2223C43.9128 96.2821 43.9128 94.4016 42.6594 94.4016C41.406 94.4016 41.406 93.1479 41.406 91.8942C41.406 90.6405 41.406 86.5661 32.6321 86.5661C30.7519 86.5661 30.7519 86.5661 30.7519 85.3124C30.7519 84.0588 31.3786 82.8051 31.3786 82.1783V81.5514Z" fill="white" stroke="#2774AE"/>
<path id="path5771" d="M34.1989 35.479H60.2073C62.0874 35.479 63.3409 37.9863 63.9676 38.6131C64.5943 37.9863 65.8477 35.479 67.7278 35.479H93.7363V91.2674H66.4744C66.4744 92.5211 61.4607 92.5211 61.4607 91.2674H34.1989V35.479Z" fill="white" stroke="#2774AE"/>
<path id="path5773" d="M41.7194 35.479V86.8796H60.2073C62.0874 86.8796 63.3409 89.3869 63.9676 90.0137C64.5943 89.3869 65.8477 86.8796 67.7278 86.8796H86.2158V35.479" stroke="#2774AE"/>
<path id="path5775" d="M39.8392 35.479V87.9765H60.2073C62.0874 87.9765 63.3409 90.4839 63.9676 91.1107C64.5943 90.4839 65.8477 87.9765 67.7278 87.9765H88.0959V35.479" stroke="#2774AE"/>
<path id="path5777" d="M37.9591 35.479V89.0735H60.2073C62.0874 89.0735 63.3409 90.6406 63.9676 91.2674C64.5943 90.6406 65.8477 89.0735 67.7278 89.0735H89.976V35.479" stroke="#2774AE"/>
<path id="path5779" d="M36.079 35.479V90.1704H60.2073C62.0874 90.1704 63.3409 90.6406 63.9676 91.2674C64.5943 90.6406 65.8477 90.1704 67.7278 90.1704H91.8561V35.479" stroke="#2774AE"/>
<g id="path5781">
<path d="M63.9675 38.6131V90.0137Z" fill="black"/>
<path d="M63.9675 38.6131V90.0137" stroke="#2774AE"/>
</g>
<path id="path5783" d="M61.4607 91.2674C61.4607 87.5064 66.4744 87.5064 66.4744 91.2674C66.4744 92.5211 61.4607 92.5211 61.4607 91.2674Z" fill="white" stroke="#2774AE"/>
<path id="path5785" d="M67.7278 38.0803H69.6079H67.7278ZM71.4881 38.0803H72.7415H71.4881ZM73.3682 38.0803H75.2483H73.3682ZM77.1284 38.0803H81.5154H77.1284ZM82.1421 38.0803H84.649H82.1421ZM67.7278 40.0862H68.3545H67.7278ZM68.9812 40.0862H77.1284H68.9812ZM79.0086 40.0862H84.649H79.0086ZM67.7278 42.0921H70.2346H67.7278ZM70.8613 42.0921H72.7415H70.8613ZM74.6216 42.0921H79.0086H74.6216ZM79.6353 42.0921H82.1421H79.6353ZM82.7688 42.0921H84.649H82.7688ZM67.7278 44.098H84.649H67.7278ZM67.7278 46.1038H68.3545H67.7278ZM68.9812 46.1038H74.6216H68.9812ZM75.2483 46.1038H78.3819H75.2483ZM79.0086 46.1038H84.649H79.0086ZM67.7278 48.1097H70.8613H67.7278ZM71.4881 48.1097H75.875H71.4881ZM76.5017 48.1097H80.8887H76.5017ZM82.7688 48.1097H84.649H82.7688ZM67.7278 50.1156H68.3545H67.7278ZM70.2346 50.1156H73.3682H70.2346ZM73.9949 50.1156H75.875H73.9949ZM77.7552 50.1156H82.1421H77.7552ZM82.7688 50.1156H84.649H82.7688ZM67.7278 52.1215H70.2346H67.7278ZM72.1148 52.1215H75.875H72.1148ZM76.5017 52.1215H79.0086H76.5017ZM80.8887 52.1215H84.649H80.8887ZM67.7278 54.1273H68.3545H67.7278ZM68.9812 54.1273H74.6216H68.9812ZM75.2483 54.1273H78.3819H75.2483ZM79.0086 54.1273H84.649H79.0086ZM67.7278 56.1332H68.9812H67.7278ZM69.6079 56.1332H71.4881H69.6079ZM73.3682 56.1332H73.9949H73.3682ZM74.6216 56.1332H76.5017H74.6216ZM78.3819 56.1332H79.0086H78.3819ZM79.6353 56.1332H81.5154H79.6353ZM83.3955 56.1332H84.649H83.3955ZM67.7278 58.1391H68.9812H67.7278ZM69.6079 58.1391H72.7415H69.6079ZM73.3682 58.1391H75.2483H73.3682ZM77.1284 58.1391H80.8887H77.1284ZM81.5154 58.1391H84.649H81.5154ZM67.7278 60.145H73.9949H67.7278ZM74.6216 60.145H84.649H74.6216ZM67.7278 62.1508H68.9812H67.7278ZM69.6079 62.1508H77.1284H69.6079ZM79.0086 62.1508H84.649H79.0086ZM67.7278 64.1567H70.2346H67.7278ZM70.8613 64.1567H73.9949H70.8613ZM75.875 64.1567H80.262H75.875ZM80.8887 64.1567H84.649H80.8887ZM67.7278 66.1626H84.649H67.7278ZM67.7278 68.1685H73.3682H67.7278ZM75.2483 68.1685H84.649H75.2483ZM67.7278 70.1743H69.6079H67.7278ZM70.2346 70.1743H71.4881H70.2346ZM72.1148 70.1743H75.875H72.1148ZM76.5017 70.1743H79.0086H76.5017ZM79.6353 70.1743H84.649H79.6353ZM67.7278 72.1802H73.9949H67.7278ZM74.6216 72.1802H84.649H74.6216ZM67.7278 74.1861H84.649H67.7278ZM67.7278 76.192H73.3682H67.7278ZM75.2483 76.192H84.649H75.2483ZM67.7278 78.1979H68.6679H67.7278ZM69.2946 78.1979H81.3274H69.2946ZM83.2075 78.1979H83.5836H83.2075ZM84.2103 78.1979H84.649H84.2103ZM67.7278 80.2037H68.0412H67.7278ZM68.6679 80.2037H84.649H68.6679ZM67.7278 82.2096H68.4799H67.7278ZM69.1066 82.2096H84.649H69.1066ZM67.7278 84.2155H84.649H67.7278ZM43.2861 38.0803H45.1662H43.2861ZM47.0464 38.0803H49.5532H47.0464ZM50.1799 38.0803H53.3135H50.1799ZM53.9402 38.0803H57.0737H53.9402ZM57.7004 38.0803H60.2073H57.7004ZM43.2861 40.0862H54.5669H43.2861ZM55.1936 40.0862H60.2073H55.1936ZM43.2861 42.0921H52.6868H43.2861ZM53.3135 42.0921H56.447H53.3135ZM58.3272 42.0921H60.2073H58.3272ZM43.2861 44.098H54.5669H43.2861ZM56.447 44.098H60.2073H56.447ZM43.2861 46.1038H60.2073H43.2861ZM43.2234 48.1097H45.1036H43.2234ZM46.9837 48.1097H49.4905H46.9837ZM50.1173 48.1097H52.6241H50.1173ZM54.5042 48.1097H58.8912H54.5042ZM59.5179 48.1097H60.1446H59.5179ZM43.2234 50.1156H46.357H43.2234ZM46.9837 50.1156H56.3844H46.9837ZM58.2645 50.1156H60.1446H58.2645ZM43.2234 52.1215H45.7303H43.2234ZM46.357 52.1215H48.2371H46.357ZM50.1173 52.1215H54.5042H50.1173ZM55.1309 52.1215H58.2645H55.1309ZM58.8912 52.1215H60.1446H58.8912ZM43.2234 54.1273H44.4769H43.2234ZM45.1036 54.1273H46.9837H45.1036ZM48.8638 54.1273H49.8039H48.8638ZM50.4306 54.1273H52.3107H50.4306ZM54.1909 54.1273H54.8176H54.1909ZM55.4443 54.1273H57.9511H55.4443ZM59.8313 54.1273H60.1446H59.8313ZM43.2234 56.1332H60.1446H43.2234ZM43.2234 58.1391H46.9837H43.2234ZM48.8638 58.1391H53.8775H48.8638ZM55.7576 58.1391H58.8912H55.7576ZM59.5179 58.1391H60.1446H59.5179ZM43.2234 60.145H44.4769H43.2234ZM46.357 60.145H50.744H46.357ZM52.6241 60.145H56.3844H52.6241ZM58.2645 60.145H60.1446H58.2645ZM43.2234 62.1508H60.1446H43.2234ZM43.2234 64.1567H46.357H43.2234ZM46.9837 64.1567H52.6241H46.9837ZM53.2508 64.1567H58.2645H53.2508ZM58.8912 64.1567H60.1446H58.8912ZM43.2234 66.1626H50.1173H43.2234ZM51.9974 66.1626H60.1446H51.9974ZM43.2234 68.1685H49.4905H43.2234ZM50.1173 68.1685H55.1309H50.1173ZM57.0111 68.1685H60.1446H57.0111ZM43.2234 70.1743H46.357H43.2234ZM48.2371 70.1743H58.8912H48.2371ZM59.5179 70.1743H60.1446H59.5179ZM43.2234 72.1802H44.4769H43.2234ZM45.1036 72.1802H48.2371H45.1036ZM48.8638 72.1802H50.744H48.8638ZM52.6241 72.1802H57.6378H52.6241ZM58.2645 72.1802H60.1446H58.2645ZM43.2234 74.1861H45.1036H43.2234ZM46.9837 74.1861H51.9974H46.9837ZM53.8775 74.1861H57.0111H53.8775ZM58.8912 74.1861H60.1446H58.8912ZM43.2234 76.192H47.6104H43.2234ZM48.2371 76.192H51.3707H48.2371ZM53.2508 76.192H57.6378H53.2508ZM58.2645 76.192H60.1446H58.2645ZM43.2234 78.1979H48.8638H43.2234ZM50.744 78.1979H53.8775H50.744ZM54.5042 78.1979H58.8912H54.5042ZM59.5179 78.1979H60.1446H59.5179ZM43.2234 80.2037H49.1772H43.2234ZM49.8039 80.2037H50.4306H49.8039ZM52.3107 80.2037H52.9374H52.3107ZM53.5642 80.2037H54.1909H53.5642ZM56.071 80.2037H56.6977H56.071ZM57.3244 80.2037H57.9511H57.3244ZM59.8313 80.2037H60.1446H59.8313ZM43.2234 82.2096H60.1446H43.2234ZM43.2234 84.2155H60.1446H43.2234ZM59.8313 38.0803H60.1446C62.0247 38.0803 63.2782 40.5877 63.9049 41.2145C64.5316 40.5877 65.785 38.0803 67.6651 38.0803H67.9785H59.8313ZM59.8313 40.0862H60.1446C62.0247 40.0862 63.2782 42.5935 63.9049 43.2204C64.5316 42.5935 65.785 40.0862 67.6651 40.0862H67.9785H59.8313ZM59.8313 42.0921H60.1446C62.0247 42.0921 63.2782 44.5994 63.9049 45.2263C64.5316 44.5994 65.785 42.0921 67.6651 42.0921H67.9785H59.8313ZM59.8313 44.098H60.1446C62.0247 44.098 63.2782 46.6053 63.9049 47.2321C64.5316 46.6053 65.785 44.098 67.6651 44.098H67.9785H59.8313ZM59.8313 46.1038H60.1446C62.0247 46.1038 63.2782 48.6112 63.9049 49.238C64.5316 48.6112 65.785 46.1038 67.6651 46.1038H67.9785H59.8313ZM59.8313 48.1097H60.1446C62.0247 48.1097 63.2782 50.6171 63.9049 51.2439C64.5316 50.6171 65.785 48.1097 67.6651 48.1097H67.9785H59.8313ZM59.8313 50.1156H60.1446C62.0247 50.1156 63.2782 52.6229 63.9049 53.2498C64.5316 52.6229 65.785 50.1156 67.6651 50.1156H67.9785H59.8313ZM59.8313 52.1215H60.1446C62.0247 52.1215 63.2782 54.6288 63.9049 55.2556C64.5316 54.6288 65.785 52.1215 67.6651 52.1215H67.9785H59.8313ZM59.8313 54.1273H60.1446C62.0247 54.1273 63.2782 56.6347 63.9049 57.2615C64.5316 56.6347 65.785 54.1273 67.6651 54.1273H67.9785H59.8313ZM59.8313 56.1332H60.1446C62.0247 56.1332 63.2782 58.6406 63.9049 59.2674C64.5316 58.6406 65.785 56.1332 67.6651 56.1332H67.9785H59.8313ZM59.8313 58.1391H60.1446C62.0247 58.1391 63.2782 60.6464 63.9049 61.2733C64.5316 60.6464 65.785 58.1391 67.6651 58.1391H67.9785H59.8313ZM59.8313 60.145H60.1446C62.0247 60.145 63.2782 62.6523 63.9049 63.2791C64.5316 62.6523 65.785 60.145 67.6651 60.145H67.9785H59.8313ZM59.8313 62.1508H60.1446C62.0247 62.1508 63.2782 64.6582 63.9049 65.285C64.5316 64.6582 65.785 62.1508 67.6651 62.1508H67.9785H59.8313ZM59.8313 64.1567H60.1446C62.0247 64.1567 63.2782 66.6641 63.9049 67.2909C64.5316 66.6641 65.785 64.1567 67.6651 64.1567H67.9785H59.8313ZM59.8313 66.1626H60.1446C62.0247 66.1626 63.2782 68.6699 63.9049 69.2968C64.5316 68.6699 65.785 66.1626 67.6651 66.1626H67.9785H59.8313ZM59.8313 68.1685H60.1446C62.0247 68.1685 63.2782 70.6758 63.9049 71.3027C64.5316 70.6758 65.785 68.1685 67.6651 68.1685H67.9785H59.8313ZM59.8313 70.1743H60.1446C62.0247 70.1743 63.2782 72.6817 63.9049 73.3085C64.5316 72.6817 65.785 70.1743 67.6651 70.1743H67.9785H59.8313ZM59.8313 72.1802H60.1446C62.0247 72.1802 63.2782 74.6876 63.9049 75.3144C64.5316 74.6876 65.785 72.1802 67.6651 72.1802H67.9785H59.8313ZM59.8313 74.1861H60.1446C62.0247 74.1861 63.2782 76.6934 63.9049 77.3203C64.5316 76.6934 65.785 74.1861 67.6651 74.1861H67.9785H59.8313ZM59.8313 76.192H60.1446C62.0247 76.192 63.2782 78.6993 63.9049 79.3262C64.5316 78.6993 65.785 76.192 67.6651 76.192H67.9785H59.8313ZM59.8313 78.1979H60.1446C62.0247 78.1979 63.2782 80.7052 63.9049 81.332C64.5316 80.7052 65.785 78.1979 67.6651 78.1979H67.9785H59.8313ZM59.8313 80.2037H60.1446C62.0247 80.2037 63.2782 82.7111 63.9049 83.3379C64.5316 82.7111 65.785 80.2037 67.6651 80.2037H67.9785H59.8313ZM59.8313 82.2096H60.1446C62.0247 82.2096 63.2782 84.717 63.9049 85.3438C64.5316 84.717 65.785 82.2096 67.6651 82.2096H67.9785H59.8313ZM59.8313 84.2155H60.1446C62.0247 84.2155 63.2782 86.7228 63.9049 87.3497C64.5316 86.7228 65.785 84.2155 67.6651 84.2155H67.9785H59.8313Z" stroke="#2774AE"/>
<g id="g5787">
<path id="path5789" d="M43.5995 40.0862V46.1038H49.6159V40.0862H43.5995Z" fill="white" stroke="white" stroke-width="4"/>
<path id="path5791" d="M45.5736 43.3457H47.6418M43.5995 40.0862V46.1038H49.6159V40.0862H43.5995ZM44.5396 45.4143L46.6077 41.2772L48.6758 45.4143H44.5396Z" stroke="#2774AE"/>
</g>
<path id="path5793" d="M77.1285 92.2076C72.7415 89.0734 73.3682 84.6856 77.7552 84.0588L73.3682 82.8051C63.9676 86.5661 67.7278 91.8942 75.8751 92.2076H77.1285Z" fill="white" stroke="#2774AE"/>
<path id="path5795" d="M40.7793 75.9099C43.9128 75.9099 45.1662 77.7904 47.0464 79.6709C48.9265 81.5514 49.2399 81.238 51.4333 82.8051C53.6268 84.3722 54.2535 86.5661 57.0737 90.3271C59.8939 94.0881 65.221 94.715 66.4744 94.715C67.7278 94.715 71.4881 95.0284 72.7415 94.0881C73.9949 93.1479 73.9949 91.2674 76.1884 91.2674C78.3819 91.2674 79.0086 94.4015 79.0086 95.6552C79.0086 96.9089 77.7552 104.431 65.221 104.118C52.6868 103.804 49.5532 95.9686 47.3597 92.8345C45.1662 89.7003 46.1063 82.8051 30.4386 82.8051C30.4386 81.5514 30.7519 80.9246 30.7519 79.6709C30.7519 78.4172 30.7519 77.1636 35.1389 76.5367C39.5259 75.9099 37.6457 75.9099 40.7793 75.9099Z" fill="white" stroke="#2774AE"/>
<path id="path5797" d="M69.9213 81.5514C69.9213 82.8051 70.548 83.4319 70.548 84.0588C70.548 84.6856 72.4282 84.3722 73.0549 84.999C73.6816 85.6258 85.5891 88.76 91.8561 88.76C98.1232 88.76 100.003 86.2527 102.824 79.9843C103.513 78.4172 102.824 76.5367 100.943 74.3428C99.0633 72.1489 97.4965 70.8952 95.9298 70.8952C94.363 70.8952 90.2894 72.1489 89.6627 72.4623C89.036 72.7757 83.3956 74.3428 82.7689 70.2684C82.1422 66.1939 87.4692 65.8805 89.036 67.1342C90.6027 68.3878 92.4829 69.0147 94.363 69.0147C96.2431 69.0147 98.1232 67.4476 99.3767 66.1939C100.63 64.9402 103.45 64.3134 103.45 62.1195C103.45 59.9256 102.197 59.6121 102.197 57.7316C101.57 56.478 102.824 61.1792 100.317 61.8061C97.8099 62.4329 98.1232 63.0597 98.1232 63.0597C97.8099 61.1792 99.3767 58.3585 95.3031 57.1048C97.8099 53.9706 92.1695 53.9706 93.4229 57.1048L94.9897 58.9853C95.3031 59.6121 95.6164 59.6121 95.9298 61.8061C94.9897 62.4329 94.9897 62.7463 94.363 64C93.7363 65.2537 89.976 63.6866 88.0959 64.6268C86.2158 65.5671 86.2158 62.7463 88.4092 62.4329C90.6027 62.1195 89.976 62.4329 90.6027 61.4926C91.2294 60.5524 88.7226 61.4926 88.0959 60.8658C87.4692 60.239 86.2158 61.1792 85.5891 61.4926C84.9623 61.8061 80.8887 64.6268 81.2021 69.0147C81.5154 73.4025 82.1422 77.477 87.4692 77.1636C92.7962 76.8501 94.6763 71.522 97.8099 74.6562C98.75 75.5965 97.8099 80.6112 95.3031 80.6112C79.6353 80.6112 82.7689 77.477 73.3682 77.477C69.608 77.477 69.9213 79.3575 69.9213 80.6112V81.5514Z" fill="white" stroke="#2774AE"/>
<g id="path5799">
<path d="M100.943 74.3428L97.8099 74.6562Z" fill="black"/>
<path d="M100.943 74.3428L97.8099 74.6562" stroke="#2774AE"/>
</g>
<path id="path5801" d="M41.945 106.913C44.6461 98.6327 45.0096 99.8362 46.8521 102.118C47.8047 103.303 49.6786 101.88 49.6222 103.165C49.5344 105.171 47.8298 106.073 47.3409 111.658C44.2889 113.263 42.321 111.984 41.9387 106.913H41.945Z" fill="white" stroke="#2774AE"/>
<path id="path5803" d="M85.1629 112.561C71.1058 115.871 78.7642 112.423 78.338 109.834C76.8151 100.538 77.7865 103.347 81.1457 101.911C82.9004 101.165 84.8307 100.425 85.2569 101.61C88.7539 115.325 88.9983 111.734 85.1566 112.561H85.1629Z" fill="white" stroke="#2774AE"/>
<path id="path5805" d="M42.509 114.78C26.6595 111.188 45.0973 107.578 44.6022 105.478C42.9728 98.5638 45.4483 99.8425 46.8521 101.46C47.8486 102.613 49.6786 101.886 49.6222 103.171C49.5344 105.177 46.3382 103.566 46.6766 105.898C47.3535 113.815 50.6061 117.338 42.509 114.78Z" fill="white" stroke="#2774AE"/>
<path id="path5807" d="M85.94 114.448C71.8829 117.758 83.1386 108.399 79.6102 105.697C75.6306 102.651 78.1751 102.444 81.3023 101.679C83.1511 101.228 84.8307 100.425 85.2569 101.61C85.8335 103.209 83.9721 102.544 83.0759 104.945C82.4367 106.65 101.558 109.414 85.9337 114.448H85.94Z" fill="white" stroke="#2774AE"/>
<path id="path5809" d="M43.1984 115.3C43.2172 113.219 46.7518 109.12 46.4573 108.562C44.6148 105.039 47.554 106.337 50.9508 106.888C53.1192 107.239 60.5395 109.364 64.0114 109.101C64.8888 109.032 67.2014 109.49 70.0843 108.042C75.3047 105.434 75.7121 107.841 78.6075 106.299C81.8727 104.556 81.7536 106.619 81.8351 108.242C81.9416 110.536 81.4841 108.342 82.2174 111.169C82.6122 112.686 85.0375 113.169 84.649 115.789C84.2479 118.541 82.0481 118.986 75.3173 120.359C69.2883 121.587 71.5006 122.051 64.4251 122.089C58.9037 122.12 60.6648 120.503 49.7851 120.371C45.3668 120.321 43.1671 118.616 43.2047 115.307L43.1984 115.3Z" fill="white" stroke="#2774AE"/>
<path id="path5811" d="M108.113 29.4801C109.097 32.1567 110.977 32.5955 112.607 34.8834C114.242 37.1714 116.141 42.4932 116.899 44.9065C118.516 50.0591 120.641 52.93 120.635 57.8444C120.622 63.6427 120.929 70.6758 120.221 72.7506C119.513 74.8254 117.608 79.9404 116.693 85.8202C115.84 91.2924 111.084 95.8182 110.413 96.5892C109.742 97.3602 107.781 102.688 102.636 106.713C100.367 108.487 97.1205 110.674 94.3442 112.693C91.8436 114.51 90.6591 116.253 89.1926 116.046C87.7261 115.839 86.7234 114.053 86.4351 111.796C86.2534 110.386 85.9776 109.345 84.0411 107.045C82.3678 105.058 81.9165 104.443 85.5389 104.023C88.1335 103.723 91.7433 98.5575 93.8616 97.893C95.9799 97.2286 100.267 90.7471 104.252 82.1594C107.148 75.9036 108.815 67.1467 107.173 55.7132C105.625 44.9316 103.519 44.0728 100.097 38.8889C97.3336 34.7016 95.3845 31.6051 91.6368 29.6117C91.0477 29.2983 89.3681 28.8971 87.2624 26.9351C86.0466 25.8006 84.2416 25.086 82.6561 24.1708C81.0705 23.2556 70.2159 19.2564 64.2809 19.0872C59.3863 18.9492 52.2418 19.9835 40.9987 26.0826C37.1695 28.1637 33.4844 31.2728 28.7151 36.6636C26.7473 38.8889 26.1519 41.6345 25.0301 44.0227C24.4096 45.3516 23.2377 46.4172 22.4919 47.5894C19.6592 52.0525 19.0889 60.1387 19.0826 63.7931C19.0638 69.9361 21.345 74.3428 21.4077 77.2826C21.508 81.7771 24.0587 84.8423 27.2173 90.2268C29.0912 93.4237 32.983 97.0656 35.1953 98.5449C37.5329 100.099 38.6736 102.074 41.8447 103.591C47.1153 106.111 43.0167 106.876 42.1518 109.521C41.6755 110.981 41.1679 117.82 37.1256 115.244C35.1577 113.99 31.8487 112.342 28.759 109.797C27.8252 109.026 22.7426 105.791 20.6933 101.422C20.0728 100.099 17.0771 96.9465 14.4575 92.847C12.1073 89.1737 10.8602 85.2936 8.91111 80.5986C6.93698 75.8346 7.07485 68.695 6.61735 63.8119C5.59582 52.8047 9.51275 49.1816 9.51275 48.2789C9.51275 45.1447 12.615 37.6164 13.6616 36.2123C14.7082 34.8019 15.3036 33.1722 18.3744 28.778C19.0763 27.7751 25.0928 22.4783 27.9255 19.7767C32.4441 15.4703 46.238 9.14553 48.9328 9.10792C53.1882 9.04523 55.9394 7.13338 62.4008 6.77609C66.5872 6.54416 76.3764 9.29597 80.9577 10.23C89.2929 11.9287 88.4907 13.8593 95.9674 17.9275C103.45 21.9894 106.565 25.2991 108.113 29.4989V29.4801Z" fill="white" stroke="#2774AE"/>
<g id="g5813">
<path id="polygon5815" d="M61.2048 21.3327L63.9676 15.7336L66.7303 21.3327L72.9081 22.2306L68.4379 26.5889L69.4932 32.743L63.9676 29.8374L58.442 32.743L59.4973 26.5889L55.027 22.2306L61.2048 21.3327Z" fill="white" stroke="#2774AE" stroke-width="0.75"/>
<path id="polygon5817" d="M63.9676 25.1361V15.7336L66.7303 21.3327L63.9676 25.1361Z" fill="#2774AE"/>
<path id="polygon5819" d="M63.9676 25.1361L72.9081 22.2306L70.673 24.4098L63.9676 25.1361Z" fill="#2774AE"/>
<path id="polygon5821" d="M63.9676 25.1361L68.4379 26.5889L69.4932 32.743L63.9676 25.1361Z" fill="#2774AE"/>
<path id="polygon5823" d="M63.9676 25.1361V29.8374L58.442 32.743L63.9676 25.1361Z" fill="#2774AE"/>
<path id="polygon5825" d="M63.9676 25.1361L55.027 22.2306L61.2048 21.3327L63.9676 25.1361Z" fill="#2774AE"/>
</g>
<path id="circle5827" d="M32.2635 105.326C32.8402 105.768 33.6663 105.66 34.1088 105.083C34.5513 104.506 34.4425 103.68 33.8659 103.237C33.2892 102.795 32.463 102.903 32.0206 103.48C31.5781 104.057 31.6868 104.883 32.2635 105.326Z" fill="#2774AE"/>
<path id="circle5829" d="M95.6716 105.326C96.2483 104.883 96.357 104.057 95.9146 103.48C95.4721 102.903 94.6459 102.795 94.0692 103.237C93.4926 103.68 93.3838 104.506 93.8263 105.083C94.2688 105.66 95.095 105.768 95.6716 105.326Z" fill="#2774AE"/>
<path id="circle5831" d="M12.3335 70.7991C12.4284 71.5199 13.0895 72.0273 13.8101 71.9324C14.5308 71.8375 15.0381 71.1763 14.9432 70.4555C14.8483 69.7347 14.1872 69.2273 13.4666 69.3222C12.7459 69.4171 12.2386 70.0783 12.3335 70.7991Z" fill="#2774AE"/>
<path id="circle5833" d="M93.8392 21.3303C93.2438 20.9133 92.4231 21.058 92.0062 21.6536C91.5893 22.2491 91.734 23.0699 92.3294 23.4869C92.9248 23.9039 93.7455 23.7591 94.1624 23.1636C94.5793 22.5681 94.4346 21.7473 93.8392 21.3303Z" fill="#2774AE"/>
<path id="circle5835" d="M67.1469 12.007C66.4214 11.9627 65.7973 12.5149 65.753 13.2406C65.7086 13.9662 66.2608 14.5905 66.9863 14.6348C67.7118 14.6792 68.3359 14.127 68.3802 13.4013C68.4246 12.6757 67.8725 12.0514 67.1469 12.007Z" fill="#2774AE"/>
<g id="g5837">
<path id="polygon5839" d="M21.3637 95.0164L19.8715 96.2606L24.2856 101.557L25.7779 100.313L25.6976 100.217L25.3366 100.273L23.8518 98.4912L28.1361 94.9194L28.4811 95.0397L28.5774 94.9594L27.1328 93.2261L27.0365 93.3063L27.0927 93.6675L22.8085 97.2394L21.3237 95.4579L21.444 95.1127L21.3637 95.0164Z" fill="#2774AE"/>
</g>
<g id="g5841">
<path id="polygon5843" d="M18.2675 93.9682L18.3767 93.9067L18.3859 93.5426L24.3902 90.1577L24.7085 90.3371L24.8177 90.2755L23.7053 88.3192L23.5961 88.3807L23.5869 88.7447L17.5826 92.1297L17.2643 91.9503L17.1551 92.0118L18.2675 93.9682Z" fill="#2774AE"/>
<path id="polygon5845" d="M14.5788 87.42L14.688 87.3585L15.0063 87.5379L21.0106 84.1529L21.0198 83.7889L21.129 83.7273L22.2414 85.6837L22.1322 85.7452L21.814 85.5658L15.8096 88.9508L15.8004 89.3148L15.6912 89.3764L14.5788 87.42Z" fill="#2774AE"/>
<path id="polygon5847" d="M21.9423 91.1757L18.8665 85.7158L17.4543 86.5199L20.53 91.9798L21.9423 91.1757Z" fill="#2774AE"/>
</g>
<g id="g5849">
<path id="polygon5851" d="M15.9969 78.1327L14.466 78.6627L15.3639 81.238L14.1274 81.6661L12.9235 78.2129L13.1567 77.9353L13.1159 77.8183L11.2907 78.4502L13.2291 84.0105L13.3469 83.9697L13.4215 83.6159L19.8981 81.3736L20.1768 81.6051L20.2945 81.5643L18.3561 76.0041L16.5308 76.636L16.5716 76.753L16.9272 76.8267L18.1311 80.2799L16.8947 80.708L15.9969 78.1327Z" fill="#2774AE"/>
</g>
<g id="g5853">
<path id="path5855" d="M9.38034 64.0109L13.1148 64.216C17.0359 64.4314 17.3226 59.2217 13.4015 59.0064L9.66705 58.8013" stroke="#2774AE" stroke-width="2.6"/>
<path id="polygon5857" d="M9.44395 62.9338L9.56503 62.9406L9.73044 63.2635L9.64613 64.8899L9.44829 65.1925L9.32721 65.1857L9.44395 62.9338Z" fill="#2774AE"/>
<path id="polygon5859" d="M9.5752 59.9261L9.69628 59.9329L9.89412 59.6303L9.97843 58.0039L9.81302 57.681L9.69193 57.6742L9.5752 59.9261Z" fill="#2774AE"/>
</g>
<g id="g5861">
<path id="polygon5863" d="M17.2399 56.652L17.3613 56.6822L17.8387 54.8509L10.5499 53.0367L10.0725 54.868L10.194 54.8983L10.4532 54.6482L17.1346 56.3113L17.2399 56.652Z" fill="#2774AE"/>
<path id="polygon5865" d="M19.0194 49.396L19.1408 49.4262L18.6634 51.2575L11.3746 49.4433L11.852 47.612L11.9735 47.6422L12.0787 47.983L18.7601 49.646L19.0194 49.396Z" fill="#2774AE"/>
<path id="polygon5867" d="M18.6618 51.3529L19.0677 49.7977L10.5515 52.9413L10.1456 54.4965L18.6618 51.3529Z" fill="#2774AE"/>
</g>
<g id="g5869">
<path id="polygon5871" d="M12.9241 44.761L13.0401 44.8081L13.3333 44.5925L19.7163 47.1845L19.7713 47.5415L19.8873 47.5886L20.7446 45.5276L20.6286 45.4804L20.3354 45.696L13.9524 43.104L13.8974 42.7471L13.7814 42.6999L12.9241 44.761Z" fill="#2774AE"/>
</g>
<g id="g5873">
<path id="polygon5875" d="M22.5985 41.6442L23.4044 40.2302L18.6517 33.4059L17.8458 34.8199L22.5985 41.6442L23.4044 40.2302L15.1181 39.6056L14.3121 41.0196L22.5985 41.6442Z" fill="#2774AE"/>
</g>
<g id="g5877">
<path id="polygon5879" d="M26.7119 30.687L25.4639 29.6392L23.6909 31.7516L22.6829 30.9053L25.0603 28.0728L25.4212 28.1302L25.5018 28.0342L24.0138 26.7849L20.1857 31.3458L20.2817 31.4264L20.6272 31.3072L25.9072 35.7402L25.8497 36.1011L25.9457 36.1817L29.7738 31.6209L28.2858 30.3716L28.2052 30.4676L28.3243 30.8131L25.9469 33.6457L24.9389 32.7994L26.7119 30.687Z" fill="#2774AE"/>
</g>
<g id="g5881">
<path id="path5883" d="M31.0974 25.3066L35.007 25.8705M31.7391 29.6785L27.4277 24.5413L29.4436 22.8486C32.0834 20.632 33.9772 22.8886 31.3374 25.1051L29.3215 26.7978L31.7391 29.6785Z" stroke="#2774AE" stroke-width="2.6"/>
<path id="circle5885" d="M35.5313 26.4954C35.876 26.2059 35.9209 25.6918 35.6315 25.347C35.3422 25.0023 34.8282 24.9574 34.4834 25.2468C34.1387 25.5363 34.0939 26.0504 34.3832 26.3952C34.6726 26.7399 35.1866 26.7848 35.5313 26.4954Z" fill="#2774AE"/>
<path id="polygon5887" d="M32.6023 28.9532L32.5217 28.8571L32.1608 28.9146L30.9126 29.9622L30.7934 30.3077L30.874 30.4037L32.6023 28.9532Z" fill="#2774AE"/>
</g>
<g id="g5889">
<path id="path5891" d="M37.4842 23.0743C37.4842 23.0743 37.2273 24.243 39.9235 22.6548C42.6196 21.0666 41.1287 18.5293 38.4325 20.1175C35.7363 21.7057 34.2454 19.1684 36.9415 17.5802C39.6377 15.992 39.3808 17.1607 39.3808 17.1607" stroke="#2774AE" stroke-width="2.6"/>
<path id="circle5893" d="M37.8817 23.7734C38.2692 23.5454 38.3986 23.0465 38.1707 22.659C37.9428 22.2715 37.4439 22.1423 37.0564 22.3703C36.6689 22.5984 36.5395 23.0973 36.7674 23.4848C36.9953 23.8722 37.4942 24.0015 37.8817 23.7734Z" fill="#2774AE"/>
<path id="circle5895" d="M39.8093 17.8646C40.1968 17.6365 40.3262 17.1376 40.0983 16.7501C39.8704 16.3627 39.3715 16.2334 38.984 16.4615C38.5965 16.6895 38.4671 17.1885 38.695 17.5759C38.9229 17.9634 39.4218 18.0926 39.8093 17.8646Z" fill="#2774AE"/>
</g>
<g id="g5897">
<path id="polygon5899" d="M41.625 14.2634L41.6745 14.3784L42.0329 14.4254L44.7549 20.7523L44.545 21.0504L44.5945 21.1654L46.6403 20.2617L46.5908 20.1466L46.2325 20.0996L43.5104 13.7727L43.7203 13.4747L43.6708 13.3596L41.625 14.2634Z" fill="#2774AE"/>
</g>
<g id="g5901">
<path id="polygon5903" d="M52.9777 12.4085L52.4242 10.5669L45.8951 12.5452L46.4486 14.3868L46.5673 14.3509L46.6561 13.9999L48.8523 13.3345L50.4413 18.6218L50.1981 18.8899L50.2338 19.0087L52.3706 18.3613L52.3349 18.2425L51.9846 18.1542L50.3955 12.8669L52.5917 12.2014L52.859 12.4445L52.9777 12.4085Z" fill="#2774AE"/>
</g>
<g id="g5905">
<path id="polygon5907" d="M56.7426 9.95322L54.5286 10.2202L54.5433 10.3432L55.2025 10.638L54.8361 10.1831L57.9709 14.4841L59.5699 14.2912L56.4351 9.9903L56.4719 10.2978L56.7573 10.0762L56.7426 9.95322Z" fill="#2774AE"/>
<path id="polygon5909" d="M59.7335 9.63785L61.9475 9.37086L61.9622 9.49385L61.3914 9.93701L61.64 9.40794L59.6088 14.3319L58.0098 14.5247L60.041 9.60077L60.0778 9.90826L59.7482 9.76085L59.7335 9.63785Z" fill="#2774AE"/>
<path id="polygon5911" d="M58.2386 17.0173L57.954 17.2395L57.9687 17.3628L60.1763 17.095L60.1616 16.9717L59.833 16.824L59.5321 14.2964L57.9377 14.4898L58.2386 17.0173Z" fill="#2774AE"/>
</g>
<g id="g5913">
<path id="circle5915" d="M75.8147 17.6259C77.3657 18.0576 78.971 17.152 79.4002 15.6031C79.8295 14.0542 78.9201 12.4486 77.3691 12.0169C75.8181 11.5851 74.2129 12.4907 73.7836 14.0396C73.3544 15.5885 74.2637 17.1941 75.8147 17.6259Z" stroke="#2774AE" stroke-width="2.6"/>
</g>
<g id="g5917">
<path id="polygon5919" d="M84.7294 17.0926L85.4337 15.6282L88.7491 17.2324L88.7822 17.5956L88.8946 17.65L89.7344 15.904L84.3961 13.321L84.342 13.4336L84.5417 13.7385L81.5616 19.9339L81.1994 19.9669L81.1452 20.0796L83.1681 21.0584L83.2223 20.9458L83.0226 20.6409L84.025 18.557L87.0594 20.0252L87.7638 18.5608L84.7294 17.0926Z" fill="#2774AE"/>
</g>
<g id="g5921">
<path id="circle5923" d="M98.0152 30.4177C99.1575 31.5762 101.022 31.5893 102.181 30.4468C103.339 29.3043 103.352 27.439 102.21 26.2804C101.068 25.1219 99.2026 25.1089 98.0443 26.2513C96.886 27.3938 96.873 29.2592 98.0152 30.4177Z" stroke="#2774AE" stroke-width="2.6"/>
<path id="rect5925" d="M103.865 30.3699L101.005 27.4688L99.22 29.2293L102.08 32.1304L103.865 30.3699Z" fill="white"/>
</g>
<g id="g5927">
<path id="polygon5929" d="M104.545 36.3917L105.89 35.4716L105.347 34.6794L109.221 33.5715L108.124 31.9695L108.02 32.0402L108.064 32.7693L108.301 32.2279L100.678 34.407L101.269 34.3823L100.605 34.0779L100.501 34.1486L101.776 36.0091L101.88 35.9383L101.836 35.2092L101.599 35.7507L103.624 35.048L104.545 36.3917Z" fill="#2774AE"/>
<path id="polygon5931" d="M104.469 36.2945L105.813 35.3745L106.356 36.1667L108.791 32.9576L109.889 34.5596L109.785 34.6303L109.121 34.3259L109.711 34.3012L104.922 40.6146L105.159 40.0731L105.203 40.8022L105.099 40.873L103.824 39.0126L103.928 38.9418L104.592 39.2463L104.002 39.271L105.389 37.6381L104.469 36.2945Z" fill="#2774AE"/>
</g>
<g id="g5933">
<path id="polygon5935" d="M112.665 39.3476L112.551 39.3981L112.506 39.7588L106.224 42.536L105.926 42.3268L105.812 42.3773L108.463 48.3604L110.234 47.5778L110.183 47.4638L109.822 47.4191L108.08 43.4873L113.448 41.1141L112.665 39.3476Z" fill="#2774AE"/>
</g>
<g id="g5937">
<path id="polygon5939" d="M115.956 47.6109L115.836 47.6471L115.748 47.9943L109.156 49.981L108.885 49.7422L108.765 49.7783L109.425 51.888L109.545 51.8519L109.633 51.5047L116.225 49.518L116.497 49.7568L116.616 49.7207L115.956 47.6109Z" fill="#2774AE"/>
</g>
<g id="g5941">
<path id="polygon5943" d="M114.472 55.2556L116.063 54.9895L116.666 58.5748L116.391 58.8083L116.411 58.9299L118.309 58.6125L117.339 52.8395L117.216 52.86L117.084 53.1945L110.349 54.3205L110.114 54.0474L109.991 54.0679L110.359 56.2555L110.482 56.2351L110.614 55.9005L112.88 55.5218L113.431 58.8033L115.023 58.5371L114.472 55.2556Z" fill="#2774AE"/>
</g>
<g id="g5945">
<path id="circle5947" d="M111.786 64.9908C111.746 66.6116 113.027 67.958 114.648 67.998C116.268 68.0381 117.614 66.7566 117.654 65.1358C117.694 63.515 116.413 62.1686 114.792 62.1286C113.172 62.0886 111.826 63.3701 111.786 64.9908Z" stroke="#2774AE" stroke-width="2.6"/>
</g>
<g id="g5949">
<path id="path5951" d="M113.539 74.9557L110.078 76.7693M110.469 71.8483L116.925 73.4413L116.3 75.9546C115.481 79.2459 112.645 78.5461 113.464 75.2549L114.089 72.7416L110.469 71.8483Z" stroke="#2774AE" stroke-width="2.6"/>
<path id="circle5953" d="M109.302 76.6632C109.195 77.0944 109.458 77.531 109.89 77.6384C110.322 77.7459 110.758 77.4835 110.865 77.0524C110.972 76.6212 110.708 76.1846 110.277 76.0772C109.845 75.9697 109.409 76.2321 109.302 76.6632Z" fill="#2774AE"/>
<path id="polygon5955" d="M110.136 72.9444L110.254 72.9739L110.503 72.713L110.871 71.1268L110.764 70.7775L110.645 70.748L110.136 72.9444Z" fill="#2774AE"/>
</g>
<g id="g5957">
<path id="polygon5959" d="M108.396 80.2034L108.282 80.1509L107.461 81.8973L114.287 85.049L115.108 83.3026L114.994 83.25L114.691 83.4529L108.434 80.5639L108.396 80.2034Z" fill="#2774AE"/>
<path id="polygon5961" d="M105.253 87.0223L105.139 86.9697L105.96 85.2233L112.786 88.375L111.965 90.1214L111.851 90.0689L111.813 89.7084L105.556 86.8194L105.253 87.0223Z" fill="#2774AE"/>
<path id="polygon5963" d="M105.961 85.1791L105.27 86.6472L114.287 85.0933L114.977 83.6252L105.961 85.1791Z" fill="#2774AE"/>
</g>
<g id="g5965">
<path id="polygon5967" d="M110.309 92.7607L110.204 92.6923L109.876 92.8519L104.098 89.0917L104.111 88.7271L104.006 88.6587L102.773 90.5461L102.878 90.6144L103.207 90.4548L108.985 94.215L108.971 94.5797L109.076 94.648L110.309 92.7607Z" fill="#2774AE"/>
</g>
<g id="g5969">
<path id="polygon5971" d="M100.848 96.3763L102.074 97.4499L102.707 96.7269L104.744 100.204L106.024 98.7425L105.93 98.6599L105.234 98.8838L105.817 98.9783L101.811 92.1369L101.982 92.7031L102.111 91.9837L102.017 91.9011L100.531 93.5989L100.625 93.6815L101.321 93.4576L100.737 93.3631L101.922 95.1502L100.848 96.3763Z" fill="#2774AE"/>
<path id="polygon5973" d="M100.931 96.2822L102.157 97.3558L101.524 98.0788L105.24 99.6388L103.96 101.101L103.866 101.018L103.995 100.299L104.166 100.865L96.8567 97.7964L97.4403 97.8909L96.7445 98.1148L96.6502 98.0322L98.1366 96.3344L98.2309 96.417L98.1009 97.1364L97.9301 96.5702L99.8577 97.5084L100.931 96.2822Z" fill="#2774AE"/>
</g>
<g id="g5975">
<path id="path5977" d="M49.3545 108.729L48.3283 112.311C47.2507 116.073 52.2409 117.526 53.3185 113.765L54.3447 110.183" stroke="#2774AE" stroke-width="2.6"/>
<path id="polygon5979" d="M50.3494 109.029L50.3159 109.147L49.9634 109.242L48.3913 108.814L48.1392 108.555L48.1727 108.437L50.3494 109.029Z" fill="#2774AE"/>
<path id="polygon5981" d="M53.2577 109.8L53.2242 109.918L53.4763 110.177L55.0483 110.605L55.4009 110.51L55.4344 110.392L53.2577 109.8Z" fill="#2774AE"/>
</g>
<g id="g5983">
<path id="circle5985" d="M59.2525 117.479C60.8543 117.641 62.283 116.474 62.4435 114.873C62.6041 113.272 61.4358 111.843 59.834 111.682C58.2322 111.52 56.8035 112.687 56.6429 114.288C56.4824 115.889 57.6507 117.318 59.2525 117.479Z" stroke="#2774AE" stroke-width="2.6"/>
<path id="rect5987" d="M63.7106 113.733L59.6814 113.332L59.434 115.784L63.4633 116.185L63.7106 113.733Z" fill="white"/>
</g>
<g id="g5989">
<path id="polygon5991" d="M64.6304 111.216L64.6427 111.339L64.9693 111.493L65.649 118.288L65.3595 118.504L65.3719 118.628L71.8412 117.973L71.6497 116.058L71.5265 116.07L71.3725 116.398L67.1212 116.828L66.5404 111.022L64.6304 111.216Z" fill="#2774AE"/>
</g>
<g id="g5993">
<path id="polygon5995" d="M77.5851 114.61L77.1426 113.053L76.2352 113.319L76.4005 109.313L74.5657 109.851L74.5997 109.971L75.2937 110.157L74.8616 109.764L74.5361 117.644L74.6959 117.079L74.2061 117.611L74.2401 117.731L76.3709 117.107L76.3369 116.987L75.6429 116.801L76.075 117.194L76.0461 115.061L77.5851 114.61Z" fill="#2774AE"/>
<path id="polygon5997" d="M77.5461 114.711L77.1037 113.154L78.011 112.888L75.7697 109.587L77.6046 109.05L77.6386 109.17L77.1488 109.702L77.3086 109.137L81.7182 115.63L81.2861 115.237L81.9801 115.423L82.0142 115.543L79.8833 116.167L79.8493 116.047L80.3391 115.515L80.1793 116.08L79.085 114.26L77.5461 114.711Z" fill="#2774AE"/>
</g>
<g id="g5999">
<path id="polygon6001" d="M40.1911 77.6527L40.1636 77.7156L40.2792 77.879L38.7653 81.3369L38.567 81.3621L38.5395 81.425L41.8356 82.8754L42.2623 81.9009L42.1995 81.8733L42.0365 81.989L39.8705 81.0359L41.1642 78.0809L40.1911 77.6527Z" fill="#2774AE"/>
</g>
<g id="g6003">
<path id="polygon6005" d="M45.2705 83.2433L45.8104 82.5279L44.6002 81.614L45.0362 81.0362L46.6589 82.2616L46.6376 82.4615L46.6926 82.503L47.3363 81.65L44.7234 79.6769L44.6819 79.7319L44.7572 79.9183L42.4732 82.9451L42.2734 82.9238L42.2319 82.9789L44.8447 84.952L45.4884 84.099L45.4334 84.0575L45.247 84.1327L43.6243 82.9073L44.0603 82.3295L45.2705 83.2433Z" fill="#2774AE"/>
</g>
<g id="g6007">
<path id="polygon6009" d="M49.597 86.2564L50.4606 85.6274L48.2285 82.5625L47.365 83.1916L47.4055 83.2473L47.6057 83.2294L48.3565 84.2603L45.8772 86.0663L45.6921 85.9879L45.6364 86.0285L46.3669 87.0315L46.4226 86.9909L46.4048 86.7907L48.8841 84.9847L49.6349 86.0156L49.5564 86.2007L49.597 86.2564Z" fill="#2774AE"/>
</g>
<g id="g6011">
<path id="polygon6013" d="M53.0274 91.617L53.9015 91.0029L51.7221 87.9008L50.848 88.515L50.8876 88.5714L51.0881 88.5569L51.8211 89.6003L49.3116 91.3636L49.1279 91.2821L49.0715 91.3217L49.7848 92.3369L49.8412 92.2973L49.8267 92.0968L52.3363 90.3336L53.0693 91.377L52.9878 91.5606L53.0274 91.617Z" fill="#2774AE"/>
</g>
<g id="g6015">
<path id="polygon6017" d="M53.8815 91.2993L53.8287 91.3436L53.8603 91.5421L50.956 93.9799L50.766 93.9144L50.7132 93.9587L51.511 94.9093L51.5638 94.865L51.5322 94.6665L54.4366 92.2286L54.6266 92.2942L54.6794 92.2498L53.8815 91.2993Z" fill="#2774AE"/>
<path id="polygon6019" d="M56.5405 94.4683L56.4877 94.5126L56.2977 94.4471L53.3933 96.8849L53.425 97.0835L53.3721 97.1278L52.5743 96.1772L52.6271 96.1329L52.8171 96.1984L55.7214 93.7606L55.6898 93.5621L55.7426 93.5177L56.5405 94.4683Z" fill="#2774AE"/>
<path id="polygon6021" d="M52.1758 93.1812L54.3916 95.8221L55.0779 95.2458L52.8621 92.6049L52.1758 93.1812Z" fill="#2774AE"/>
</g>
<g id="g6023">
<path id="polygon6025" d="M57.7515 98.2488L58.2284 97.4905L56.9464 96.6826L57.3315 96.0701L59.0506 97.1534L59.0463 97.3543L59.1045 97.391L59.6731 96.4869L56.9052 94.7427L56.8685 94.801L56.9592 94.9803L54.9416 98.1885L54.7409 98.1842L54.7042 98.2426L57.4722 99.9868L58.0408 99.0826L57.9825 99.0459L57.8034 99.1367L56.0843 98.0534L56.4695 97.4409L57.7515 98.2488Z" fill="#2774AE"/>
</g>
<g id="g6027">
<path id="path6029" d="M61.3003 99.0585L62.2304 101.002M59.5271 100.677L60.5336 97.1629L61.9057 97.5627C63.7027 98.0862 63.2606 99.6296 61.4637 99.1061L60.0915 98.7063L59.5271 100.677Z" stroke="#2774AE" stroke-width="1.43"/>
<path id="circle6031" d="M62.1509 101.424C62.3863 101.492 62.6321 101.357 62.6999 101.122C62.7676 100.887 62.6316 100.641 62.3962 100.573C62.1607 100.504 61.9149 100.64 61.8472 100.875C61.7794 101.11 61.9154 101.356 62.1509 101.424Z" fill="#2774AE"/>
<path id="polygon6033" d="M60.1255 100.887L60.1439 100.822L60.0052 100.68L59.1402 100.444L58.9462 100.496L58.9278 100.561L60.1255 100.887Z" fill="#2774AE"/>
</g>
<g id="g6035">
<path id="polygon6037" d="M66.3351 100.259L66.4233 99.3746L64.9342 99.2234L65.0055 98.5094L67.0023 98.712L67.0869 98.8924L67.1546 98.8992L67.2598 97.8451L64.0445 97.5188L64.0377 97.5868L64.1968 97.7059L63.8234 101.446L63.644 101.531L63.6372 101.599L66.8524 101.926L66.9577 100.871L66.89 100.865L66.7715 101.024L64.7746 100.822L64.8459 100.108L66.3351 100.259Z" fill="#2774AE"/>
</g>
<g id="g6039">
<path id="path6041" d="M69.9263 98.9362L70.7206 100.834L72.0475 100.276C73.785 99.545 73.1628 98.0583 71.4253 98.7893L70.0984 99.3475M70.2705 99.7587L69.4763 97.8607L70.8031 97.3025C72.5406 96.5715 73.1628 98.0583 71.4253 98.7893L70.0984 99.3475L70.2705 99.7587Z" stroke="#2774AE" stroke-width="1.43"/>
<path id="polygon6043" d="M70.2576 101.419L70.284 101.482L70.8581 101.247L70.3775 101.26L70.2576 101.419Z" fill="#2774AE"/>
<path id="polygon6045" d="M68.7595 97.7118L68.7331 97.6489L69.3072 97.4138L68.9586 97.7409L68.7595 97.7118Z" fill="#2774AE"/>
</g>
<g id="g6047">
<path id="polygon6049" d="M76.2149 96.7035L75.7381 95.9452L74.4561 96.753L74.0709 96.1405L75.79 95.0573L75.9691 95.148L76.0273 95.1113L75.4588 94.2072L72.6908 95.9514L72.7275 96.0097L72.9282 96.0054L74.9457 99.2136L74.8551 99.3929L74.8918 99.4513L77.6597 97.7071L77.0911 96.8029L77.0329 96.8397L77.0371 97.0406L75.3181 98.1238L74.933 97.5113L76.2149 96.7035Z" fill="#2774AE"/>
</g>
<g id="g6051">
<path id="polygon6053" d="M78.1059 80.4928L78.0953 80.5601L78.2472 80.6878L77.6644 84.3893L77.4807 84.4635L77.4701 84.5308L80.9941 85.0934L81.1583 84.0503L81.0912 84.0396L80.964 84.1917L78.6483 83.822L79.1463 80.6589L78.1059 80.4928Z" fill="#2774AE"/>
</g>
<g id="g6055">
<path id="polygon6057" d="M82.5578 81.099L82.5452 81.1665L82.6903 81.3008L81.9944 85.0159L81.8113 85.0843L81.7987 85.1519L82.9804 85.3889L82.9931 85.3214L82.8479 85.1871L83.5438 81.472L83.7269 81.4036L83.7396 81.3361L82.5578 81.099Z" fill="#2774AE"/>
</g>
<g id="g6059">
<path id="path6061" d="M87.6799 83.2812C85.6245 81.0531 83.5588 85.4532 85.9052 85.8287L87.0784 86.0165L87.3271 84.4333" stroke="#2774AE" stroke-width="1.43"/>
<path id="polygon6063" d="M87.9628 84.5079L87.9526 84.5735L87.7667 84.6469L86.8799 84.5173L86.7247 84.394L86.7349 84.3284L87.9628 84.5079Z" fill="#2774AE"/>
</g>
<g id="g6065">
<path id="polygon6067" d="M89.0359 82.617V82.686L89.2084 82.7894V86.5818L89.0359 86.6852V86.7542H90.2775V86.6852L90.105 86.5818V82.7894L90.2775 82.686V82.617H89.0359Z" fill="#2774AE"/>
<path id="polygon6069" d="M93.1729 82.617V82.686L93.0004 82.7894V86.5818L93.1729 86.6852V86.7542H91.9313V86.6852L92.1038 86.5818V82.7894L91.9313 82.686V82.617H93.1729Z" fill="#2774AE"/>
<path id="polygon6071" d="M89.3806 85.1338H92.8275V84.2374H89.3806V85.1338Z" fill="#2774AE"/>
</g>
<g id="g6073">
<path id="polygon6075" d="M97.3826 83.1988L97.2772 82.1462L93.5476 82.5235L93.653 83.5762L93.7208 83.5693L93.8055 83.3892L95.06 83.2623L95.3626 86.2843L95.2033 86.4033L95.2101 86.4712L96.4307 86.3478L96.4239 86.2798L96.2442 86.1951L95.9416 83.1731L97.1961 83.0462L97.3148 83.2057L97.3826 83.1988Z" fill="#2774AE"/>
</g>
</g>
</g>
<defs>
<clipPath id="clip0_2_316">
<rect width="128" height="128" fill="white"/>
</clipPath>
</defs>
</svg>
